<svg width="25" height="24" viewBox="0 0 25 24" fill="none" xmlns="http://www.w3.org/2000/svg">
<path d="M21 6H10C9.17157 6 8.5 6.67157 8.5 7.5V13.5C8.5 14.3284 9.17157 15 10 15H21C21.8284 15 22.5 14.3284 22.5 13.5V7.5C22.5 6.67157 21.8284 6 21 6Z" fill="#98A2B3"/>
<path fill-rule="evenodd" clip-rule="evenodd" d="M10 6.75C9.58579 6.75 9.25 7.08579 9.25 7.5V13.5C9.25 13.9142 9.58579 14.25 10 14.25H21C21.4142 14.25 21.75 13.9142 21.75 13.5V7.5C21.75 7.08579 21.4142 6.75 21 6.75H10ZM7.75 7.5C7.75 6.25736 8.75736 5.25 10 5.25H21C22.2426 5.25 23.25 6.25736 23.25 7.5V13.5C23.25 14.7426 22.2426 15.75 21 15.75H10C8.75736 15.75 7.75 14.7426 7.75 13.5V7.5Z" fill="#98A2B3"/>
<path fill-rule="evenodd" clip-rule="evenodd" d="M12.5 8.25C12.9142 8.25 13.25 8.58579 13.25 9V12C13.25 12.4142 12.9142 12.75 12.5 12.75C12.0858 12.75 11.75 12.4142 11.75 12V9C11.75 8.58579 12.0858 8.25 12.5 8.25Z" fill="#FFFBFF"/>
<path fill-rule="evenodd" clip-rule="evenodd" d="M18.5 8.25C18.9142 8.25 19.25 8.58579 19.25 9V12C19.25 12.4142 18.9142 12.75 18.5 12.75C18.0858 12.75 17.75 12.4142 17.75 12V9C17.75 8.58579 18.0858 8.25 18.5 8.25Z" fill="#FFFBFF"/>
<path fill-rule="evenodd" clip-rule="evenodd" d="M11.75 3C11.75 2.58579 12.0858 2.25 12.5 2.25H18.5C18.9142 2.25 19.25 2.58579 19.25 3V6C19.25 6.41421 18.9142 6.75 18.5 6.75C18.0858 6.75 17.75 6.41421 17.75 6V3.75H13.25V6C13.25 6.41421 12.9142 6.75 12.5 6.75C12.0858 6.75 11.75 6.41421 11.75 6V3Z" fill="#98A2B3"/>
<path fill-rule="evenodd" clip-rule="evenodd" d="M1.75 4.5C1.75 4.08579 2.08579 3.75 2.5 3.75H4.5C5.4665 3.75 6.25 4.5335 6.25 5.5V17C6.25 17.1381 6.36191 17.25 6.5 17.25H22.5C22.9142 17.25 23.25 17.5858 23.25 18C23.25 18.4142 22.9142 18.75 22.5 18.75H6.5C5.53349 18.75 4.75 17.9665 4.75 17V5.5C4.75 5.36193 4.63807 5.25 4.5 5.25H2.5C2.08579 5.25 1.75 4.91421 1.75 4.5Z" fill="#98A2B3"/>
<path d="M10 21C9.17155 21 8.5 20.3285 8.5 19.5V18H11.5V19.5C11.5 20.3285 10.8285 21 10 21Z" fill="#98A2B3"/>
<path fill-rule="evenodd" clip-rule="evenodd" d="M7.75 18C7.75 17.5858 8.08579 17.25 8.5 17.25H11.5C11.9142 17.25 12.25 17.5858 12.25 18V19.5C12.25 20.7427 11.2427 21.75 10 21.75C8.75734 21.75 7.75 20.7427 7.75 19.5V18ZM9.25 18.75V19.5C9.25 19.9142 9.58576 20.25 10 20.25C10.4142 20.25 10.75 19.9142 10.75 19.5V18.75H9.25Z" fill="#98A2B3"/>
<path d="M19 21C18.1715 21 17.5 20.3285 17.5 19.5V18H20.5V19.5C20.5 20.3285 19.8285 21 19 21Z" fill="#98A2B3"/>
<path fill-rule="evenodd" clip-rule="evenodd" d="M16.75 18C16.75 17.5858 17.0858 17.25 17.5 17.25H20.5C20.9142 17.25 21.25 17.5858 21.25 18V19.5C21.25 20.7427 20.2427 21.75 19 21.75C17.7573 21.75 16.75 20.7427 16.75 19.5V18ZM18.25 18.75V19.5C18.25 19.9142 18.5858 20.25 19 20.25C19.4142 20.25 19.75 19.9142 19.75 19.5V18.75H18.25Z" fill="#98A2B3"/>
</svg>
