<svg width="144" height="115" viewBox="0 0 144 115" fill="none" xmlns="http://www.w3.org/2000/svg">
<rect y="39" width="144" height="76" rx="16" fill="#344054"/>
<mask id="mask0_1844_17993" style="mask-type:alpha" maskUnits="userSpaceOnUse" x="0" y="0" width="144" height="115">
<rect width="144" height="115" rx="16" fill="#F1F5F9"/>
</mask>
<g mask="url(#mask0_1844_17993)">
<path d="M107.781 10H28.3718C24.5766 10 21.5 13.0766 21.5 16.8718V121.037C21.5 124.832 24.5766 127.909 28.3718 127.909H107.781C111.576 127.909 114.653 124.832 114.653 121.037V16.8718C114.653 13.0766 111.576 10 107.781 10Z" fill="#732438"/>
<path d="M113.13 10H33.7203C29.9251 10 26.8485 13.0766 26.8485 16.8718V121.037C26.8485 124.832 29.9251 127.909 33.7203 127.909H113.13C116.925 127.909 120.001 124.832 120.001 121.037V16.8718C120.001 13.0766 116.925 10 113.13 10Z" fill="#F44671"/>
<path opacity="0.2" d="M113.13 10H33.7203C29.9251 10 26.8485 13.0766 26.8485 16.8718V121.037C26.8485 124.832 29.9251 127.909 33.7203 127.909H113.13C116.925 127.909 120.001 124.832 120.001 121.037V16.8718C120.001 13.0766 116.925 10 113.13 10Z" fill="black"/>
<g style="mix-blend-mode:color-dodge" opacity="0.4">
<path d="M103.773 114.314H43.0717C42.3766 114.312 41.7104 114.035 41.2188 113.544C40.7273 113.052 40.4505 112.386 40.449 111.691V26.2286C40.449 25.5324 40.7251 24.8647 41.2168 24.372C41.7085 23.8792 42.3756 23.6016 43.0717 23.6001H103.773C104.469 23.6016 105.136 23.8792 105.627 24.372C106.119 24.8647 106.395 25.5324 106.395 26.2286V111.691C106.394 112.386 106.117 113.052 105.625 113.544C105.134 114.035 104.468 114.312 103.773 114.314ZM43.0717 23.8864C42.4515 23.8879 41.8573 24.1354 41.4193 24.5744C40.9813 25.0135 40.7353 25.6084 40.7353 26.2286V111.691C40.7353 111.998 40.7957 112.301 40.9132 112.585C41.0306 112.868 41.2027 113.126 41.4196 113.343C41.6366 113.56 41.8941 113.732 42.1776 113.849C42.4611 113.967 42.7649 114.027 43.0717 114.027H103.773C104.392 114.027 104.986 113.781 105.425 113.343C105.863 112.905 106.109 112.31 106.109 111.691V26.2286C106.109 25.6084 105.863 25.0135 105.425 24.5744C104.987 24.1354 104.393 23.8879 103.773 23.8864H43.0717Z" fill="#E6E6E6"/>
</g>
<path d="M105.113 111.691V26.2229C105.113 25.486 104.515 24.8887 103.778 24.8887L43.0717 24.8887C42.3348 24.8887 41.7374 25.486 41.7374 26.2229L41.7374 111.691C41.7374 112.428 42.3348 113.025 43.0717 113.025H103.778C104.515 113.025 105.113 112.428 105.113 111.691Z" fill="#F44671"/>
<path opacity="0.1" d="M105.113 111.691V26.2229C105.113 25.486 104.515 24.8887 103.778 24.8887L43.0717 24.8887C42.3348 24.8887 41.7374 25.486 41.7374 26.2229L41.7374 111.691C41.7374 112.428 42.3348 113.025 43.0717 113.025H103.778C104.515 113.025 105.113 112.428 105.113 111.691Z" fill="white"/>
<path d="M122 34.3091H121.427V39.1422H122V34.3091Z" fill="#F44671"/>
<path d="M122 16.8716H121.427V29.2179H122V16.8716Z" fill="#F44671"/>
<path opacity="0.1" d="M73.4221 90.1538C84.2068 90.1538 92.9495 81.4111 92.9495 70.6265C92.9495 59.8418 84.2068 51.0991 73.4221 51.0991C62.6375 51.0991 53.8948 59.8418 53.8948 70.6265C53.8948 81.4111 62.6375 90.1538 73.4221 90.1538Z" fill="black"/>
<path d="M73.4222 41.6273C76.0567 41.6273 78.1923 39.4916 78.1923 36.8571C78.1923 34.2226 76.0567 32.0869 73.4222 32.0869C70.7877 32.0869 68.652 34.2226 68.652 36.8571C68.652 39.4916 70.7877 41.6273 73.4222 41.6273Z" fill="#F44671"/>
<path opacity="0.6" d="M73.3936 41.6155C76.0281 41.6155 78.1638 39.4799 78.1638 36.8454C78.1638 34.2109 76.0281 32.0752 73.3936 32.0752C70.7591 32.0752 68.6234 34.2109 68.6234 36.8454C68.6234 39.4799 70.7591 41.6155 73.3936 41.6155Z" fill="white"/>
<path d="M73.4221 40.6249C72.6768 40.6249 71.9483 40.404 71.3287 39.9899C70.709 39.5759 70.2261 38.9874 69.9409 38.2989C69.6557 37.6104 69.5811 36.8527 69.7265 36.1218C69.8718 35.3909 70.2307 34.7195 70.7577 34.1925C71.2847 33.6655 71.956 33.3067 72.687 33.1613C73.4179 33.0159 74.1755 33.0905 74.864 33.3757C75.5526 33.6609 76.1411 34.1438 76.5551 34.7635C76.9691 35.3831 77.1901 36.1117 77.1901 36.8569C77.1886 37.8558 76.7911 38.8133 76.0848 39.5196C75.3785 40.2259 74.421 40.6234 73.4221 40.6249ZM73.4221 33.3752C72.7335 33.3752 72.0603 33.5794 71.4878 33.962C70.9152 34.3445 70.4689 34.8883 70.2054 35.5245C69.9419 36.1607 69.8729 36.8608 70.0073 37.5362C70.1416 38.2115 70.4732 38.8319 70.9601 39.3188C71.4471 39.8058 72.0675 40.1374 72.7428 40.2717C73.4182 40.4061 74.1183 40.3371 74.7545 40.0736C75.3907 39.8101 75.9345 39.3638 76.317 38.7912C76.6996 38.2187 76.9038 37.5455 76.9038 36.8569C76.9023 35.934 76.535 35.0493 75.8823 34.3966C75.2297 33.744 74.345 33.3767 73.4221 33.3752Z" fill="#F44671"/>
<path d="M41.6572 36.1128H39.5327C39.0646 36.1128 38.6852 36.4922 38.6852 36.9603V48.5851C38.6852 49.0532 39.0646 49.4326 39.5327 49.4326H41.6572C42.1253 49.4326 42.5048 49.0532 42.5048 48.5851V36.9603C42.5048 36.4922 42.1253 36.1128 41.6572 36.1128Z" fill="#F44671"/>
<path opacity="0.6" d="M41.6572 36.1128H39.5327C39.0646 36.1128 38.6852 36.4922 38.6852 36.9603V48.5851C38.6852 49.0532 39.0646 49.4326 39.5327 49.4326H41.6572C42.1253 49.4326 42.5048 49.0532 42.5048 48.5851V36.9603C42.5048 36.4922 42.1253 36.1128 41.6572 36.1128Z" fill="white"/>
<path d="M41.6572 88.4814H39.5327C39.0646 88.4814 38.6852 88.8609 38.6852 89.329V100.954C38.6852 101.422 39.0646 101.801 39.5327 101.801H41.6572C42.1253 101.801 42.5048 101.422 42.5048 100.954V89.329C42.5048 88.8609 42.1253 88.4814 41.6572 88.4814Z" fill="#F44671"/>
<path opacity="0.6" d="M41.6572 88.4814H39.5327C39.0646 88.4814 38.6852 88.8609 38.6852 89.329V100.954C38.6852 101.422 39.0646 101.801 39.5327 101.801H41.6572C42.1253 101.801 42.5048 101.422 42.5048 100.954V89.329C42.5048 88.8609 42.1253 88.4814 41.6572 88.4814Z" fill="white"/>
<path d="M73.4221 88.4873C84.2068 88.4873 92.9495 79.7446 92.9495 68.96C92.9495 58.1753 84.2068 49.4326 73.4221 49.4326C62.6375 49.4326 53.8948 58.1753 53.8948 68.96C53.8948 79.7446 62.6375 88.4873 73.4221 88.4873Z" fill="#F44671"/>
<path opacity="0.6" d="M73.4221 88.4873C84.2068 88.4873 92.9495 79.7446 92.9495 68.96C92.9495 58.1753 84.2068 49.4326 73.4221 49.4326C62.6375 49.4326 53.8948 58.1753 53.8948 68.96C53.8948 79.7446 62.6375 88.4873 73.4221 88.4873Z" fill="white"/>
<path d="M63.7611 58.4821L62.9513 59.292L83.0922 79.4329L83.9021 78.6231L63.7611 58.4821Z" fill="#F44671"/>
<path d="M83.0922 58.4821L62.9513 78.623L63.7611 79.4329L83.9021 59.292L83.0922 58.4821Z" fill="#F44671"/>
<path opacity="0.2" d="M83.026 58.4167L62.885 78.5576L63.6949 79.3675L83.8358 59.2265L83.026 58.4167Z" fill="black"/>
<path opacity="0.2" d="M63.699 58.4206L62.8892 59.2305L83.0301 79.3714L83.8399 78.5616L63.699 58.4206Z" fill="black"/>
<path d="M73.3648 83.7172C70.4323 83.7184 67.5653 82.8498 65.1264 81.2214C62.6876 79.593 60.7864 77.2779 59.6634 74.5689C58.5404 71.8599 58.246 68.8788 58.8174 66.0025C59.3888 63.1261 60.8004 60.4839 62.8736 58.4099C64.9468 56.3359 67.5885 54.9233 70.4646 54.3507C73.3407 53.7782 76.322 54.0715 79.0314 55.1935C81.7408 56.3154 84.0567 58.2157 85.686 60.6539C87.3153 63.0921 88.185 65.9588 88.185 68.8913C88.182 72.8215 86.6198 76.5899 83.8413 79.3695C81.0628 82.149 77.295 83.7127 73.3648 83.7172ZM73.3648 55.2107C70.6588 55.2096 68.0133 56.011 65.7627 57.5135C63.5122 59.0161 61.7579 61.1523 60.7215 63.652C59.6852 66.1517 59.4135 68.9026 59.9407 71.5568C60.4679 74.2109 61.7704 76.6491 63.6834 78.5629C65.5965 80.4768 68.0341 81.7803 70.688 82.3086C73.342 82.837 76.093 82.5664 78.5931 81.5311C81.0933 80.4958 83.2302 78.7423 84.7337 76.4925C86.2372 74.2426 87.0397 71.5974 87.0397 68.8913C87.0367 65.2649 85.5951 61.7878 83.0314 59.2231C80.4677 56.6583 76.9912 55.2153 73.3648 55.2107Z" fill="#F44671"/>
<path d="M77.7458 73.2774C80.1678 70.8555 80.1678 66.9287 77.7458 64.5068C75.3239 62.0848 71.3971 62.0848 68.9752 64.5068C66.5532 66.9287 66.5532 70.8555 68.9752 73.2774C71.3971 75.6994 75.3239 75.6994 77.7458 73.2774Z" fill="#F44671"/>
<path opacity="0.2" d="M73.3648 83.7172C70.4323 83.7184 67.5653 82.8498 65.1264 81.2214C62.6876 79.593 60.7864 77.2779 59.6634 74.5689C58.5404 71.8599 58.246 68.8788 58.8174 66.0025C59.3888 63.1261 60.8004 60.4839 62.8736 58.4099C64.9468 56.3359 67.5885 54.9233 70.4646 54.3507C73.3407 53.7782 76.322 54.0715 79.0314 55.1935C81.7408 56.3154 84.0567 58.2157 85.686 60.6539C87.3153 63.0921 88.185 65.9588 88.185 68.8913C88.182 72.8215 86.6198 76.5899 83.8413 79.3695C81.0628 82.149 77.295 83.7127 73.3648 83.7172ZM73.3648 55.2107C70.6588 55.2096 68.0133 56.011 65.7627 57.5135C63.5122 59.0161 61.7579 61.1523 60.7215 63.652C59.6852 66.1517 59.4135 68.9026 59.9407 71.5568C60.4679 74.2109 61.7704 76.6491 63.6834 78.5629C65.5965 80.4768 68.0341 81.7803 70.688 82.3086C73.342 82.837 76.093 82.5664 78.5931 81.5311C81.0933 80.4958 83.2302 78.7423 84.7337 76.4925C86.2372 74.2426 87.0397 71.5974 87.0397 68.8913C87.0367 65.2649 85.5951 61.7878 83.0314 59.2231C80.4677 56.6583 76.9912 55.2153 73.3648 55.2107Z" fill="black"/>
<path opacity="0.2" d="M77.7458 73.2774C80.1678 70.8555 80.1678 66.9287 77.7458 64.5068C75.3239 62.0848 71.3971 62.0848 68.9752 64.5068C66.5532 66.9287 66.5532 70.8555 68.9752 73.2774C71.3971 75.6994 75.3239 75.6994 77.7458 73.2774Z" fill="black"/>
</g>
</svg>
