<svg width="24" height="24" viewBox="0 0 24 24" fill="none" xmlns="http://www.w3.org/2000/svg">
<path d="M4 1.25C3.58579 1.25 3.25 1.58579 3.25 2V5.25H2C1.58579 5.25 1.25 5.58579 1.25 6V10C1.25 10.2634 1.38823 10.5076 1.61413 10.6431L2.3134 11.0627C2.61157 11.2416 2.9262 11.3808 3.25 11.4805V22C3.25 22.4142 3.58579 22.75 4 22.75H20C20.4142 22.75 20.75 22.4142 20.75 22V11.4805C21.0738 11.3808 21.3885 11.2416 21.6866 11.0627L22.3859 10.6431C22.6118 10.5076 22.75 10.2634 22.75 10V6C22.75 5.58579 22.4142 5.25 22 5.25H20.75V2C20.75 1.58579 20.4142 1.25 20 1.25H4ZM14.5 15.25H9.5C9.08579 15.25 8.75 15.5858 8.75 16V21.25H4.75V11.661C5.42256 11.6214 6.0878 11.422 6.68663 11.0627L7 10.8746L7.31337 11.0627C8.65929 11.8702 10.3407 11.8702 11.6866 11.0627L12 10.8746L12.3134 11.0627C13.6593 11.8702 15.3407 11.8702 16.6866 11.0627L17 10.8746L17.3134 11.0627C17.9122 11.422 18.5774 11.6214 19.25 11.661V21.25H15.25V16C15.25 15.5858 14.9142 15.25 14.5 15.25ZM19.25 5.25H4.75V2.75H19.25V5.25Z" fill="#98A2B3"/>
</svg>
