<svg width="25" height="24" viewBox="0 0 25 24" fill="none" xmlns="http://www.w3.org/2000/svg">
<path d="M10.018 22C9.52805 20.4022 8.7889 19.211 7.80055 18.4265C6.318 17.2498 3.96242 17.9811 3.09229 16.7674C2.22217 15.5536 3.70191 13.3215 4.22117 12.0044C4.74043 10.6874 2.2309 10.2217 2.52388 9.84783C2.71921 9.59858 3.98736 8.87928 6.32835 7.68998C6.9935 3.89666 9.4504 2 13.6991 2C20.0721 2 22.5 7.40298 22.5 10.8394C22.5 14.2759 19.5601 17.9781 15.3721 18.7763C14.9976 19.3217 15.5377 20.3963 16.9924 22" stroke="#98A2B3" stroke-width="1.5" stroke-linecap="round" stroke-linejoin="round"/>
<path fill-rule="evenodd" clip-rule="evenodd" d="M10.5414 9.91918C10.0204 9.40683 9.92319 8.51703 10.2498 7.24993C10.4442 6.60148 11.0181 6.18483 11.9716 5.99993C12.7748 5.84413 12.9292 5.99729 13.0947 6.16151C13.2239 6.28968 13.3599 6.42458 13.8164 6.42458C14.8579 6.42458 16.0119 6.72253 16.0119 7.24993C16.0119 7.77728 16.9998 7.82368 17.3812 7.82368C17.7625 7.82368 18.6926 9.19958 18.4998 10.9244C18.3714 12.0742 17.5421 12.4341 16.0119 12.0041C16.0083 12.0172 16.0045 12.0302 16.0007 12.0431C16.1557 12.0979 16.2939 12.2039 16.3874 12.3546C16.6058 12.7065 16.4975 13.1689 16.1455 13.3873C15.9156 13.5299 15.6396 13.7222 15.3908 13.9231C15.1309 14.133 14.9465 14.3158 14.8597 14.437C14.6696 14.7022 14.4891 14.9406 14.3283 15.1529C14.1649 15.3687 14.0263 15.5518 13.9071 15.7216C13.6617 16.0709 13.5583 16.2838 13.5251 16.4504C13.4443 16.8566 13.0495 17.1204 12.6432 17.0396C12.237 16.9588 11.9732 16.564 12.054 16.1577C12.1512 15.6689 12.4108 15.2422 12.6795 14.8595C12.8148 14.6669 12.9678 14.4648 13.1239 14.2588L13.1325 14.2474C13.294 14.034 13.4634 13.8102 13.6405 13.5631C13.7226 13.4485 13.8212 13.3346 13.9284 13.2242C13.1952 13.1335 12.9543 12.3668 13.2056 10.9244C11.9505 10.7666 11.0625 10.4316 10.5414 9.91918Z" fill="#98A2B3"/>
</svg>
