<svg width="23" height="24" viewBox="0 0 23 24" fill="none" xmlns="http://www.w3.org/2000/svg">
<g clip-path="url(#clip0_1838_15887)">
<path fill-rule="evenodd" clip-rule="evenodd" d="M18.4205 5.3335V15.3581H16.042V5.83473L18.4205 5.3335ZM11.6483 16.3081C12.3051 16.3081 12.8375 16.8361 12.8375 17.4875C12.8375 18.1388 12.3051 18.6668 11.6483 18.6668C10.9915 18.6668 10.459 18.1388 10.459 17.4875C10.459 16.8361 10.9915 16.3081 11.6483 16.3081ZM11.6483 8.18034C13.6734 8.18034 15.3185 9.80853 15.3185 11.82C15.3185 13.8315 13.6733 15.4596 11.6483 15.4596C9.6199 15.4596 7.97803 13.8315 7.97803 11.82C7.97803 9.80853 9.6232 8.18034 11.6483 8.18034ZM11.6483 12.9993C12.3057 12.9993 12.8375 12.4719 12.8375 11.82C12.8375 11.1681 12.3057 10.6406 11.6483 10.6406C10.9909 10.6406 10.459 11.1681 10.459 11.82C10.459 12.4719 10.9909 12.9993 11.6483 12.9993ZM4.16577 12.9993C4.5754 12.9993 4.90907 12.6685 4.90907 12.2622C4.90907 11.856 4.5754 11.5251 4.16577 11.5251H2.38185V12.9993H4.16577ZM2.38185 7.69222V9.16643H3.70327C4.1129 9.16643 4.44657 8.83553 4.44657 8.42932C4.44657 8.0231 4.1129 7.69222 3.70327 7.69222H2.38185ZM6.356 10.0575C6.93083 10.621 7.2876 11.4007 7.2843 12.2622C7.2843 13.9723 5.88693 15.3581 4.16247 15.3581H0V5.3335H3.69997C5.42443 5.3335 6.8218 6.71925 6.8218 8.42932C6.8218 9.02556 6.65333 9.58576 6.356 10.0575ZM22.9133 10.6734H21.7274V12.5243C21.7274 13.0845 21.9091 13.4973 22.3848 13.4973C22.692 13.4973 22.9167 13.4285 22.9167 13.4285V15.1648C22.9167 15.1648 22.4244 15.4596 21.7571 15.4596H21.7274C21.6976 15.4596 21.6712 15.4564 21.6415 15.4564H21.6183C21.6051 15.4564 21.5886 15.4531 21.5754 15.4531C20.2474 15.3843 19.3455 14.5554 19.3455 13.1173V7.01409L21.7241 6.51286V8.31466H22.9133V10.6734Z" fill="#98A2B3"/>
</g>
<defs>
<clipPath id="clip0_1838_15887">
<rect width="23" height="13.3333" fill="white" transform="translate(0 5.3335)"/>
</clipPath>
</defs>
</svg>
