<svg width="24" height="24" viewBox="0 0 24 24" fill="none" xmlns="http://www.w3.org/2000/svg">
<path d="M21 6H3C2.44771 6 2 6.4477 2 7V20C2 20.5523 2.44771 21 3 21H21C21.5523 21 22 20.5523 22 20V7C22 6.4477 21.5523 6 21 6Z" fill="#98A2B3"/>
<path fill-rule="evenodd" clip-rule="evenodd" d="M1.25 7C1.25 6.03348 2.03351 5.25 3 5.25H21C21.9665 5.25 22.75 6.03349 22.75 7V20C22.75 20.9665 21.9665 21.75 21 21.75H3C2.03351 21.75 1.25 20.9665 1.25 20V7ZM3 6.75C2.86192 6.75 2.75 6.86192 2.75 7V20C2.75 20.1381 2.86192 20.25 3 20.25H21C21.1381 20.25 21.25 20.1381 21.25 20V7C21.25 6.86191 21.1381 6.75 21 6.75H3Z" fill="#98A2B3"/>
<path d="M15.5 9.5H5.5V17.5H15.5V9.5Z" fill="#FFFBFF"/>
<path fill-rule="evenodd" clip-rule="evenodd" d="M4.75 9.5C4.75 9.08579 5.08579 8.75 5.5 8.75H15.5C15.9142 8.75 16.25 9.08579 16.25 9.5V17.5C16.25 17.9142 15.9142 18.25 15.5 18.25H5.5C5.08579 18.25 4.75 17.9142 4.75 17.5V9.5ZM6.25 10.25V16.75H14.75V10.25H6.25Z" fill="#FFFBFF"/>
<path fill-rule="evenodd" clip-rule="evenodd" d="M17.5529 0.493211C17.8328 0.798551 17.8122 1.27298 17.5068 1.55287L12.0523 6.55287C11.7765 6.80562 11.3567 6.81657 11.0682 6.57853L6.52273 2.82853C6.20322 2.56494 6.15789 2.09223 6.42149 1.77272C6.68509 1.4532 7.1578 1.40788 7.47731 1.67147L11.5196 5.00633L16.4932 0.447139C16.7986 0.167244 17.273 0.187872 17.5529 0.493211Z" fill="#98A2B3"/>
<path fill-rule="evenodd" clip-rule="evenodd" d="M19 8.25C19.4142 8.25 19.75 8.58579 19.75 9V9.5C19.75 9.91421 19.4142 10.25 19 10.25C18.5858 10.25 18.25 9.91421 18.25 9.5V9C18.25 8.58579 18.5858 8.25 19 8.25Z" fill="#FFFBFF"/>
<path fill-rule="evenodd" clip-rule="evenodd" d="M19 11.75C19.4142 11.75 19.75 12.0858 19.75 12.5V13C19.75 13.4142 19.4142 13.75 19 13.75C18.5858 13.75 18.25 13.4142 18.25 13V12.5C18.25 12.0858 18.5858 11.75 19 11.75Z" fill="#FFFBFF"/>
</svg>
