<svg width="25" height="24" viewBox="0 0 25 24" fill="none" xmlns="http://www.w3.org/2000/svg">
<path fill-rule="evenodd" clip-rule="evenodd" d="M12.5 4L22.5 10.5V22H2.5V10.5L12.5 4Z" fill="#98A2B3"/>
<path fill-rule="evenodd" clip-rule="evenodd" d="M12.0913 3.37117C12.3398 3.20961 12.6602 3.20961 12.9087 3.37117L22.9087 9.87117C23.1216 10.0095 23.25 10.2461 23.25 10.5V22C23.25 22.4142 22.9142 22.75 22.5 22.75H2.5C2.08579 22.75 1.75 22.4142 1.75 22V10.5C1.75 10.2461 1.87841 10.0095 2.09126 9.87117L12.0913 3.37117ZM3.25 10.907V21.25H21.75V10.907L12.5 4.89451L3.25 10.907Z" fill="#98A2B3"/>
<path fill-rule="evenodd" clip-rule="evenodd" d="M10.8636 10.844C11.102 10.9762 11.25 11.2274 11.25 11.5V22C11.25 22.4142 10.9142 22.75 10.5 22.75C10.0858 22.75 9.75 22.4142 9.75 22V12.8532L7.25 14.4157V22C7.25 22.4142 6.91421 22.75 6.5 22.75C6.08579 22.75 5.75 22.4142 5.75 22V14C5.75 13.7414 5.88321 13.5011 6.1025 13.364L10.1025 10.864C10.3337 10.7195 10.6251 10.7118 10.8636 10.844Z" fill="#FFFBFF"/>
<path fill-rule="evenodd" clip-rule="evenodd" d="M14.1364 10.844C14.3749 10.7118 14.6663 10.7195 14.8975 10.864L18.8975 13.364C19.1168 13.5011 19.25 13.7414 19.25 14V22C19.25 22.4142 18.9142 22.75 18.5 22.75C18.0858 22.75 17.75 22.4142 17.75 22V14.4157L15.25 12.8532V22C15.25 22.4142 14.9142 22.75 14.5 22.75C14.0858 22.75 13.75 22.4142 13.75 22V11.5C13.75 11.2274 13.898 10.9762 14.1364 10.844Z" fill="#FFFBFF"/>
<path fill-rule="evenodd" clip-rule="evenodd" d="M3.75 22C3.75 21.5858 4.08579 21.25 4.5 21.25H21C21.4142 21.25 21.75 21.5858 21.75 22C21.75 22.4142 21.4142 22.75 21 22.75H4.5C4.08579 22.75 3.75 22.4142 3.75 22Z" fill="#98A2B3"/>
</svg>
