<svg width="144" height="120" viewBox="0 0 144 120" fill="none" xmlns="http://www.w3.org/2000/svg">
<rect y="44" width="144" height="76" rx="16" fill="#344054"/>
<mask id="mask0_1844_18031" style="mask-type:alpha" maskUnits="userSpaceOnUse" x="0" y="0" width="144" height="120">
<rect width="144" height="120" rx="16" fill="#F1F5F9"/>
</mask>
<g mask="url(#mask0_1844_18031)">
<path d="M41.8281 32.4785C37.0596 30.1388 32.1305 28.1418 27.0781 26.5028C19.7977 24.2619 11.2076 26.3135 11.0184 28.7387C10.8292 31.1638 12.1239 30.0533 13.822 32.6826C15.5201 35.312 14.7532 41.457 17.1833 47.0592C19.6134 52.6614 26.8889 55.46 26.8889 55.46L41.8281 32.4785Z" fill="#92E3A9" stroke="#263238" stroke-width="0.497975" stroke-linecap="round" stroke-linejoin="round"/>
<path opacity="0.3" d="M36.9728 37.8972C36.9728 37.8972 25.7684 30.801 19.2349 28.3709C12.7015 25.9408 12.328 29.4914 12.328 29.4914C13.4029 29.8859 14.3253 30.6105 14.9631 31.5614C15.6009 32.5123 15.9213 33.6407 15.8786 34.7848C15.8786 38.9778 17.975 47.6625 23.0693 49.4552C28.1636 51.2479 36.9728 37.8972 36.9728 37.8972Z" fill="black"/>
<path d="M116.921 45.8251C119.849 44.7127 121.255 41.262 120.06 38.1176C118.866 34.9733 115.524 33.3261 112.595 34.4385C109.667 35.5509 108.261 39.0016 109.456 42.1459C110.65 45.2903 113.992 46.9375 116.921 45.8251Z" fill="#92E3A9" stroke="#263238" stroke-width="0.497975" stroke-linecap="round" stroke-linejoin="round"/>
<path d="M36.6393 105.298L42.9237 124.151C43.0942 124.662 43.4211 125.106 43.8582 125.421C44.2953 125.736 44.8203 125.905 45.3588 125.904H55.154C55.6551 125.905 56.1454 125.759 56.5641 125.483C56.9828 125.208 57.3115 124.816 57.5094 124.355L61.8916 114.187" fill="#92E3A9"/>
<mask id="mask1_1844_18031" style="mask-type:luminance" maskUnits="userSpaceOnUse" x="36" y="105" width="26" height="21">
<path d="M36.6393 105.298L42.9237 124.151C43.0942 124.662 43.4211 125.106 43.8582 125.421C44.2953 125.736 44.8203 125.905 45.3588 125.904H55.154C55.6551 125.905 56.1454 125.759 56.5641 125.483C56.9828 125.208 57.3115 124.816 57.5094 124.355L61.8916 114.187" fill="white"/>
</mask>
<g mask="url(#mask1_1844_18031)">
<path opacity="0.3" d="M39.7913 105.298L44.9901 124.151C45.0885 124.625 45.3396 125.052 45.7049 125.369C46.0702 125.686 46.5294 125.874 47.0119 125.904H55.1339C55.58 125.881 56.0078 125.72 56.3577 125.442C56.7076 125.164 56.9622 124.785 57.0859 124.355L60.7212 114.187" fill="black"/>
</g>
<path d="M36.6393 105.298L42.9237 124.151C43.0942 124.662 43.4211 125.106 43.8582 125.421C44.2953 125.736 44.8203 125.905 45.3588 125.904H55.154C55.6551 125.905 56.1454 125.759 56.5641 125.483C56.9828 125.208 57.3115 124.816 57.5094 124.355L61.8916 114.187" stroke="#263238" stroke-width="0.497975" stroke-linecap="round" stroke-linejoin="round"/>
<path d="M83.9071 105.298L77.6276 124.151C77.4572 124.662 77.1302 125.106 76.6931 125.421C76.2561 125.736 75.731 125.905 75.1925 125.904H65.4073C64.9062 125.905 64.4159 125.759 63.9972 125.483C63.5785 125.208 63.2498 124.816 63.0519 124.355L58.6697 114.187" fill="#263238"/>
<path d="M83.9071 105.298L77.6276 124.151C77.4572 124.662 77.1302 125.106 76.6931 125.421C76.2561 125.736 75.731 125.905 75.1925 125.904H65.4073C64.9062 125.905 64.4159 125.759 63.9972 125.483C63.5785 125.208 63.2498 124.816 63.0519 124.355L58.6697 114.187" stroke="#263238" stroke-width="0.497975" stroke-linecap="round" stroke-linejoin="round"/>
<path d="M104.717 105.298L98.433 124.151C98.2625 124.662 97.9356 125.106 97.4985 125.421C97.0614 125.736 96.5364 125.905 95.9979 125.904H86.2027C85.7016 125.905 85.2113 125.759 84.7926 125.483C84.3739 125.208 84.0452 124.816 83.8473 124.355L79.4651 114.187" fill="#92E3A9"/>
<mask id="mask2_1844_18031" style="mask-type:luminance" maskUnits="userSpaceOnUse" x="79" y="105" width="26" height="21">
<path d="M104.717 105.298L98.433 124.151C98.2625 124.662 97.9356 125.106 97.4985 125.421C97.0614 125.736 96.5364 125.905 95.9979 125.904H86.2027C85.7016 125.905 85.2113 125.759 84.7926 125.483C84.3739 125.208 84.0452 124.816 83.8473 124.355L79.4651 114.187" fill="white"/>
</mask>
<g mask="url(#mask2_1844_18031)">
<path opacity="0.3" d="M100.266 105.298L95.968 124.151C95.729 125.197 95.0617 125.904 94.3048 125.904H87.607C86.9098 125.904 86.2774 125.297 85.9985 124.355L81.8354 114.396" fill="black"/>
</g>
<path d="M104.717 105.298L98.433 124.151C98.2625 124.662 97.9356 125.106 97.4985 125.421C97.0614 125.736 96.5364 125.905 95.9979 125.904H86.2027C85.7016 125.905 85.2113 125.759 84.7926 125.483C84.3739 125.208 84.0452 124.816 83.8473 124.355L79.4651 114.187" stroke="#263238" stroke-width="0.497975" stroke-linecap="round" stroke-linejoin="round"/>
<path d="M71.1341 117.703C100.883 117.703 125 95.8313 125 68.8514C125 41.8715 100.883 20 71.1341 20C41.3847 20 17.2681 41.8715 17.2681 68.8514C17.2681 95.8313 41.3847 117.703 71.1341 117.703Z" fill="#92E3A9"/>
<mask id="mask3_1844_18031" style="mask-type:luminance" maskUnits="userSpaceOnUse" x="17" y="20" width="109" height="98">
<path d="M71.1341 117.703C100.883 117.703 125 95.8313 125 68.8514C125 41.8715 100.883 20 71.1341 20C41.3847 20 17.2681 41.8715 17.2681 68.8514C17.2681 95.8313 41.3847 117.703 71.1341 117.703Z" fill="white"/>
</mask>
<g mask="url(#mask3_1844_18031)">
<path opacity="0.3" d="M108.233 35.4722C111.392 41.7366 113.038 48.6543 113.039 55.6701C113.039 82.6504 88.9218 104.521 59.1728 104.521C48.1021 104.577 37.251 101.434 27.9248 95.4682C37.3166 108.072 53.217 116.383 71.2487 116.383C100.131 116.383 123.536 95.1645 123.536 68.9859C123.506 55.8842 117.66 44.0473 108.233 35.4722Z" fill="black"/>
</g>
<path d="M120.468 73.2334C119.293 83.0734 114.757 92.0021 107.924 99.0534" stroke="#92E3A9" stroke-width="0.995951" stroke-linecap="round" stroke-linejoin="round"/>
<path d="M119.577 58.0801C120.372 61.3758 120.773 64.754 120.772 68.1442" stroke="#92E3A9" stroke-width="0.995951" stroke-linecap="round" stroke-linejoin="round"/>
<path d="M57.7784 23.0474C62.2169 22.0098 66.7603 21.4884 71.3184 21.4937C74.2366 21.4931 77.1509 21.7062 80.038 22.1311" stroke="#669E76" stroke-width="1.9919" stroke-linecap="round" stroke-linejoin="round"/>
<path d="M81.7008 57.149C81.7008 57.149 86.9295 53.5984 87.1187 47.065C87.308 40.5315 78.7129 31.0102 71.806 27.0862C64.8991 23.1621 59.8546 23.9141 59.6703 26.7127C59.4861 29.5113 57.056 32.6884 56.1248 38.1014C55.1935 43.5144 54.8151 51.5468 62.1005 54.1611" fill="#92E3A9"/>
<path d="M81.7008 57.149C81.7008 57.149 86.9295 53.5984 87.1187 47.065C87.308 40.5315 78.7129 31.0102 71.806 27.0862C64.8991 23.1621 59.8546 23.9141 59.6703 26.7127C59.4861 29.5113 57.056 32.6884 56.1248 38.1014C55.1935 43.5144 54.8151 51.5468 62.1005 54.1611" stroke="#263238" stroke-width="0.497975" stroke-linecap="round" stroke-linejoin="round"/>
<path opacity="0.3" d="M70.4519 55.0523L71.5226 55.2116C76.1139 55.8739 77.7273 52.8761 77.5929 48.3744C77.4086 42.0253 69.0078 28.5799 65.4572 26.7125C61.9066 24.8451 60.7912 27.4595 60.7912 27.4595C60.7912 27.4595 61.2892 27.7931 59.5413 33.5945C58.7345 36.2736 55.7317 45.6157 58.7047 49.7588C61.334 53.4189 66.2191 54.4199 70.4519 55.0523Z" fill="black"/>
<path opacity="0.3" d="M85.3264 48.6178H85.2567C85.1915 48.6093 85.1287 48.5879 85.0718 48.5549C85.0149 48.5219 84.9651 48.478 84.9253 48.4257C84.8855 48.3734 84.8565 48.3137 84.8398 48.2501C84.8232 48.1865 84.8193 48.1202 84.8284 48.0551C84.8824 47.6722 84.914 47.2864 84.923 46.8998C85.0226 43.414 82.1792 38.4093 77.5032 33.7931C77.4564 33.747 77.4192 33.6921 77.3937 33.6316C77.3681 33.5712 77.3547 33.5062 77.3543 33.4406C77.3538 33.3749 77.3663 33.3098 77.391 33.249C77.4157 33.1881 77.4521 33.1327 77.4982 33.086C77.5443 33.0392 77.5992 33.002 77.6597 32.9764C77.7202 32.9509 77.7851 32.9375 77.8508 32.937C77.9164 32.9366 77.9815 32.949 78.0424 32.9737C78.1032 32.9984 78.1586 33.0349 78.2053 33.081C83.1453 37.9611 86.0285 43.1351 85.919 46.9247C85.9083 47.3478 85.875 47.77 85.8194 48.1896C85.8026 48.3084 85.7435 48.4171 85.6529 48.4958C85.5623 48.5745 85.4464 48.6178 85.3264 48.6178Z" fill="black"/>
<path opacity="0.3" d="M82.6473 54.6234C82.553 54.6237 82.4606 54.5973 82.3808 54.5472C82.301 54.4971 82.237 54.4254 82.1964 54.3404C82.1557 54.2554 82.14 54.1606 82.151 54.067C82.1621 53.9734 82.1995 53.8849 82.2588 53.8117C83.0795 52.8062 83.7351 51.6767 84.2009 50.4653C84.2478 50.3418 84.3418 50.242 84.4623 50.1878C84.5828 50.1337 84.7198 50.1296 84.8433 50.1765C84.9668 50.2234 85.0666 50.3174 85.1208 50.4378C85.1749 50.5583 85.179 50.6954 85.1322 50.8189C84.6291 52.1299 83.9196 53.3521 83.0307 54.4391C82.9844 54.4963 82.9259 54.5424 82.8596 54.5743C82.7933 54.6061 82.7208 54.6229 82.6473 54.6234Z" fill="black"/>
<path opacity="0.3" d="M46.3833 78.3029C47.8561 72.4004 42.7227 66.0366 34.9175 64.0891C27.1124 62.1416 19.5911 65.3479 18.1183 71.2504C16.6456 77.153 21.779 83.5167 29.5842 85.4642C37.3893 87.4117 44.9106 84.2055 46.3833 78.3029Z" fill="black"/>
<path d="M45.6825 77.2312C47.1553 71.3286 42.0219 64.9648 34.2167 63.0174C26.4116 61.0699 18.8903 64.2761 17.4175 70.1787C15.9448 76.0812 21.0782 82.445 28.8834 84.3925C36.6885 86.34 44.2098 83.1337 45.6825 77.2312Z" fill="#92E3A9" stroke="#263238" stroke-width="0.497975" stroke-linecap="round" stroke-linejoin="round"/>
<path d="M27.1529 71.9228C27.2425 73.2573 26.7296 74.3828 26.0125 74.4126C25.2954 74.4425 24.6331 73.4167 24.5186 72.0821C24.4041 70.7475 24.9419 69.6171 25.6639 69.5922C26.386 69.5673 27.0632 70.5832 27.1529 71.9228Z" stroke="#263238" stroke-width="0.497975" stroke-linecap="round" stroke-linejoin="round"/>
<path d="M37.0226 74.3982C37.1123 75.7377 36.5994 76.8582 35.8823 76.888C35.1652 76.9179 34.5029 75.8921 34.3883 74.5525C34.2738 73.213 34.8116 72.0925 35.5337 72.0626C36.2557 72.0328 36.9181 73.0586 37.0226 74.3982Z" stroke="#263238" stroke-width="0.497975" stroke-linecap="round" stroke-linejoin="round"/>
<path d="M53.3114 77.8594C53.2063 78.818 52.9821 79.7598 52.6441 80.663C49.7857 88.3866 39.4378 91.728 29.2144 88.4015" stroke="#263238" stroke-width="1.49393" stroke-linecap="round" stroke-linejoin="round"/>
<path d="M51.6432 77.1274H54.8153" stroke="#263238" stroke-width="1.49393" stroke-linecap="round" stroke-linejoin="round"/>
<path d="M31.4353 56.4512C31.0868 57.9003 30.1954 58.941 29.4434 58.7518C28.6915 58.5626 28.3628 57.2579 28.7164 55.7938C29.07 54.3298 29.9564 53.3039 30.7083 53.4882C31.4602 53.6724 31.7889 54.9971 31.4353 56.4512Z" fill="#263238" stroke="#263238" stroke-width="0.497975" stroke-linecap="round" stroke-linejoin="round"/>
<path d="M40.6192 58.4533C40.9698 56.9988 40.6449 55.6729 39.8936 55.4918C39.1422 55.3108 38.249 56.3431 37.8985 57.7976C37.548 59.2521 37.8728 60.5779 38.6242 60.759C39.3755 60.9401 40.2687 59.9078 40.6192 58.4533Z" fill="#263238" stroke="#263238" stroke-width="0.497975" stroke-linecap="round" stroke-linejoin="round"/>
<path d="M54.3324 111.363L59.8101 124.361C60.0067 124.826 60.3359 125.222 60.7566 125.501C61.1773 125.78 61.6708 125.929 62.1755 125.929H72.135C72.6351 125.929 73.1242 125.782 73.5425 125.508C73.9608 125.234 74.2902 124.844 74.4904 124.386L80.4662 110.577H80.2072" fill="#92E3A9"/>
<mask id="mask4_1844_18031" style="mask-type:luminance" maskUnits="userSpaceOnUse" x="54" y="110" width="27" height="16">
<path d="M54.3324 111.363L59.8101 124.361C60.0067 124.826 60.3359 125.222 60.7566 125.501C61.1773 125.78 61.6708 125.929 62.1755 125.929H72.135C72.6351 125.929 73.1242 125.782 73.5425 125.508C73.9608 125.234 74.2902 124.844 74.4904 124.386L80.4662 110.577H80.2072" fill="white"/>
</mask>
<g mask="url(#mask4_1844_18031)">
<path opacity="0.3" d="M65.9052 109.705C62.7481 109.705 59.073 110.118 56.1001 109.431L61.2193 124.336C61.3412 124.768 61.5954 125.152 61.9463 125.434C62.2972 125.715 62.7273 125.879 63.1763 125.904H71.383C71.8267 125.88 72.2518 125.718 72.5997 125.441C72.9475 125.165 73.201 124.787 73.3251 124.36L78.2799 109.157L76.288 109.431C69.9687 110.118 70.133 109.705 65.9052 109.705Z" fill="black"/>
</g>
<path d="M54.3324 111.363L59.8101 124.361C60.0067 124.826 60.3359 125.222 60.7566 125.501C61.1773 125.78 61.6708 125.929 62.1755 125.929H72.135C72.6351 125.929 73.1242 125.782 73.5425 125.508C73.9608 125.234 74.2902 124.844 74.4904 124.386L80.4662 110.577H80.2072" stroke="#263238" stroke-width="0.497975" stroke-linecap="round" stroke-linejoin="round"/>
</g>
</svg>
