<svg width="25" height="24" viewBox="0 0 25 24" fill="none" xmlns="http://www.w3.org/2000/svg">
<path d="M6 9.0836C6 9.03745 6.03745 9 6.0836 9H17.9164C17.9626 9 18 9.03745 18 9.0836V15C18 18.3137 15.3137 21 12 21C8.6863 21 6 18.3137 6 15V9.0836Z" fill="#98A2B3"/>
<path fill-rule="evenodd" clip-rule="evenodd" d="M6.75 9.75V15C6.75 17.8995 9.10051 20.25 12 20.25C14.8995 20.25 17.25 17.8995 17.25 15V9.75H6.75ZM5.25 9.0836C5.25 8.62324 5.62324 8.25 6.0836 8.25H17.9164C18.3768 8.25 18.75 8.62325 18.75 9.0836V15C18.75 18.7279 15.7279 21.75 12 21.75C8.27209 21.75 5.25 18.7279 5.25 15V9.0836Z" fill="#98A2B3"/>
<path fill-rule="evenodd" clip-rule="evenodd" d="M17.25 9C17.25 8.58579 17.5858 8.25 18 8.25C20.0711 8.25 21.75 9.92894 21.75 12C21.75 14.0711 20.0711 15.75 18 15.75C17.5858 15.75 17.25 15.4142 17.25 15C17.25 14.5858 17.5858 14.25 18 14.25C19.2426 14.25 20.25 13.2426 20.25 12C20.25 10.7574 19.2426 9.75 18 9.75C17.5858 9.75 17.25 9.41421 17.25 9Z" fill="#98A2B3"/>
<path fill-rule="evenodd" clip-rule="evenodd" d="M6 3.25C6.41421 3.25 6.75 3.58579 6.75 4V5.5C6.75 5.91421 6.41421 6.25 6 6.25C5.58579 6.25 5.25 5.91421 5.25 5.5V4C5.25 3.58579 5.58579 3.25 6 3.25Z" fill="#98A2B3"/>
<path fill-rule="evenodd" clip-rule="evenodd" d="M18 3.25C18.4142 3.25 18.75 3.58579 18.75 4V5.5C18.75 5.91421 18.4142 6.25 18 6.25C17.5858 6.25 17.25 5.91421 17.25 5.5V4C17.25 3.58579 17.5858 3.25 18 3.25Z" fill="#98A2B3"/>
<path fill-rule="evenodd" clip-rule="evenodd" d="M12 1.75C12.4142 1.75 12.75 2.08579 12.75 2.5V5.5C12.75 5.91421 12.4142 6.25 12 6.25C11.5858 6.25 11.25 5.91421 11.25 5.5V2.5C11.25 2.08579 11.5858 1.75 12 1.75Z" fill="#98A2B3"/>
</svg>
