<svg width="24" height="24" viewBox="0 0 24 24" fill="none" xmlns="http://www.w3.org/2000/svg">
<path d="M3 18L4 6H20L21 18H13.4211L12 12.5L10.5789 18H3Z" fill="#98A2B3"/>
<path fill-rule="evenodd" clip-rule="evenodd" d="M3.2526 5.93772C3.28499 5.549 3.60994 5.25 4.00001 5.25H20C20.3901 5.25 20.715 5.549 20.7474 5.93772L21.7474 17.9377C21.7648 18.1467 21.6939 18.3535 21.5519 18.5078C21.4099 18.6622 21.2097 18.75 21 18.75H13.4211C13.0791 18.75 12.7804 18.5187 12.6949 18.1876L12 15.4981L11.3051 18.1876C11.2196 18.5187 10.9209 18.75 10.579 18.75H3C2.79026 18.75 2.59011 18.6622 2.44809 18.5078C2.30607 18.3535 2.23518 18.1467 2.25259 17.9377L3.2526 5.93772ZM4.69011 6.75L3.8151 17.25H9.9981L11.2738 12.3124C11.3594 11.9813 11.658 11.75 12 11.75C12.342 11.75 12.6406 11.9813 12.7262 12.3124L14.0019 17.25H20.1849L19.3099 6.75H4.69011Z" fill="#98A2B3"/>
<path fill-rule="evenodd" clip-rule="evenodd" d="M11.7045 5.31083C12.0852 5.14767 12.5261 5.32403 12.6893 5.70475L14.1893 9.20475C14.3525 9.58548 14.1761 10.0264 13.7954 10.1896C13.4147 10.3527 12.9738 10.1764 12.8106 9.79563L11.3106 6.29563C11.1474 5.91491 11.3238 5.474 11.7045 5.31083Z" fill="#FFFBFF"/>
<path fill-rule="evenodd" clip-rule="evenodd" d="M12.3528 5.33838C12.7183 5.53331 12.8566 5.98761 12.6617 6.35309L10.6617 10.1031C10.4667 10.4686 10.0124 10.6068 9.64696 10.4119C9.28148 10.217 9.14322 9.76269 9.33814 9.39721L11.3381 5.64721C11.5331 5.28172 11.9874 5.14346 12.3528 5.33838Z" fill="#FFFBFF"/>
<path fill-rule="evenodd" clip-rule="evenodd" d="M8.25 6C8.25 5.58579 8.58579 5.25 9 5.25H15C15.4142 5.25 15.75 5.58579 15.75 6C15.75 6.41421 15.4142 6.75 15 6.75H9C8.58579 6.75 8.25 6.41421 8.25 6Z" fill="#98A2B3"/>
</svg>
