<svg width="24" height="24" viewBox="0 0 24 24" fill="none" xmlns="http://www.w3.org/2000/svg">
<path d="M4.5 4.5L9 2H15L19.5 4.5L21.5 12L17.5 15V22H6.5V15L2.5 12L4.5 4.5Z" fill="#98A2B3"/>
<path fill-rule="evenodd" clip-rule="evenodd" d="M8.63581 1.34438C8.74722 1.28248 8.87258 1.25 9.00004 1.25H15C15.1275 1.25 15.2529 1.28248 15.3643 1.34438L19.8643 3.84438C20.0422 3.94322 20.1723 4.11011 20.2247 4.30675L22.2247 11.8068C22.3036 12.1024 22.1949 12.4164 21.95 12.6L18.25 15.375V22C18.25 22.4142 17.9143 22.75 17.5 22.75H6.50004C6.08582 22.75 5.75004 22.4142 5.75004 22V15.375L2.05004 12.6C1.80522 12.4164 1.69651 12.1024 1.77536 11.8068L3.77536 4.30675C3.8278 4.11011 3.9579 3.94322 4.13581 3.84438L8.63581 1.34438ZM9.19438 2.75L5.14266 5.00096L3.35521 11.7039L6.95004 14.4C7.13889 14.5416 7.25004 14.7639 7.25004 15V21.25H16.75V15C16.75 14.7639 16.8612 14.5416 17.05 14.4L20.6449 11.7039L18.8574 5.00096L14.8057 2.75H9.19438Z" fill="#98A2B3"/>
<path fill-rule="evenodd" clip-rule="evenodd" d="M6.5 11.25C6.91421 11.25 7.25 11.5858 7.25 12V15.5C7.25 15.9142 6.91421 16.25 6.5 16.25C6.08579 16.25 5.75 15.9142 5.75 15.5V12C5.75 11.5858 6.08579 11.25 6.5 11.25Z" fill="#98A2B3"/>
<path fill-rule="evenodd" clip-rule="evenodd" d="M17.5 11.25C17.9142 11.25 18.25 11.5858 18.25 12V15.5C18.25 15.9142 17.9142 16.25 17.5 16.25C17.0858 16.25 16.75 15.9142 16.75 15.5V12C16.75 11.5858 17.0858 11.25 17.5 11.25Z" fill="#98A2B3"/>
</svg>
