<svg width="24" height="24" viewBox="0 0 24 24" fill="none" xmlns="http://www.w3.org/2000/svg">
<path d="M16 6H8C6.89543 6 6 6.89543 6 8V18C6 19.1046 6.89543 20 8 20H16C17.1046 20 18 19.1046 18 18V8C18 6.89543 17.1046 6 16 6Z" fill="#98A2B3"/>
<path fill-rule="evenodd" clip-rule="evenodd" d="M8 6.75C7.30964 6.75 6.75 7.30964 6.75 8V18C6.75 18.6904 7.30964 19.25 8 19.25H16C16.6904 19.25 17.25 18.6904 17.25 18V8C17.25 7.30964 16.6904 6.75 16 6.75H8ZM5.25 8C5.25 6.48122 6.48122 5.25 8 5.25H16C17.5188 5.25 18.75 6.48122 18.75 8V18C18.75 19.5188 17.5188 20.75 16 20.75H8C6.48122 20.75 5.25 19.5188 5.25 18V8Z" fill="#98A2B3"/>
<path fill-rule="evenodd" clip-rule="evenodd" d="M10 2.25C10.4142 2.25 10.75 2.58579 10.75 3V6C10.75 6.41421 10.4142 6.75 10 6.75C9.58579 6.75 9.25 6.41421 9.25 6V3C9.25 2.58579 9.58579 2.25 10 2.25Z" fill="#98A2B3"/>
<path fill-rule="evenodd" clip-rule="evenodd" d="M14 2.25C14.4142 2.25 14.75 2.58579 14.75 3V6C14.75 6.41421 14.4142 6.75 14 6.75C13.5858 6.75 13.25 6.41421 13.25 6V3C13.25 2.58579 13.5858 2.25 14 2.25Z" fill="#98A2B3"/>
<path fill-rule="evenodd" clip-rule="evenodd" d="M7.25 2C7.25 1.58579 7.58579 1.25 8 1.25H16C16.4142 1.25 16.75 1.58579 16.75 2C16.75 2.41421 16.4142 2.75 16 2.75H8C7.58579 2.75 7.25 2.41421 7.25 2Z" fill="#98A2B3"/>
<path fill-rule="evenodd" clip-rule="evenodd" d="M9 19.25C9.41421 19.25 9.75 19.5858 9.75 20V22C9.75 22.4142 9.41421 22.75 9 22.75C8.58579 22.75 8.25 22.4142 8.25 22V20C8.25 19.5858 8.58579 19.25 9 19.25Z" fill="#98A2B3"/>
<path fill-rule="evenodd" clip-rule="evenodd" d="M15 19.25C15.4142 19.25 15.75 19.5858 15.75 20V22C15.75 22.4142 15.4142 22.75 15 22.75C14.5858 22.75 14.25 22.4142 14.25 22V20C14.25 19.5858 14.5858 19.25 15 19.25Z" fill="#98A2B3"/>
<path fill-rule="evenodd" clip-rule="evenodd" d="M9.25 12.5C9.25 12.0858 9.58579 11.75 10 11.75H14C14.4142 11.75 14.75 12.0858 14.75 12.5C14.75 12.9142 14.4142 13.25 14 13.25H10C9.58579 13.25 9.25 12.9142 9.25 12.5Z" fill="#FFFBFF"/>
</svg>
