<svg width="25" height="24" viewBox="0 0 25 24" fill="none" xmlns="http://www.w3.org/2000/svg">
<path d="M2.5 16.5C2.5 15.9477 2.94771 15.5 3.5 15.5H6.5V12L12.5 8L18.5 12V15.5H21.5C22.0523 15.5 22.5 15.9477 22.5 16.5V21C22.5 21.5523 22.0523 22 21.5 22H2.5V16.5Z" fill="#98A2B3"/>
<path fill-rule="evenodd" clip-rule="evenodd" d="M12.084 7.37596C12.3359 7.20801 12.6641 7.20801 12.916 7.37596L18.916 11.376C19.1247 11.5151 19.25 11.7492 19.25 12V14.75H21.5C22.4665 14.75 23.25 15.5335 23.25 16.5V21C23.25 21.9665 22.4665 22.75 21.5 22.75H2.5C2.08579 22.75 1.75 22.4142 1.75 22V16.5C1.75 15.5335 2.53351 14.75 3.5 14.75H5.75V12C5.75 11.7492 5.87533 11.5151 6.08397 11.376L12.084 7.37596ZM7.25 12.4014V15.5C7.25 15.9142 6.91421 16.25 6.5 16.25H3.5C3.36192 16.25 3.25 16.3619 3.25 16.5V21.25H21.5C21.6381 21.25 21.75 21.1381 21.75 21V16.5C21.75 16.3619 21.6381 16.25 21.5 16.25H18.5C18.0858 16.25 17.75 15.9142 17.75 15.5V12.4014L12.5 8.90139L7.25 12.4014Z" fill="#98A2B3"/>
<path fill-rule="evenodd" clip-rule="evenodd" d="M12.5 2.25C12.9142 2.25 13.25 2.58579 13.25 3V8C13.25 8.41421 12.9142 8.75 12.5 8.75C12.0858 8.75 11.75 8.41421 11.75 8V3C11.75 2.58579 12.0858 2.25 12.5 2.25Z" fill="#98A2B3"/>
<path fill-rule="evenodd" clip-rule="evenodd" d="M12.8777 1.74096C13.6498 1.43214 14.6622 1.53989 15.916 2.37578C16.9122 3.03989 17.3998 2.93214 17.5652 2.86596C17.6697 2.82416 17.7429 2.7616 17.7902 2.70903C17.8136 2.68299 17.8287 2.66161 17.8357 2.65091C17.8368 2.64922 17.8376 2.64786 17.8382 2.64685C17.998 2.34719 18.3402 2.19148 18.6723 2.26988C19.0108 2.3498 19.25 2.65199 19.25 2.99982V5.99982C19.25 6.11625 19.2229 6.23109 19.1708 6.33523L18.5 5.99982C19.1708 6.33523 19.1706 6.33576 19.1703 6.3363L19.1697 6.3374L19.1686 6.33972L19.1659 6.34482L19.1597 6.35674C19.1551 6.36544 19.1495 6.37564 19.1429 6.38719C19.1298 6.41026 19.1126 6.4389 19.0911 6.47178C19.0483 6.53725 18.9872 6.62133 18.9051 6.71248C18.7415 6.89429 18.4865 7.11298 18.1223 7.25868C17.3502 7.5675 16.3378 7.45975 15.084 6.62386C14.0878 5.95975 13.6002 6.0675 13.4348 6.13368C13.3303 6.17548 13.2571 6.23804 13.2098 6.29061C13.1864 6.31665 13.1713 6.33803 13.1643 6.34873C13.1632 6.35041 13.1624 6.35177 13.1618 6.35278C13.002 6.65245 12.6598 6.80816 12.3277 6.72976C11.9892 6.64984 11.75 6.34765 11.75 5.99982V2.99982C11.75 2.88339 11.7771 2.76855 11.8292 2.66441L12.5 2.99982C11.8292 2.66441 11.8294 2.66388 11.8297 2.66334L11.8303 2.66224L11.8314 2.65991L11.8341 2.65482L11.8403 2.6429C11.8449 2.6342 11.8505 2.624 11.8571 2.61245C11.8702 2.58938 11.8874 2.56074 11.9089 2.52786C11.9517 2.46239 12.0128 2.3783 12.0949 2.28716C12.2585 2.10535 12.5135 1.88666 12.8777 1.74096ZM13.25 3.25V4.62937C13.9661 4.48234 14.8545 4.66812 15.916 5.37578C16.9122 6.03989 17.3998 5.93214 17.5652 5.86596C17.6437 5.83456 17.7045 5.79144 17.75 5.74964V4.37027C17.0339 4.5173 16.1455 4.33152 15.084 3.62386C14.0878 2.95975 13.6002 3.0675 13.4348 3.13368C13.3563 3.16508 13.2955 3.2082 13.25 3.25Z" fill="#98A2B3"/>
<path fill-rule="evenodd" clip-rule="evenodd" d="M9.75 15.5C9.75 15.0858 10.0858 14.75 10.5 14.75H14.5C14.9142 14.75 15.25 15.0858 15.25 15.5V22C15.25 22.4142 14.9142 22.75 14.5 22.75C14.0858 22.75 13.75 22.4142 13.75 22V16.25H11.25V22C11.25 22.4142 10.9142 22.75 10.5 22.75C10.0858 22.75 9.75 22.4142 9.75 22V15.5Z" fill="#FFFBFF"/>
<path fill-rule="evenodd" clip-rule="evenodd" d="M8.75 22C8.75 21.5858 9.08579 21.25 9.5 21.25H15.5C15.9142 21.25 16.25 21.5858 16.25 22C16.25 22.4142 15.9142 22.75 15.5 22.75H9.5C9.08579 22.75 8.75 22.4142 8.75 22Z" fill="#98A2B3"/>
</svg>
