<svg width="144" height="109" viewBox="0 0 144 109" fill="none" xmlns="http://www.w3.org/2000/svg">
<rect y="33" width="144" height="76" rx="16" fill="#344054"/>
<mask id="mask0_1844_18088" style="mask-type:alpha" maskUnits="userSpaceOnUse" x="0" y="0" width="144" height="109">
<rect width="144" height="109" rx="16" fill="#F1F5F9"/>
</mask>
<g mask="url(#mask0_1844_18088)">
<path d="M132.332 106.419C129.178 108.597 125.448 109.79 121.615 109.847C117.782 109.904 114.018 108.822 110.801 106.739C107.583 104.656 105.055 101.664 103.539 98.1435C102.022 94.6229 101.584 90.7314 102.281 86.9618C102.977 83.1922 104.776 79.714 107.451 76.9676C110.125 74.2212 113.554 72.3302 117.304 71.534C121.054 70.7378 124.956 71.0722 128.515 72.4949C132.075 73.9175 135.132 76.3645 137.3 79.5259C140.2 83.7535 141.305 88.9579 140.373 93.9988C139.442 99.0397 136.551 103.506 132.332 106.419Z" fill="#455A64"/>
<path d="M124.836 99.7974L102.076 88.9376C101.733 93.5539 103.054 98.1404 105.801 101.866C108.548 105.592 112.538 108.211 117.05 109.249C121.561 110.287 126.294 109.674 130.393 107.523C134.492 105.372 137.684 101.824 139.393 97.5213C136.258 101.739 132.159 103.283 124.836 99.7974Z" fill="#37474F"/>
<path d="M108.206 94.8175L106.986 79.337C94.3855 93.3906 79.8537 105.584 63.8255 115.553L64.3132 121.748C74.6099 118.527 92.3457 107.194 108.206 94.8175Z" fill="#37474F"/>
<path d="M117.594 108.311L108.4 107.774L90.8531 119.661C86.9894 122.278 82.5142 123.85 77.8629 124.225C73.2116 124.599 68.5426 123.763 64.3101 121.798C76.2655 117.519 93.6557 105.996 108.2 94.9185L117.594 108.311Z" fill="#455A64"/>
<path d="M87.5373 107.202L87.5116 107.642C87.5688 108.041 87.7172 108.421 87.9454 108.752C88.1736 109.084 88.4753 109.358 88.8271 109.554L92.0337 111.083C92.1755 111.118 92.3028 111.196 92.3977 111.307C92.4926 111.418 92.5502 111.555 92.5623 111.701C92.5745 111.846 92.5407 111.992 92.4656 112.117C92.3904 112.242 92.2779 112.34 92.1438 112.398L91.7715 112.665C91.4314 112.873 91.0466 112.997 90.649 113.027C90.2514 113.057 89.8523 112.992 89.4849 112.837L86.1776 111.285C85.8251 111.097 85.523 110.826 85.2968 110.497C85.0707 110.167 84.927 109.788 84.8781 109.391L84.9038 108.951C84.9049 108.552 84.9975 108.158 85.1745 107.8C85.3515 107.443 85.6082 107.13 85.9247 106.887L86.2971 106.62C86.3988 106.503 86.5358 106.423 86.6874 106.391C86.8389 106.359 86.9967 106.377 87.1368 106.443C87.277 106.509 87.3919 106.618 87.4642 106.755C87.5365 106.892 87.5621 107.049 87.5373 107.202Z" fill="#FE5219"/>
<path d="M116.67 63.0314C119.365 64.31 121.301 67.2262 121.935 71.4936C121.994 71.9388 122.052 72.4008 122.092 72.8789C122.132 73.3569 122.162 74.0043 122.163 74.5819C122.165 75.5552 122.109 76.5278 121.993 77.4941C121.793 79.3476 121.431 81.1798 120.909 82.9693C119.477 87.931 117.045 92.5474 113.763 96.5342C112.205 98.4207 110.392 100.082 108.378 101.47C104.324 104.257 100.484 104.848 97.5357 103.555L107.753 108.382C109.739 109.212 111.905 109.519 114.044 109.272C116.182 109.025 118.221 108.232 119.966 106.971C121.864 105.642 123.578 104.068 125.064 102.291C128.449 98.2417 130.956 93.5346 132.429 88.4669C132.943 86.6754 133.306 84.8439 133.513 82.9917C133.629 82.0253 133.686 81.0528 133.683 80.0795C133.717 79.5038 133.666 78.9232 133.613 78.3764C133.467 76.2338 132.789 74.1613 131.64 72.3469C130.491 70.5325 128.908 69.0335 127.033 67.9856L126.752 67.8503L126.355 67.6742L116.67 63.0314Z" fill="#FE5219"/>
<g opacity="0.1">
<path d="M107.753 108.382C109.739 109.212 111.905 109.518 114.044 109.271C116.182 109.024 118.222 108.232 119.966 106.971C121.864 105.642 123.578 104.068 125.064 102.291L113.746 96.5331C112.188 98.4196 110.376 100.081 108.361 101.468C104.308 104.256 100.467 104.847 97.5189 103.554L107.753 108.382Z" fill="black"/>
</g>
<path d="M105.579 65.0175C97.2594 70.7499 91.1439 83.5425 92.0168 93.6171C92.3975 98.736 94.4785 102.086 97.5048 103.502L97.6741 103.512C100.623 104.806 104.429 104.212 108.516 101.427C116.853 95.6957 122.951 82.9021 122.078 72.8275C121.675 67.8091 119.648 64.3949 116.656 62.98C113.664 61.565 109.688 62.1484 105.579 65.0175Z" fill="#FE5219"/>
<g opacity="0.2">
<path d="M105.579 65.0175C97.2594 70.7499 91.1439 83.5425 92.0168 93.6171C92.3975 98.736 94.4785 102.086 97.5048 103.502L97.6741 103.512C100.623 104.806 104.429 104.212 108.516 101.427C116.853 95.6957 122.951 82.9021 122.078 72.8275C121.675 67.8091 119.648 64.3949 116.656 62.98C113.664 61.565 109.688 62.1484 105.579 65.0175Z" fill="black"/>
</g>
<path d="M80.2242 23.5275C80.2242 23.5275 82.5814 41.3509 70.7624 65.9918C68.6539 70.4127 66.2532 74.6882 63.5762 78.7899C53.6015 93.9565 43.6467 100.052 43.6467 100.052C55.9504 97.3726 69.2664 95.3978 82.4838 98.3101C87.638 99.4664 92.7265 100.898 97.7277 102.598C100.472 103.896 104.041 103.289 107.794 100.705C110.388 98.863 112.637 96.5791 114.44 93.9578C115.692 92.2298 116.778 90.3877 117.683 88.4557C120.086 83.6832 121.221 78.3729 120.979 73.0351C120.631 68.5126 118.846 65.3334 116.119 64.0358C111.654 61.1818 107.343 58.0946 103.203 54.7872C92.7383 46.3441 85.8881 34.7653 80.2242 23.5275Z" fill="#FE5219"/>
<g opacity="0.6">
<path d="M80.2242 23.5275C80.2242 23.5275 82.5814 41.3509 70.7624 65.9918C68.6539 70.4127 66.2532 74.6882 63.5762 78.7899C53.6015 93.9565 43.6467 100.052 43.6467 100.052C55.9504 97.3726 69.2664 95.3978 82.4838 98.3101C87.638 99.4664 92.7265 100.898 97.7277 102.598C100.472 103.896 104.041 103.289 107.794 100.705C110.388 98.863 112.637 96.5791 114.44 93.9578C115.692 92.2298 116.778 90.3877 117.683 88.4557C120.086 83.6832 121.221 78.3729 120.979 73.0351C120.631 68.5126 118.846 65.3334 116.119 64.0358C111.654 61.1818 107.343 58.0946 103.203 54.7872C92.7383 46.3441 85.8881 34.7653 80.2242 23.5275Z" fill="white"/>
</g>
<g opacity="0.1">
<path d="M63.5772 78.7725C53.6025 93.9391 43.6477 100.035 43.6477 100.035C55.9514 97.3552 69.2674 95.3804 82.4848 98.2927C87.639 99.4491 92.7275 100.88 97.7287 102.581C100.473 103.879 104.042 103.272 107.795 100.688C110.389 98.8457 112.638 96.5617 114.441 93.9404C102.678 87.3584 82.3543 77.5413 63.5772 78.7725Z" fill="black"/>
</g>
<path d="M44.3747 11.6314C35.6847 17.5969 28.0289 26.7998 22.3038 37.2707C14.9955 50.7072 10.9129 66.2178 11.9277 79.6816C13.8285 103.577 31.4116 112.028 51.218 98.4041C55.9166 95.0862 60.1466 91.1502 63.7937 86.7022C73.4633 74.9424 79.9876 60.9191 82.7546 45.9478C83.1112 43.9129 83.3822 41.89 83.5497 39.8951C83.5981 39.0654 83.6485 38.2019 83.695 37.4062C83.7632 36.2379 83.8314 35.0696 83.7572 34.0119C83.6831 32.9543 83.6925 31.6297 83.5914 30.4515C81.7682 6.39027 64.1642 -1.99386 44.3747 11.6314Z" fill="#FE5219"/>
<g opacity="0.15">
<path d="M44.3747 11.6314C35.6847 17.5969 28.0289 26.7998 22.3038 37.2707C14.9955 50.7072 10.9129 66.2178 11.9277 79.6816C13.8285 103.577 31.4116 112.028 51.218 98.4041C55.9166 95.0862 60.1466 91.1502 63.7937 86.7022C73.4633 74.9424 79.9876 60.9191 82.7546 45.9478C83.1112 43.9129 83.3822 41.89 83.5497 39.8951C83.5981 39.0654 83.6485 38.2019 83.695 37.4062C83.7632 36.2379 83.8314 35.0696 83.7572 34.0119C83.6831 32.9543 83.6925 31.6297 83.5914 30.4515C81.7682 6.39027 64.1642 -1.99386 44.3747 11.6314Z" fill="white"/>
</g>
<g opacity="0.1">
<path d="M22.3029 37.2875C14.9956 50.7071 10.913 66.2177 11.9278 79.6815C13.8286 103.577 31.4117 112.028 51.2181 98.404C55.9167 95.0861 60.1467 91.1501 63.7937 86.7021C60.361 87.3002 53.8995 85.6488 55.1817 82.02C51.9239 85.9601 48.155 89.4481 43.9749 92.3917C38.2758 96.3062 32.8139 98.1959 28.1617 97.8564C26.2276 97.7371 24.3491 97.1624 22.6793 96.1792C21.0096 95.196 19.5958 93.8321 18.5533 92.1986C15.9687 88.025 14.4926 83.2606 14.2647 78.3569C13.3693 66.9218 16.682 53.5408 22.6474 41.5719C22.723 41.4404 21.0835 41.0049 22.3029 37.2875Z" fill="black"/>
</g>
<path d="M44.7338 14.5065C35.99 20.5199 28.211 30.3782 22.774 41.4435C16.8086 53.4124 13.4959 66.7934 14.3913 78.2285C14.6192 83.1322 16.0953 87.8966 18.6799 92.0702C19.7224 93.7037 21.1362 95.0676 22.8059 96.0508C24.4757 97.034 26.3542 97.6087 28.2883 97.728C32.9445 97.9998 38.4024 96.1778 44.1015 92.2633C48.2816 89.3197 52.0505 85.8317 55.3083 81.8916C56.6263 80.2696 57.8934 78.6447 59.0928 77.0158C61.2279 74.0192 63.1645 70.8861 64.8901 67.6364C65.2523 66.961 65.5976 66.2846 65.9429 65.6082C66.5011 64.4855 67.0603 63.3459 67.5698 62.1864C69.3145 58.3142 70.7634 54.3154 71.9039 50.2242C71.9039 50.2242 71.9098 50.1226 71.9128 50.0718C72.6538 47.4223 73.253 44.7351 73.7079 42.0218C74.0069 40.1025 74.2361 38.2131 74.3787 36.3526C74.4252 35.5568 74.4696 34.7949 74.5151 34.016C74.5606 33.2372 74.6229 32.1705 74.5239 31.2473C74.4249 30.3241 74.4534 29.5443 74.3883 28.6231C74.1604 23.7193 72.6842 18.9549 70.0996 14.7813C64.9692 7.21036 55.4599 7.13086 44.7338 14.5065Z" fill="#FE5219"/>
<g opacity="0.4">
<path d="M44.7338 14.5065C35.99 20.5199 28.211 30.3782 22.774 41.4435C16.8086 53.4124 13.4959 66.7934 14.3913 78.2285C14.6192 83.1322 16.0953 87.8966 18.6799 92.0702C19.7224 93.7037 21.1362 95.0676 22.8059 96.0508C24.4757 97.034 26.3542 97.6087 28.2883 97.728C32.9445 97.9998 38.4024 96.1778 44.1015 92.2633C48.2816 89.3197 52.0505 85.8317 55.3083 81.8916C56.6263 80.2696 57.8934 78.6447 59.0928 77.0158C61.2279 74.0192 63.1645 70.8861 64.8901 67.6364C65.2523 66.961 65.5976 66.2846 65.9429 65.6082C66.5011 64.4855 67.0603 63.3459 67.5698 62.1864C69.3145 58.3142 70.7634 54.3154 71.9039 50.2242C71.9039 50.2242 71.9098 50.1226 71.9128 50.0718C72.6538 47.4223 73.253 44.7351 73.7079 42.0218C74.0069 40.1025 74.2361 38.2131 74.3787 36.3526C74.4252 35.5568 74.4696 34.7949 74.5151 34.016C74.5606 33.2372 74.6229 32.1705 74.5239 31.2473C74.4249 30.3241 74.4534 29.5443 74.3883 28.6231C74.1604 23.7193 72.6842 18.9549 70.0996 14.7813C64.9692 7.21036 55.4599 7.13086 44.7338 14.5065Z" fill="black"/>
</g>
<path d="M52.6336 42.1507L41.1716 65.6232C46.5788 68.4533 53.2442 71.8495 57.7817 78.8082C58.2038 78.2722 58.6099 77.7182 59.015 77.1812C61.1502 74.1847 63.0867 71.0516 64.8123 67.8019C65.1576 67.1255 65.5198 66.4501 65.8482 65.7727C66.4234 64.651 66.9826 63.5114 67.492 62.3519C69.2711 58.4284 70.746 54.3739 71.9037 50.2243C71.9037 50.2243 71.9096 50.1227 71.9126 50.072C72.0657 49.4863 72.2368 48.8846 72.3899 48.299C64.0004 49.1173 52.6336 42.1507 52.6336 42.1507Z" fill="#37474F"/>
<path d="M39.9023 64.3763C41.4669 66.6762 44.2984 66.7736 47.4307 64.6289C50.0085 62.6415 52.0823 60.0753 53.4845 57.1379C54.8868 54.2005 55.578 50.9743 55.5024 47.7202L55.5113 47.5678C55.4505 46.1812 55.0316 44.834 54.2956 43.6573C52.7319 41.3404 49.8835 41.2421 46.7671 43.4046L46.6655 43.3987C44.0906 45.394 42.0223 47.9682 40.6284 50.9124C39.2344 53.8566 38.5541 57.0879 38.6426 60.3442L38.6357 60.4628C38.7144 61.8545 39.1507 63.2023 39.9023 64.3763Z" fill="#FE5219"/>
</g>
</svg>
