<svg width="24" height="24" viewBox="0 0 24 24" fill="none" xmlns="http://www.w3.org/2000/svg">
<path d="M7.25 15.5C9.04493 15.5 10.5 14.0449 10.5 12.25C10.5 10.4551 9.04493 9 7.25 9C5.45507 9 4 10.4551 4 12.25C4 14.0449 5.45507 15.5 7.25 15.5Z" fill="#98A2B3"/>
<path fill-rule="evenodd" clip-rule="evenodd" d="M7.25 9.75C5.86929 9.75 4.75 10.8693 4.75 12.25C4.75 13.6307 5.86929 14.75 7.25 14.75C8.63071 14.75 9.75 13.6307 9.75 12.25C9.75 10.8693 8.63071 9.75 7.25 9.75ZM3.25 12.25C3.25 10.0409 5.04086 8.25 7.25 8.25C9.45914 8.25 11.25 10.0409 11.25 12.25C11.25 14.4591 9.45914 16.25 7.25 16.25C5.04086 16.25 3.25 14.4591 3.25 12.25Z" fill="#98A2B3"/>
<path d="M16.75 15.5C14.9551 15.5 13.5 14.0449 13.5 12.25C13.5 10.4551 14.9551 9 16.75 9C18.5449 9 20 10.4551 20 12.25C20 14.0449 18.5449 15.5 16.75 15.5Z" fill="#98A2B3"/>
<path fill-rule="evenodd" clip-rule="evenodd" d="M16.75 9.75C18.1307 9.75 19.25 10.8693 19.25 12.25C19.25 13.6307 18.1307 14.75 16.75 14.75C15.3693 14.75 14.25 13.6307 14.25 12.25C14.25 10.8693 15.3693 9.75 16.75 9.75ZM20.75 12.25C20.75 10.0409 18.9591 8.25 16.75 8.25C14.5409 8.25 12.75 10.0409 12.75 12.25C12.75 14.4591 14.5409 16.25 16.75 16.25C18.9591 16.25 20.75 14.4591 20.75 12.25Z" fill="#98A2B3"/>
<path fill-rule="evenodd" clip-rule="evenodd" d="M1.25 12C1.25 11.5858 1.58579 11.25 2 11.25H4C4.41421 11.25 4.75 11.5858 4.75 12C4.75 12.4142 4.41421 12.75 4 12.75H2C1.58579 12.75 1.25 12.4142 1.25 12Z" fill="#98A2B3"/>
<path fill-rule="evenodd" clip-rule="evenodd" d="M19.25 12C19.25 11.5858 19.5858 11.25 20 11.25H22C22.4142 11.25 22.75 11.5858 22.75 12C22.75 12.4142 22.4142 12.75 22 12.75H20C19.5858 12.75 19.25 12.4142 19.25 12Z" fill="#98A2B3"/>
<path fill-rule="evenodd" clip-rule="evenodd" d="M11.2715 9.63179C11.0234 9.90254 10.8265 10.2859 10.7275 10.6819C10.6271 11.0837 10.2199 11.3281 9.81803 11.2276C9.41619 11.1271 9.17186 10.7199 9.27233 10.3181C9.42333 9.71407 9.7265 9.09746 10.1658 8.61821C10.6073 8.1366 11.232 7.75 11.9999 7.75C12.7679 7.75 13.3926 8.1366 13.834 8.61821C14.2734 9.09746 14.5765 9.71407 14.7275 10.3181C14.828 10.7199 14.5837 11.1271 14.1818 11.2276C13.78 11.3281 13.3728 11.0837 13.2723 10.6819C13.1733 10.2859 12.9765 9.90254 12.7283 9.63179C12.4823 9.3634 12.232 9.25 11.9999 9.25C11.7679 9.25 11.5176 9.3634 11.2715 9.63179Z" fill="#98A2B3"/>
</svg>
