<svg width="25" height="24" viewBox="0 0 25 24" fill="none" xmlns="http://www.w3.org/2000/svg">
<path fill-rule="evenodd" clip-rule="evenodd" d="M2.25 2.5C2.25 2.08579 2.58579 1.75 3 1.75H16C16.4142 1.75 16.75 2.08579 16.75 2.5V6.5C16.75 6.91421 16.4142 7.25 16 7.25H3C2.58579 7.25 2.25 6.91421 2.25 6.5V2.5ZM3.75 3.25V5.75H15.25V3.25H3.75Z" fill="#98A2B3"/>
<path d="M5 18V6.5H14V11.5C21 11.5 21 16 21 18H5Z" fill="#98A2B3"/>
<path fill-rule="evenodd" clip-rule="evenodd" d="M4.25 6.5C4.25 6.08579 4.58579 5.75 5 5.75H14C14.4142 5.75 14.75 6.08579 14.75 6.5V10.7674C17.9518 10.9199 19.7787 12.0588 20.7577 13.5973C21.7506 15.1576 21.7502 16.9676 21.75 17.9567C21.75 17.9713 21.75 17.9857 21.75 18C21.75 18.4142 21.4142 18.75 21 18.75H5C4.58579 18.75 4.25 18.4142 4.25 18V6.5ZM5.75 7.25V17.25H20.2392C20.2054 16.3499 20.0657 15.3038 19.4923 14.4027C18.7954 13.3075 17.3293 12.25 14 12.25C13.5858 12.25 13.25 11.9142 13.25 11.5V7.25H5.75Z" fill="#98A2B3"/>
<path fill-rule="evenodd" clip-rule="evenodd" d="M3.25 18C3.25 17.5858 3.58579 17.25 4 17.25H22C22.4142 17.25 22.75 17.5858 22.75 18V21C22.75 21.4142 22.4142 21.75 22 21.75H4C3.58579 21.75 3.25 21.4142 3.25 21V18ZM4.75 18.75V20.25H21.25V18.75H4.75Z" fill="#98A2B3"/>
</svg>
