<svg width="25" height="24" viewBox="0 0 25 24" fill="none" xmlns="http://www.w3.org/2000/svg">
<path d="M9.03033 1.46967C8.73744 1.17678 8.26256 1.17678 7.96967 1.46967C7.67678 1.76256 7.67678 2.23744 7.96967 2.53033L10.6893 5.25H2.5C2.08579 5.25 1.75 5.58579 1.75 6V10C1.75 10.4142 2.08579 10.75 2.5 10.75H3.25V22C3.25 22.4142 3.58579 22.75 4 22.75H21C21.4142 22.75 21.75 22.4142 21.75 22V10.75H22.5C22.9142 10.75 23.25 10.4142 23.25 10V6C23.25 5.58579 22.9142 5.25 22.5 5.25H14.3107L17.0303 2.53033C17.3232 2.23744 17.3232 1.76256 17.0303 1.46967C16.7374 1.17678 16.2626 1.17678 15.9697 1.46967L12.5 4.93934L9.03033 1.46967ZM13.25 21.25H11.75V10.75H13.25V21.25Z" fill="#98A2B3"/>
</svg>
