<svg width="24" height="24" viewBox="0 0 24 24" fill="none" xmlns="http://www.w3.org/2000/svg">
<path fill-rule="evenodd" clip-rule="evenodd" d="M12.4226 10.3804C12.7648 10.6137 12.8531 11.0803 12.6197 11.4226L5.11974 22.4226C4.8864 22.7648 4.4198 22.8531 4.07757 22.6197C3.73534 22.3864 3.64706 21.9198 3.8804 21.5776L11.3804 10.5776C11.6137 10.2353 12.0803 10.1471 12.4226 10.3804Z" fill="#98A2B3"/>
<path fill-rule="evenodd" clip-rule="evenodd" d="M11.5776 10.3804C11.9198 10.1471 12.3864 10.2353 12.6197 10.5776L20.1197 21.5776C20.3531 21.9198 20.2648 22.3864 19.9226 22.6197C19.5803 22.8531 19.1137 22.7648 18.8804 22.4226L11.3804 11.4226C11.1471 11.0803 11.2353 10.6137 11.5776 10.3804Z" fill="#98A2B3"/>
<path fill-rule="evenodd" clip-rule="evenodd" d="M5.81132 8.30004C5.84747 8.21731 5.88524 8.13543 5.9246 8.05442ZM5.9246 8.05442L4.5754 7.39893ZM4.5754 7.39893C4.52726 7.49801 4.48104 7.59821 4.4368 7.69947ZM4.4368 7.69947L4.43678 7.6995ZM5.81131 8.30007C5.45052 9.12586 5.25 10.0384 5.25 10.9998C5.25 11.3056 5.27029 11.6063 5.30952 11.9007L3.82265 12.0988C3.77471 11.7389 3.75 11.372 3.75 10.9998C3.75 9.82784 3.99481 8.71111 4.43678 7.6995" fill="#98A2B3"/>
<path fill-rule="evenodd" clip-rule="evenodd" d="M10.3508 19.0849C8.05533 18.619 6.1083 17.2016 4.93652 15.2647L6.21994 14.4883C7.18026 16.0757 8.77493 17.2344 10.6492 17.6149L10.3508 19.0849Z" fill="#98A2B3"/>
<path fill-rule="evenodd" clip-rule="evenodd" d="M19.1006 15.2027C17.933 17.1713 15.9691 18.6139 13.6492 19.0848L13.3508 17.6148C15.2451 17.2303 16.8536 16.0508 17.8104 14.4375L19.1006 15.2027Z" fill="#98A2B3"/>
<path fill-rule="evenodd" clip-rule="evenodd" d="M19.4247 7.39941C19.9537 8.48841 20.25 9.71075 20.25 11.0002C20.25 11.3725 20.2253 11.7394 20.1774 12.0993L18.6905 11.9012C18.7298 11.6068 18.75 11.3061 18.75 11.0002C18.75 9.94272 18.5074 8.94406 18.0754 8.05486L19.4247 7.39941Z" fill="#98A2B3"/>
<path fill-rule="evenodd" clip-rule="evenodd" d="M16.4998 5.96862C15.6243 5.18499 14.5443 4.62733 13.3508 4.38506L13.6492 2.91504C15.111 3.21177 16.4316 3.89451 17.5002 4.85092L16.4998 5.96862Z" fill="#98A2B3"/>
<path fill-rule="evenodd" clip-rule="evenodd" d="M6.4999 4.85087C7.56847 3.89448 8.88908 3.21176 10.3508 2.91504L10.6492 4.38506C9.45572 4.62733 8.37575 5.18499 7.50023 5.96862L7.50017 5.96867C7.40555 6.05334 7.3133 6.14068 7.22357 6.23055L6.16211 5.17069C6.27166 5.06097 6.38429 4.95433 6.49985 4.85092" fill="#98A2B3"/>
<path d="M5 15C5.82843 15 6.5 14.3284 6.5 13.5C6.5 12.6716 5.82843 12 5 12C4.17157 12 3.5 12.6716 3.5 13.5C3.5 14.3284 4.17157 15 5 15Z" fill="#98A2B3"/>
<path fill-rule="evenodd" clip-rule="evenodd" d="M5 12.75C4.58579 12.75 4.25 13.0858 4.25 13.5C4.25 13.9142 4.58579 14.25 5 14.25C5.41421 14.25 5.75 13.9142 5.75 13.5C5.75 13.0858 5.41421 12.75 5 12.75ZM2.75 13.5C2.75 12.2574 3.75736 11.25 5 11.25C6.24264 11.25 7.25 12.2574 7.25 13.5C7.25 14.7426 6.24264 15.75 5 15.75C3.75736 15.75 2.75 14.7426 2.75 13.5Z" fill="#98A2B3"/>
<path d="M12 20C12.8284 20 13.5 19.3284 13.5 18.5C13.5 17.6716 12.8284 17 12 17C11.1716 17 10.5 17.6716 10.5 18.5C10.5 19.3284 11.1716 20 12 20Z" fill="#98A2B3"/>
<path fill-rule="evenodd" clip-rule="evenodd" d="M12 17.75C11.5858 17.75 11.25 18.0858 11.25 18.5C11.25 18.9142 11.5858 19.25 12 19.25C12.4142 19.25 12.75 18.9142 12.75 18.5C12.75 18.0858 12.4142 17.75 12 17.75ZM9.75 18.5C9.75 17.2574 10.7574 16.25 12 16.25C13.2426 16.25 14.25 17.2574 14.25 18.5C14.25 19.7426 13.2426 20.75 12 20.75C10.7574 20.75 9.75 19.7426 9.75 18.5Z" fill="#98A2B3"/>
<path d="M12 5C12.8284 5 13.5 4.32843 13.5 3.5C13.5 2.67157 12.8284 2 12 2C11.1716 2 10.5 2.67157 10.5 3.5C10.5 4.32843 11.1716 5 12 5Z" fill="#98A2B3"/>
<path fill-rule="evenodd" clip-rule="evenodd" d="M12 2.75C11.5858 2.75 11.25 3.08579 11.25 3.5C11.25 3.91421 11.5858 4.25 12 4.25C12.4142 4.25 12.75 3.91421 12.75 3.5C12.75 3.08579 12.4142 2.75 12 2.75ZM9.75 3.5C9.75 2.25736 10.7574 1.25 12 1.25C13.2426 1.25 14.25 2.25736 14.25 3.5C14.25 4.74264 13.2426 5.75 12 5.75C10.7574 5.75 9.75 4.74264 9.75 3.5Z" fill="#98A2B3"/>
<path d="M6 8C6.82843 8 7.5 7.32843 7.5 6.5C7.5 5.67157 6.82843 5 6 5C5.17157 5 4.5 5.67157 4.5 6.5C4.5 7.32843 5.17157 8 6 8Z" fill="#98A2B3"/>
<path fill-rule="evenodd" clip-rule="evenodd" d="M6 5.75C5.58579 5.75 5.25 6.08579 5.25 6.5C5.25 6.91421 5.58579 7.25 6 7.25C6.41421 7.25 6.75 6.91421 6.75 6.5C6.75 6.08579 6.41421 5.75 6 5.75ZM3.75 6.5C3.75 5.25736 4.75736 4.25 6 4.25C7.24264 4.25 8.25 5.25736 8.25 6.5C8.25 7.74264 7.24264 8.75 6 8.75C4.75736 8.75 3.75 7.74264 3.75 6.5Z" fill="#98A2B3"/>
<path d="M18 8C18.8284 8 19.5 7.32843 19.5 6.5C19.5 5.67157 18.8284 5 18 5C17.1716 5 16.5 5.67157 16.5 6.5C16.5 7.32843 17.1716 8 18 8Z" fill="#98A2B3"/>
<path fill-rule="evenodd" clip-rule="evenodd" d="M18 5.75C17.5858 5.75 17.25 6.08579 17.25 6.5C17.25 6.91421 17.5858 7.25 18 7.25C18.4142 7.25 18.75 6.91421 18.75 6.5C18.75 6.08579 18.4142 5.75 18 5.75ZM15.75 6.5C15.75 5.25736 16.7574 4.25 18 4.25C19.2426 4.25 20.25 5.25736 20.25 6.5C20.25 7.74264 19.2426 8.75 18 8.75C16.7574 8.75 15.75 7.74264 15.75 6.5Z" fill="#98A2B3"/>
<path d="M19 15C19.8284 15 20.5 14.3284 20.5 13.5C20.5 12.6716 19.8284 12 19 12C18.1716 12 17.5 12.6716 17.5 13.5C17.5 14.3284 18.1716 15 19 15Z" fill="#98A2B3"/>
<path fill-rule="evenodd" clip-rule="evenodd" d="M19 12.75C18.5858 12.75 18.25 13.0858 18.25 13.5C18.25 13.9142 18.5858 14.25 19 14.25C19.4142 14.25 19.75 13.9142 19.75 13.5C19.75 13.0858 19.4142 12.75 19 12.75ZM16.75 13.5C16.75 12.2574 17.7574 11.25 19 11.25C20.2426 11.25 21.25 12.2574 21.25 13.5C21.25 14.7426 20.2426 15.75 19 15.75C17.7574 15.75 16.75 14.7426 16.75 13.5Z" fill="#98A2B3"/>
<path d="M12 13C13.1046 13 14 12.1046 14 11C14 9.89543 13.1046 9 12 9C10.8954 9 10 9.89543 10 11C10 12.1046 10.8954 13 12 13Z" fill="#98A2B3"/>
<path fill-rule="evenodd" clip-rule="evenodd" d="M2.25 22C2.25 21.5858 2.58579 21.25 3 21.25H7C7.41421 21.25 7.75 21.5858 7.75 22C7.75 22.4142 7.41421 22.75 7 22.75H3C2.58579 22.75 2.25 22.4142 2.25 22Z" fill="#98A2B3"/>
<path fill-rule="evenodd" clip-rule="evenodd" d="M16.25 22C16.25 21.5858 16.5858 21.25 17 21.25H21C21.4142 21.25 21.75 21.5858 21.75 22C21.75 22.4142 21.4142 22.75 21 22.75H17C16.5858 22.75 16.25 22.4142 16.25 22Z" fill="#98A2B3"/>
</svg>
