<svg width="24" height="24" viewBox="0 0 24 24" fill="none" xmlns="http://www.w3.org/2000/svg">
<path fill-rule="evenodd" clip-rule="evenodd" d="M4.57185 12.2535C4.98416 12.2932 5.28624 12.6596 5.24656 13.0719L4.50001 13.0001C5.24656 13.0719 5.24658 13.0717 5.24656 13.0719L5.24637 13.0739L5.24616 13.0759L5.2457 13.0803L5.24457 13.0906L5.24119 13.118C5.23837 13.1396 5.23423 13.1691 5.2281 13.2088C5.21587 13.288 5.1953 13.4109 5.16068 13.5971C5.09147 13.9694 4.96467 14.6028 4.73258 15.6608C4.47884 16.8174 3.96796 18.4745 3.52942 19.8197C3.35413 20.3574 3.18861 20.8506 3.05271 21.2501H20.9473C20.8114 20.8506 20.6459 20.3574 20.4706 19.8197C20.0321 18.4745 19.5212 16.8174 19.2674 15.6608C19.0353 14.6028 18.9085 13.9694 18.8393 13.5971C18.8047 13.4109 18.7841 13.288 18.7719 13.2088C18.7658 13.1691 18.7616 13.1396 18.7588 13.118L18.7554 13.0906L18.7543 13.0803L18.7538 13.0759L18.7536 13.0738L18.7535 13.0724C18.7535 13.0721 18.7535 13.0719 19.5 13.0001L18.7535 13.0724C18.7138 12.6601 19.0159 12.2932 19.4282 12.2535C19.8378 12.2141 20.2021 12.512 20.2457 12.9202C20.2457 12.9202 20.2457 12.9202 20.2457 12.9202C20.2458 12.921 20.246 12.9223 20.2462 12.9242C20.2473 12.9323 20.2497 12.95 20.2544 12.9801C20.2637 13.0404 20.2815 13.1476 20.3141 13.323C20.3793 13.674 20.5025 14.2906 20.7326 15.3393C20.9686 16.4151 21.4577 18.008 21.8967 19.3547C22.1146 20.0232 22.3174 20.6226 22.4658 21.055C22.5399 21.2711 22.6004 21.4452 22.6423 21.5652L22.6905 21.7028L22.7068 21.7492C22.7881 21.9788 22.753 22.2341 22.6124 22.433C22.4719 22.6318 22.2435 22.7501 22 22.7501H2C1.75649 22.7501 1.52813 22.6318 1.38757 22.433C1.247 22.2341 1.21173 21.9794 1.29297 21.7498L1.30954 21.7028L1.35775 21.5652C1.39962 21.4452 1.46009 21.2711 1.53423 21.055C1.68257 20.6226 1.88538 20.0232 2.10329 19.3547C2.54232 18.008 3.03144 16.4151 3.26743 15.3393C3.49749 14.2906 3.62068 13.674 3.68594 13.323C3.71855 13.1476 3.73633 13.0404 3.74564 12.98C3.75028 12.95 3.7527 12.9323 3.75376 12.9242M3.75427 12.9202L3.75406 12.9222L3.75376 12.9242L3.75363 12.9264" fill="#98A2B3"/>
<path fill-rule="evenodd" clip-rule="evenodd" d="M9.91723 13.2547C10.3289 13.2089 10.6997 13.5056 10.7455 13.9172C11.0129 16.3238 10.4774 18.4494 9.88599 19.9609C9.58945 20.7187 9.27601 21.3295 9.03484 21.7536C8.91412 21.9659 8.81112 22.1321 8.73681 22.2473C8.69965 22.305 8.66962 22.3499 8.6481 22.3815C8.63734 22.3974 8.6287 22.4099 8.62236 22.419L8.61458 22.4301L8.61201 22.4337L8.61107 22.435L8.61069 22.4355C8.61052 22.4358 8.61036 22.436 8.0272 22.0195L8.61036 22.436C8.3696 22.7731 7.90119 22.8511 7.56413 22.6104C7.22739 22.3698 7.14915 21.9021 7.38907 21.5651C7.3893 21.5648 7.38953 21.5645 7.38976 21.5641L8.00006 22.0001C7.38976 21.5641 7.38962 21.5643 7.38949 21.5645L7.39207 21.5608L7.40792 21.5378C7.42278 21.5159 7.44598 21.4813 7.47619 21.4344C7.53666 21.3407 7.62506 21.1983 7.7309 21.0122C7.94286 20.6394 8.22317 20.0939 8.48913 19.4143C9.02268 18.0507 9.48725 16.1763 9.25465 14.0829C9.2089 13.6712 9.50555 13.3004 9.91723 13.2547Z" fill="#98A2B3"/>
<path fill-rule="evenodd" clip-rule="evenodd" d="M14.0828 13.2547C14.4945 13.3004 14.7911 13.6712 14.7454 14.0829C14.5128 16.1763 14.9774 18.0507 15.5109 19.4143C15.7769 20.0939 16.0572 20.6394 16.2691 21.0122C16.375 21.1983 16.4634 21.3407 16.5238 21.4344C16.5541 21.4813 16.5773 21.5159 16.5921 21.5378L16.608 21.5608L16.6103 21.5641C16.8505 21.9011 16.7727 22.3698 16.4359 22.6104C16.0988 22.8511 15.6304 22.7731 15.3897 22.436L15.9728 22.0195C15.3897 22.436 15.3898 22.4362 15.3897 22.436L15.389 22.435L15.388 22.4337L15.3855 22.4301L15.3777 22.419C15.3713 22.4099 15.3627 22.3974 15.3519 22.3815C15.3304 22.3499 15.3004 22.305 15.2632 22.2473C15.1889 22.1321 15.0859 21.9659 14.9652 21.7536C14.724 21.3295 14.4106 20.7187 14.114 19.9609C13.5226 18.4494 12.9872 16.3238 13.2546 13.9172C13.3003 13.5056 13.6711 13.2089 14.0828 13.2547Z" fill="#98A2B3"/>
<path d="M3 9C3 9 6.79615 8.9726 8.5 8.5C9.93295 8.10255 12.5 6.5 12.5 6.5C12.5 6.5 14.4661 7.61652 16 8C18 8.5 21 8.5 21 8.5L20.5 12.5C20.5 12.5 18.5 13.5 18 13.5C17.5 13.5 16.5 12.5 16 12.5C15.5 12.5 14.25 14 14 14C13.75 14 12.5 12.5 12 12.5C11.5 12.5 10.5 14.25 10 14.25C9.5 14.25 8.5 13.5 8 13C7.92969 12.9297 7.5 13 7.5 13C6.42915 13.4261 5.3607 13.2442 4.29058 12.8162L3.5 12.5L3 9Z" fill="#98A2B3" stroke="#98A2B3" stroke-width="1.5" stroke-linecap="round" stroke-linejoin="round"/>
<path d="M9.55525 12.8703C9.3783 12.6639 9.17035 12.4212 8.97099 12.2309L8.96844 12.2285L8.36824 12.4271L7.88222 13.2989C7.89061 13.2956 7.89874 13.2924 7.9068 13.2893C8.29928 13.1381 8.29164 13.1412 7.9068 13.2893C7.91569 13.2974 7.92518 13.3063 7.93527 13.3159C8.07431 13.4486 8.23553 13.6355 8.43056 13.8631L8.44476 13.8796C8.62171 14.0861 8.82966 14.3288 9.02902 14.5191C9.13212 14.6175 9.25544 14.724 9.39206 14.8099C9.51709 14.8884 9.73131 15 10 15C10.2687 15 10.4829 14.8884 10.608 14.8099C10.7446 14.724 10.8679 14.6175 10.971 14.5191C11.1703 14.3288 11.3783 14.0861 11.5552 13.8797L11.5694 13.8631C11.7542 13.6476 11.9085 13.4686 12.0425 13.3375L12.0442 13.3388C12.1991 13.4526 12.3836 13.6152 12.585 13.8011C12.6455 13.8569 12.7093 13.9166 12.7738 13.9768C12.9074 14.1018 13.0437 14.2293 13.1575 14.3292C13.2435 14.4047 13.3403 14.4858 13.4351 14.5516C13.4822 14.5843 13.5454 14.625 13.6187 14.6599C13.6779 14.6882 13.818 14.75 14 14.75C14.182 14.75 14.3221 14.6882 14.3813 14.6599C14.4546 14.625 14.5178 14.5843 14.5649 14.5516C14.6597 14.4858 14.7565 14.4047 14.8425 14.3292C14.9563 14.2293 15.0926 14.1018 15.2262 13.9768C15.2907 13.9166 15.3546 13.8569 15.415 13.8011C15.6164 13.6152 15.8009 13.4526 15.9558 13.3388C15.9857 13.3168 16.0119 13.2986 16.0345 13.2837C16.0515 13.2921 16.0713 13.3023 16.094 13.3147C16.2309 13.3893 16.389 13.494 16.584 13.624L16.5983 13.6336C16.7754 13.7517 16.9863 13.8923 17.1877 14.0022C17.3679 14.1004 17.6699 14.25 18 14.25C18.1632 14.25 18.326 14.2132 18.4442 14.1817C18.5758 14.1466 18.7175 14.0996 18.8579 14.0486C19.1393 13.9463 19.4541 13.8133 19.7421 13.6853C20.0321 13.5564 20.3048 13.4281 20.5042 13.3324C20.6042 13.2844 20.6864 13.2443 20.7438 13.2161L20.8106 13.1831L20.8286 13.1742L20.8354 13.1708C21.0555 13.0607 21.2077 12.8497 21.2425 12.606L21.7425 9.10605C21.7734 8.88959 21.7083 8.67041 21.5643 8.50591C21.4202 8.34141 21.2116 8.24796 20.993 8.25001L20 8.50591C19.5531 8.71457 19.2533 8.96779 19.1329 8.96631C18.7396 8.96151 19.4539 9.1006 18.8579 9.07222C18.7612 9.06762 18.6621 9.06172 18.561 9.05465L17.0016 9.57059C17.5998 9.63449 18.2119 9.67464 18.7591 9.70069C19.2778 9.72539 19.7559 9.73802 20.136 9.74438L19.8138 11.9999C19.6276 12.0889 19.3862 12.202 19.1329 12.3146C18.8584 12.4366 18.5795 12.5537 18.3453 12.6389C18.2278 12.6816 18.1312 12.7127 18.0577 12.7323C18.0433 12.7362 18.031 12.7392 18.0207 12.7417C17.9979 12.7321 17.9604 12.715 17.906 12.6853C17.7692 12.6107 17.611 12.5059 17.416 12.3759L17.4017 12.3664C17.2246 12.2483 17.0137 12.1077 16.8123 11.9978C16.6322 11.8996 16.3301 11.75 16 11.75C15.7677 11.75 15.5706 11.8314 15.4469 11.8928C15.3111 11.9603 15.1817 12.0461 15.0677 12.1299C14.8397 12.2974 14.6024 12.5098 14.3975 12.6989C14.3178 12.7725 14.2444 12.8412 14.176 12.9052C14.1135 12.9637 14.0551 13.0183 14 13.0691C13.9449 13.0183 13.8865 12.9637 13.824 12.9052C13.7556 12.8412 13.6822 12.7725 13.6025 12.6989C13.3976 12.5098 13.1603 12.2974 12.9323 12.1299C12.8183 12.0461 12.6889 11.9603 12.5531 11.8928C12.4294 11.8314 12.2323 11.75 12 11.75C11.7313 11.75 11.5171 11.8615 11.3921 11.9401C11.2554 12.0259 11.1321 12.1325 11.029 12.2309C10.8297 12.4212 10.6217 12.6639 10.4448 12.8703L10.4306 12.8869C10.2651 13.08 10.1239 13.2438 10 13.3701C9.8761 13.2438 9.73495 13.08 9.56945 12.8869L9.55525 12.8703Z" fill="#98A2B3"/>
<path d="M5.15354 9.676C6.30973 9.61041 7.76074 9.48335 8.70046 9.2227C9.26827 9.0652 9.91142 8.81164 10.4904 8.55861L11.3156 7.5L11.6471 6.3382L11.6425 6.34063L11.6265 6.34913L11.5617 6.38308C11.5046 6.41282 11.4208 6.45612 11.3156 6.50949C11.1047 6.61635 10.8089 6.76296 10.4697 6.92151C9.78064 7.24366 8.95262 7.59613 8.29954 7.77727C7.53542 7.98921 6.23643 8.11215 5.06858 8.17841C4.49716 8.21083 3.97734 8.22876 3.60027 8.23857C3.4119 8.24347 3.25957 8.24634 3.15474 8.24797C3.10234 8.24879 3.06183 8.2493 3.03465 8.2496L3.00408 8.24992L2.99455 8.25C2.77809 8.25158 2.57288 8.34659 2.43164 8.51063C2.2904 8.67467 2.22693 8.89175 2.25754 9.10605L2.75754 12.606C2.79548 12.8716 2.97237 13.0967 3.22145 13.1963L4.01206 13.5126C5.34517 14.0458 6.74085 13.7531 7.88222 13.2989L8.12523 12.863L8.36824 12.4271L8.63135 11.9551L8.60795 11.9401C8.48292 11.8615 8.26869 11.75 8 11.75C7.74811 11.75 7.49605 11.8382 7.32759 11.9052C6.32728 12.3033 5.37622 12.4427 4.56909 12.1199L4.18115 11.9647L3.86216 9.73177C4.2215 9.72085 4.66905 9.70349 5.15354 9.676Z" fill="#98A2B3"/>
<path fill-rule="evenodd" clip-rule="evenodd" d="M12 1.75C12.4142 1.75 12.75 2.08579 12.75 2.5V7.5C12.75 7.91421 12.4142 8.25 12 8.25C11.5858 8.25 11.25 7.91421 11.25 7.5V2.5C11.25 2.08579 11.5858 1.75 12 1.75Z" fill="#98A2B3"/>
<path fill-rule="evenodd" clip-rule="evenodd" d="M12.3777 1.24096C13.1498 0.932142 14.1622 1.03989 15.416 1.87578C16.4122 2.53989 16.8998 2.43214 17.0652 2.36596C17.1697 2.32416 17.2429 2.2616 17.2902 2.20903C17.3136 2.18299 17.3287 2.16161 17.3357 2.15091C17.3368 2.14922 17.3376 2.14786 17.3382 2.14685C17.498 1.84719 17.8402 1.69148 18.1723 1.76988C18.5108 1.8498 18.75 2.15199 18.75 2.49982V5.49982C18.75 5.61626 18.7229 5.73109 18.6708 5.83523L18 5.49982C18.6708 5.83523 18.6706 5.83577 18.6703 5.8363L18.6697 5.83741L18.6686 5.83973L18.6659 5.84482L18.6597 5.85674C18.6551 5.86544 18.6495 5.87565 18.6429 5.8872C18.6298 5.91027 18.6126 5.9389 18.5911 5.97179C18.5483 6.03725 18.4872 6.12134 18.4051 6.21249C18.2415 6.39429 17.9865 6.61298 17.6223 6.75868C16.8502 7.0675 15.8378 6.95975 14.584 6.12386C13.5878 5.45975 13.1002 5.5675 12.9348 5.63368C12.8303 5.67548 12.7571 5.73804 12.7098 5.79061C12.6864 5.81665 12.6713 5.83803 12.6643 5.84874C12.6632 5.85042 12.6624 5.85178 12.6618 5.85279C12.502 6.15246 12.1598 6.30816 11.8277 6.22976C11.4892 6.14985 11.25 5.84766 11.25 5.49982V2.49982C11.25 2.38339 11.2771 2.26855 11.3292 2.16441L12 2.49982C11.3292 2.16441 11.3294 2.16388 11.3297 2.16334L11.3303 2.16224L11.3314 2.15991L11.3341 2.15482L11.3403 2.1429C11.3449 2.1342 11.3505 2.124 11.3571 2.11245C11.3702 2.08938 11.3874 2.06074 11.4089 2.02786C11.4517 1.96239 11.5128 1.8783 11.5949 1.78716C11.7585 1.60535 12.0135 1.38666 12.3777 1.24096ZM12.75 2.75V4.12937C13.4661 3.98234 14.3545 4.16813 15.416 4.87579C16.4122 5.53989 16.8998 5.43215 17.0652 5.36597C17.1437 5.33456 17.2045 5.29144 17.25 5.24965V3.87027C16.5339 4.0173 15.6455 3.83152 14.584 3.12386C13.5878 2.45975 13.1002 2.5675 12.9348 2.63368C12.8563 2.66508 12.7955 2.7082 12.75 2.75Z" fill="#98A2B3"/>
</svg>
