<svg width="25" height="24" viewBox="0 0 25 24" fill="none" xmlns="http://www.w3.org/2000/svg">
<path d="M6.5 3C6.5 2.44771 6.9477 2 7.5 2H17.5C18.0523 2 18.5 2.44771 18.5 3V15C18.5 15.5523 18.0523 16 17.5 16H7.5C6.9477 16 6.5 15.5523 6.5 15V3Z" fill="#98A2B3"/>
<path fill-rule="evenodd" clip-rule="evenodd" d="M7.5 2.75C7.36192 2.75 7.25 2.86192 7.25 3V15C7.25 15.1381 7.36191 15.25 7.5 15.25H17.5C17.6381 15.25 17.75 15.1381 17.75 15V3C17.75 2.86192 17.6381 2.75 17.5 2.75H7.5ZM5.75 3C5.75 2.03351 6.53348 1.25 7.5 1.25H17.5C18.4665 1.25 19.25 2.03351 19.25 3V15C19.25 15.9665 18.4665 16.75 17.5 16.75H7.5C6.53349 16.75 5.75 15.9665 5.75 15V3Z" fill="#98A2B3"/>
<path d="M9.5 14C10.0523 14 10.5 13.5523 10.5 13C10.5 12.4477 10.0523 12 9.5 12C8.94772 12 8.5 12.4477 8.5 13C8.5 13.5523 8.94772 14 9.5 14Z" fill="#FFFBFF"/>
<path d="M15.5 14C16.0523 14 16.5 13.5523 16.5 13C16.5 12.4477 16.0523 12 15.5 12C14.9477 12 14.5 12.4477 14.5 13C14.5 13.5523 14.9477 14 15.5 14Z" fill="#FFFBFF"/>
<path fill-rule="evenodd" clip-rule="evenodd" d="M5.75 10C5.75 9.58579 6.08579 9.25 6.5 9.25H18.5C18.9142 9.25 19.25 9.58579 19.25 10C19.25 10.4142 18.9142 10.75 18.5 10.75H6.5C6.08579 10.75 5.75 10.4142 5.75 10Z" fill="#FFFBFF"/>
<path fill-rule="evenodd" clip-rule="evenodd" d="M10.25 19C10.25 18.5858 10.5858 18.25 11 18.25H14C14.4142 18.25 14.75 18.5858 14.75 19C14.75 19.4142 14.4142 19.75 14 19.75H11C10.5858 19.75 10.25 19.4142 10.25 19Z" fill="#98A2B3"/>
<path fill-rule="evenodd" clip-rule="evenodd" d="M8.75 22C8.75 21.5858 9.08579 21.25 9.5 21.25H15.5C15.9142 21.25 16.25 21.5858 16.25 22C16.25 22.4142 15.9142 22.75 15.5 22.75H9.5C9.08579 22.75 8.75 22.4142 8.75 22Z" fill="#98A2B3"/>
<path fill-rule="evenodd" clip-rule="evenodd" d="M9.33533 15.3293C9.70581 15.5146 9.85598 15.9651 9.67074 16.3356L6.67074 22.3356C6.4855 22.7061 6.03499 22.8562 5.66451 22.671C5.29403 22.4857 5.14386 22.0352 5.3291 21.6648L8.3291 15.6648C8.51434 15.2943 8.96485 15.1441 9.33533 15.3293Z" fill="#98A2B3"/>
<path fill-rule="evenodd" clip-rule="evenodd" d="M15.6645 15.3293C16.035 15.1441 16.4855 15.2943 16.6707 15.6648L19.6707 21.6648C19.856 22.0352 19.7058 22.4857 19.3353 22.671C18.9648 22.8562 18.5143 22.7061 18.3291 22.3356L15.3291 16.3356C15.1439 15.9651 15.294 15.5146 15.6645 15.3293Z" fill="#98A2B3"/>
<path fill-rule="evenodd" clip-rule="evenodd" d="M18.5 6.75C18.9142 6.75 19.25 7.08579 19.25 7.5V12.5C19.25 12.9142 18.9142 13.25 18.5 13.25C18.0858 13.25 17.75 12.9142 17.75 12.5V7.5C17.75 7.08579 18.0858 6.75 18.5 6.75Z" fill="#98A2B3"/>
<path fill-rule="evenodd" clip-rule="evenodd" d="M6.5 6.75C6.91421 6.75 7.25 7.08579 7.25 7.5V12.5C7.25 12.9142 6.91421 13.25 6.5 13.25C6.08579 13.25 5.75 12.9142 5.75 12.5V7.5C5.75 7.08579 6.08579 6.75 6.5 6.75Z" fill="#98A2B3"/>
</svg>
