<svg width="25" height="24" viewBox="0 0 25 24" fill="none" xmlns="http://www.w3.org/2000/svg">
<path d="M16.5 9H8.5C5.18629 9 2.5 11.6863 2.5 15C2.5 18.3137 5.18629 21 8.5 21H16.5C19.8137 21 22.5 18.3137 22.5 15C22.5 11.6863 19.8137 9 16.5 9Z" fill="#98A2B3"/>
<path fill-rule="evenodd" clip-rule="evenodd" d="M8.5 9.75C5.60051 9.75 3.25 12.1005 3.25 15C3.25 17.8995 5.60051 20.25 8.5 20.25H16.5C19.3995 20.25 21.75 17.8995 21.75 15C21.75 12.1005 19.3995 9.75 16.5 9.75H8.5ZM1.75 15C1.75 11.2721 4.77208 8.25 8.5 8.25H16.5C20.2279 8.25 23.25 11.2721 23.25 15C23.25 18.7279 20.2279 21.75 16.5 21.75H8.5C4.77208 21.75 1.75 18.7279 1.75 15Z" fill="#98A2B3"/>
<path fill-rule="evenodd" clip-rule="evenodd" d="M8.5 12.25C8.91421 12.25 9.25 12.5858 9.25 13V17C9.25 17.4142 8.91421 17.75 8.5 17.75C8.08579 17.75 7.75 17.4142 7.75 17V13C7.75 12.5858 8.08579 12.25 8.5 12.25Z" fill="#FFFBFF"/>
<path fill-rule="evenodd" clip-rule="evenodd" d="M5.75 15C5.75 14.5858 6.08579 14.25 6.5 14.25H10.5C10.9142 14.25 11.25 14.5858 11.25 15C11.25 15.4142 10.9142 15.75 10.5 15.75H6.5C6.08579 15.75 5.75 15.4142 5.75 15Z" fill="#FFFBFF"/>
<path fill-rule="evenodd" clip-rule="evenodd" d="M16.5 1.25C16.9142 1.25 17.25 1.58579 17.25 2V4.85714C17.25 5.27136 16.9142 5.60714 16.5 5.60714H13.25V8C13.25 8.41421 12.9142 8.75 12.5 8.75C12.0858 8.75 11.75 8.41421 11.75 8V4.85714C11.75 4.44293 12.0858 4.10714 12.5 4.10714H15.75V2C15.75 1.58579 16.0858 1.25 16.5 1.25Z" fill="#98A2B3"/>
<path d="M16.5 17C17.6046 17 18.5 16.1046 18.5 15C18.5 13.8954 17.6046 13 16.5 13C15.3954 13 14.5 13.8954 14.5 15C14.5 16.1046 15.3954 17 16.5 17Z" fill="#FFFBFF"/>
<path fill-rule="evenodd" clip-rule="evenodd" d="M16.5 13.75C15.8096 13.75 15.25 14.3096 15.25 15C15.25 15.6904 15.8096 16.25 16.5 16.25C17.1904 16.25 17.75 15.6904 17.75 15C17.75 14.3096 17.1904 13.75 16.5 13.75ZM13.75 15C13.75 13.4812 14.9812 12.25 16.5 12.25C18.0188 12.25 19.25 13.4812 19.25 15C19.25 16.5188 18.0188 17.75 16.5 17.75C14.9812 17.75 13.75 16.5188 13.75 15Z" fill="#FFFBFF"/>
</svg>
