<svg width="25" height="24" viewBox="0 0 25 24" fill="none" xmlns="http://www.w3.org/2000/svg">
<path d="M17.5 2H7.5C6.67157 2 6 2.67157 6 3.5V20.5C6 21.3284 6.67157 22 7.5 22H17.5C18.3284 22 19 21.3284 19 20.5V3.5C19 2.67157 18.3284 2 17.5 2Z" fill="#98A2B3"/>
<path fill-rule="evenodd" clip-rule="evenodd" d="M7.5 2.75C7.08579 2.75 6.75 3.08579 6.75 3.5V20.5C6.75 20.9142 7.08579 21.25 7.5 21.25H17.5C17.9142 21.25 18.25 20.9142 18.25 20.5V3.5C18.25 3.08579 17.9142 2.75 17.5 2.75H7.5ZM5.25 3.5C5.25 2.25736 6.25736 1.25 7.5 1.25H17.5C18.7426 1.25 19.75 2.25736 19.75 3.5V20.5C19.75 21.7426 18.7426 22.75 17.5 22.75H7.5C6.25736 22.75 5.25 21.7426 5.25 20.5V3.5Z" fill="#98A2B3"/>
<path fill-rule="evenodd" clip-rule="evenodd" d="M10.75 5C10.75 4.58579 11.0858 4.25 11.5 4.25H13.5C13.9142 4.25 14.25 4.58579 14.25 5C14.25 5.41421 13.9142 5.75 13.5 5.75H11.5C11.0858 5.75 10.75 5.41421 10.75 5Z" fill="#FFFBFF"/>
<path fill-rule="evenodd" clip-rule="evenodd" d="M9.75 19C9.75 18.5858 10.0858 18.25 10.5 18.25H14.5C14.9142 18.25 15.25 18.5858 15.25 19C15.25 19.4142 14.9142 19.75 14.5 19.75H10.5C10.0858 19.75 9.75 19.4142 9.75 19Z" fill="#FFFBFF"/>
</svg>
