<svg width="25" height="24" viewBox="0 0 25 24" fill="none" xmlns="http://www.w3.org/2000/svg">
<path d="M15 2H10C9.17157 2 8.5 2.67157 8.5 3.5V5.5C8.5 6.32843 9.17157 7 10 7H15C15.8284 7 16.5 6.32843 16.5 5.5V3.5C16.5 2.67157 15.8284 2 15 2Z" fill="#98A2B3"/>
<path fill-rule="evenodd" clip-rule="evenodd" d="M10 2.75C9.58579 2.75 9.25 3.08579 9.25 3.5V5.5C9.25 5.91421 9.58579 6.25 10 6.25H15C15.4142 6.25 15.75 5.91421 15.75 5.5V3.5C15.75 3.08579 15.4142 2.75 15 2.75H10ZM7.75 3.5C7.75 2.25736 8.75736 1.25 10 1.25H15C16.2426 1.25 17.25 2.25736 17.25 3.5V5.5C17.25 6.74264 16.2426 7.75 15 7.75H10C8.75736 7.75 7.75 6.74264 7.75 5.5V3.5Z" fill="#98A2B3"/>
<path fill-rule="evenodd" clip-rule="evenodd" d="M9.5 10.75C6.60051 10.75 4.25 13.1005 4.25 16C4.25 18.8995 6.60051 21.25 9.5 21.25H15.5C18.3995 21.25 20.75 18.8995 20.75 16C20.75 13.1005 18.3995 10.75 15.5 10.75H9.5ZM2.75 16C2.75 12.2721 5.77208 9.25 9.5 9.25H15.5C19.2279 9.25 22.25 12.2721 22.25 16C22.25 19.7279 19.2279 22.75 15.5 22.75H9.5C5.77208 22.75 2.75 19.7279 2.75 16Z" fill="#98A2B3"/>
<path fill-rule="evenodd" clip-rule="evenodd" d="M7.44914 15.9C5.8044 15.9081 4.62309 16.2856 4.08951 16.9639C3.83341 17.2894 3.36189 17.3458 3.03633 17.0897C2.71077 16.8336 2.65446 16.362 2.91056 16.0365C3.8981 14.7811 5.71678 14.4085 7.44176 14.4001C9.22241 14.3913 11.174 14.7676 12.7372 15.2887C12.8773 15.3354 13.0185 15.3827 13.1605 15.4304C14.5736 15.9046 16.072 16.4074 17.461 16.5676C18.9796 16.7429 20.1517 16.485 20.9144 15.5317C21.1731 15.2082 21.6451 15.1558 21.9686 15.4145C22.292 15.6733 22.3444 16.1453 22.0857 16.4687C20.8484 18.0154 19.0204 18.2575 17.2891 18.0577C15.7331 17.8782 14.0811 17.3227 12.6954 16.8567C12.5481 16.8072 12.4038 16.7587 12.2629 16.7117C10.8261 16.2328 9.03821 15.8922 7.44914 15.9Z" fill="#98A2B3"/>
<path d="M13 4.5C13 4.77615 12.7761 5 12.5 5C12.2239 5 12 4.77615 12 4.5C12 4.22386 12.2239 4 12.5 4C12.7761 4 13 4.22386 13 4.5Z" fill="#FFFBFF"/>
</svg>
