<svg width="24" height="24" viewBox="0 0 24 24" fill="none" xmlns="http://www.w3.org/2000/svg">
<path d="M7.15368 1.6323C7.02084 1.39615 6.77096 1.25 6.5 1.25C6.22904 1.25 5.97916 1.39615 5.84632 1.6323L1.34632 9.6323C1.21569 9.86453 1.21808 10.1486 1.35259 10.3786C1.48711 10.6086 1.73355 10.75 2 10.75H11C11.2664 10.75 11.5129 10.6086 11.6474 10.3786C11.7819 10.1486 11.7843 9.86453 11.6537 9.6323L7.15368 1.6323Z" fill="#98A2B3"/>
<path d="M14 13.25C13.5858 13.25 13.25 13.5858 13.25 14V22C13.25 22.4142 13.5858 22.75 14 22.75H22C22.4142 22.75 22.75 22.4142 22.75 22V14C22.75 13.5858 22.4142 13.25 22 13.25H14Z" fill="#98A2B3"/>
<path d="M18 1.25C15.3766 1.25 13.25 3.37665 13.25 6C13.25 8.62336 15.3766 10.75 18 10.75C20.6234 10.75 22.75 8.62336 22.75 6C22.75 3.37665 20.6234 1.25 18 1.25Z" fill="#98A2B3"/>
<path d="M7.06066 18L10.5303 21.4697C10.8232 21.7626 10.8232 22.2374 10.5303 22.5303C10.2374 22.8232 9.76256 22.8232 9.46967 22.5303L6 19.0607L2.53033 22.5303C2.23744 22.8232 1.76256 22.8232 1.46967 22.5303C1.17678 22.2374 1.17678 21.7626 1.46967 21.4697L4.93934 18L1.46967 14.5303C1.17678 14.2374 1.17678 13.7626 1.46967 13.4697C1.76256 13.1768 2.23744 13.1768 2.53033 13.4697L6 16.9393L9.46967 13.4697C9.76256 13.1768 10.2374 13.1768 10.5303 13.4697C10.8232 13.7626 10.8232 14.2374 10.5303 14.5303L7.06066 18Z" fill="#98A2B3"/>
</svg>
