<svg width="24" height="24" viewBox="0 0 24 24" fill="none" xmlns="http://www.w3.org/2000/svg">
<path fill-rule="evenodd" clip-rule="evenodd" d="M5.75 22C5.75 21.5858 6.08579 21.25 6.5 21.25H16.5C16.9142 21.25 17.25 21.5858 17.25 22C17.25 22.4142 16.9142 22.75 16.5 22.75H6.5C6.08579 22.75 5.75 22.4142 5.75 22Z" fill="#98A2B3"/>
<path fill-rule="evenodd" clip-rule="evenodd" d="M11.5 13.25C11.9142 13.25 12.25 13.5858 12.25 14V22C12.25 22.4142 11.9142 22.75 11.5 22.75C11.0858 22.75 10.75 22.4142 10.75 22V14C10.75 13.5858 11.0858 13.25 11.5 13.25Z" fill="#98A2B3"/>
<path d="M17.5 8C17.5 8.83755 17.3216 9.64195 17 10.3745C16.0738 12.4848 13.9597 14 11.5 14C9.12915 14 7.0795 12.6249 6.105 10.6288C5.7175 9.83495 5.5 8.94285 5.5 8C5.5 6.81355 5.76655 5.6937 6.105 4.75C6.6937 3.10864 7.5 2 7.5 2H15.5C15.5 2 16.4076 3.24795 17 5.05605C17.287 5.93195 17.5 6.93935 17.5 8Z" fill="#98A2B3"/>
<path fill-rule="evenodd" clip-rule="evenodd" d="M6.89345 1.55887C7.03458 1.36481 7.26005 1.25 7.5 1.25H15.5C15.74 1.25 15.9654 1.36481 16.1066 1.55887L15.5 2C16.1066 1.55887 16.1065 1.55875 16.1066 1.55887L16.1085 1.56159L16.1118 1.56615L16.1222 1.58073C16.1308 1.59285 16.1427 1.60977 16.1575 1.6313C16.1872 1.67435 16.2289 1.73594 16.28 1.81471C16.3823 1.97214 16.523 2.1988 16.6824 2.48384C17.0004 3.0524 17.3978 3.86134 17.7127 4.82254C18.0176 5.75314 18.25 6.84087 18.25 8C18.25 8.9448 18.0486 9.85162 17.6867 10.676C16.6483 13.0419 14.2754 14.75 11.5 14.75C8.83168 14.75 6.52646 13.2016 5.43103 10.9578C4.99462 10.0638 4.75 9.05935 4.75 8C4.75 6.70397 5.0405 5.49649 5.39903 4.49681C5.71143 3.62582 6.08062 2.89829 6.37182 2.38785C6.51775 2.13204 6.64503 1.92913 6.73723 1.78822C6.78336 1.71773 6.82079 1.66263 6.84748 1.62405C6.86083 1.60476 6.87151 1.58959 6.87925 1.57868L6.88864 1.56553L6.89163 1.56138L6.89269 1.55992L6.89345 1.55887C6.89353 1.55875 6.89345 1.55887 7.5 2L6.89345 1.55887ZM7.90247 2.75C7.83744 2.85368 7.76003 2.98158 7.67471 3.13113C7.41558 3.58535 7.08727 4.23283 6.81097 5.00319M7.90247 2.75H15.0975C15.1746 2.87285 15.269 3.02964 15.3733 3.21614C15.6572 3.72358 16.0098 4.44267 16.2873 5.28956C16.5564 6.11075 16.75 7.03784 16.75 8C16.75 8.7303 16.5946 9.43228 16.3133 10.0731C15.4992 11.9277 13.644 13.25 11.5 13.25C9.42664 13.25 7.63257 12.0482 6.77899 10.2998C6.4404 9.60616 6.25 8.82635 6.25 8C6.25 6.92313 6.4926 5.89091 6.81097 5.00319" fill="#98A2B3"/>
<path fill-rule="evenodd" clip-rule="evenodd" d="M7.44548 6.69679C8.70223 6.49836 10.4138 6.4738 11.8858 7.35699C12.9138 7.9738 14.2022 7.99836 15.3205 7.82179C15.8678 7.73537 16.3455 7.60522 16.686 7.49656C16.8556 7.44243 16.9895 7.39416 17.0791 7.36023C17.1238 7.34329 17.1574 7.32997 17.1787 7.32136L17.2013 7.31211L17.2045 7.31076C17.5851 7.14787 18.0262 7.32408 18.1893 7.70468C18.3525 8.0854 18.1761 8.52631 17.7954 8.68947L17.4999 8.00011C17.7954 8.68947 17.7956 8.68937 17.7954 8.68947L17.7944 8.6899L17.7931 8.69046L17.7895 8.692L17.7784 8.69663L17.7414 8.71183C17.7102 8.72446 17.6661 8.7419 17.6103 8.76304C17.4987 8.80529 17.3396 8.86249 17.142 8.92555C16.7481 9.05126 16.1946 9.20236 15.5544 9.30344C14.2977 9.50187 12.5861 9.52643 11.1141 8.64323C10.0861 8.02643 8.79767 8.00187 7.67942 8.17844C7.13208 8.26486 6.65439 8.39501 6.31392 8.50367C6.1443 8.5578 6.01039 8.60607 5.9208 8.64C5.87605 8.65694 5.84249 8.67026 5.82119 8.67887L5.79864 8.68812L5.79539 8.68947C5.41475 8.85236 4.9737 8.67615 4.81059 8.29555C4.64742 7.91483 4.82379 7.47392 5.20451 7.31076L5.49995 8.00011C5.20451 7.31076 5.20427 7.31086 5.20451 7.31076L5.20683 7.30976L5.21044 7.30823L5.22149 7.3036L5.25854 7.2884C5.28973 7.27577 5.33381 7.25833 5.38964 7.23719C5.50123 7.19494 5.66028 7.13774 5.85786 7.07468C6.25176 6.94897 6.80532 6.79787 7.44548 6.69679Z" fill="#FFFBFF"/>
<path fill-rule="evenodd" clip-rule="evenodd" d="M16.7664 4.34315C17.1601 4.21418 17.5837 4.42871 17.7127 4.82234C18.0176 5.75295 18.25 6.84068 18.25 7.99982C18.25 8.94462 18.0486 9.85143 17.6867 10.6758C17.5202 11.0551 17.0778 11.2276 16.6985 11.0611C16.3192 10.8946 16.1467 10.4522 16.3132 10.0729C16.5945 9.4321 16.75 8.73011 16.75 7.99982C16.75 7.03766 16.5563 6.11059 16.2872 5.2894C16.1583 4.89578 16.3728 4.47213 16.7664 4.34315Z" fill="#98A2B3"/>
<path fill-rule="evenodd" clip-rule="evenodd" d="M6.35819 4.04423C6.74809 4.18407 6.9508 4.6135 6.81097 5.00339C6.4926 5.89112 6.25 6.92333 6.25 8.0002C6.25 8.82655 6.4404 9.60636 6.77899 10.3C6.96069 10.6722 6.80623 11.1213 6.43399 11.303C6.06176 11.4847 5.61271 11.3302 5.43101 10.958C4.9946 10.0639 4.75 9.05956 4.75 8.0002C4.75 6.70418 5.0405 5.49669 5.39903 4.49701C5.53886 4.10712 5.96829 3.9044 6.35819 4.04423Z" fill="#98A2B3"/>
</svg>
