<svg width="25" height="24" viewBox="0 0 25 24" fill="none" xmlns="http://www.w3.org/2000/svg">
<path fill-rule="evenodd" clip-rule="evenodd" d="M7.5 1.25C7.91421 1.25 8.25 1.58579 8.25 2V22C8.25 22.4142 7.91421 22.75 7.5 22.75C7.08579 22.75 6.75 22.4142 6.75 22V2C6.75 1.58579 7.08579 1.25 7.5 1.25Z" fill="#98A2B3"/>
<path fill-rule="evenodd" clip-rule="evenodd" d="M4.5 1.75C4.91421 1.75 5.25 2.08579 5.25 2.5V7.5C5.25 7.96227 5.38417 8.26401 5.5544 8.47679C5.73404 8.70133 5.99038 8.87099 6.28846 8.99519C6.58584 9.1191 6.89368 9.18463 7.13443 9.21807C7.25286 9.23452 7.35026 9.24255 7.41566 9.24644C7.44824 9.24838 7.47253 9.24927 7.48713 9.24968L7.5 9.24996L7.51287 9.24968C7.52747 9.24927 7.55176 9.24838 7.58434 9.24644C7.64974 9.24255 7.74714 9.23452 7.86557 9.21807C8.10632 9.18463 8.41416 9.1191 8.71154 8.99519C9.00962 8.87099 9.26596 8.70133 9.4456 8.47679C9.61583 8.26401 9.75 7.96227 9.75 7.5V2.5C9.75 2.08579 10.0858 1.75 10.5 1.75C10.9142 1.75 11.25 2.08579 11.25 2.5V7.5C11.25 8.28773 11.0092 8.92349 10.6169 9.41383C10.234 9.89242 9.74038 10.1915 9.28846 10.3798C8.83584 10.5684 8.39368 10.6591 8.07193 10.7038C7.90911 10.7264 7.77213 10.7379 7.67347 10.7438C7.62402 10.7467 7.58386 10.7483 7.55452 10.7491L7.51869 10.7499L7.50713 10.75L7.50301 10.75L7.50136 10.75C7.50103 10.75 7.5 10.75 7.5 10C7.5 10.75 7.49968 10.75 7.49935 10.75L7.49699 10.75L7.49287 10.75L7.48131 10.7499L7.44548 10.7491C7.41614 10.7483 7.37598 10.7467 7.32653 10.7438C7.22787 10.7379 7.09089 10.7264 6.92807 10.7038C6.60632 10.6591 6.16416 10.5684 5.71154 10.3798C5.25962 10.1915 4.76596 9.89242 4.3831 9.41383C3.99083 8.92349 3.75 8.28773 3.75 7.5V2.5C3.75 2.08579 4.08579 1.75 4.5 1.75ZM7.49721 9.25001C7.49713 9.25001 7.49711 9.25001 7.49721 9.25001ZM7.50279 9.25001C7.50289 9.25001 7.50287 9.25001 7.50279 9.25001Z" fill="#98A2B3"/>
<path fill-rule="evenodd" clip-rule="evenodd" d="M17.5 9.25C17.9142 9.25 18.25 9.58579 18.25 10V22C18.25 22.4142 17.9142 22.75 17.5 22.75C17.0858 22.75 16.75 22.4142 16.75 22V10C16.75 9.58579 17.0858 9.25 17.5 9.25Z" fill="#98A2B3"/>
<path d="M20.5 6C20.5 8.20915 19.1568 10 17.5 10C15.8432 10 14.5 8.20915 14.5 6C14.5 3.79086 15.8432 2 17.5 2C19.1568 2 20.5 3.79086 20.5 6Z" fill="#98A2B3"/>
<path fill-rule="evenodd" clip-rule="evenodd" d="M15.9787 3.62157C15.5422 4.20359 15.25 5.04202 15.25 6C15.25 6.95799 15.5422 7.79641 15.9787 8.37843C16.415 8.96022 16.9606 9.25 17.5 9.25C18.0394 9.25 18.585 8.96022 19.0213 8.37843C19.4578 7.79641 19.75 6.95799 19.75 6C19.75 5.04202 19.4578 4.20359 19.0213 3.62157C18.585 3.03978 18.0394 2.75 17.5 2.75C16.9606 2.75 16.415 3.03978 15.9787 3.62157ZM14.7787 2.72157C15.4281 1.85565 16.3826 1.25 17.5 1.25C18.6174 1.25 19.5719 1.85565 20.2213 2.72157C20.8706 3.58727 21.25 4.74884 21.25 6C21.25 7.25116 20.8706 8.41274 20.2213 9.27843C19.5719 10.1444 18.6174 10.75 17.5 10.75C16.3826 10.75 15.4281 10.1444 14.7787 9.27843C14.1294 8.41274 13.75 7.25116 13.75 6C13.75 4.74884 14.1294 3.58727 14.7787 2.72157Z" fill="#98A2B3"/>
</svg>
