<svg width="24" height="24" viewBox="0 0 24 24" fill="none" xmlns="http://www.w3.org/2000/svg">
<path fill-rule="evenodd" clip-rule="evenodd" d="M14.1868 6.69877C14.3533 7.07807 14.1808 7.52049 13.8015 7.68696L8.07514 10.2002H18.0304L16.3928 7.94027C16.1497 7.60486 16.2246 7.13593 16.56 6.89288C16.8954 6.64983 17.3643 6.7247 17.6074 7.06011L20.1074 10.5101C20.2728 10.7383 20.2962 11.04 20.1681 11.2911C20.04 11.5422 19.7819 11.7002 19.5001 11.7002H4.50007C4.14521 11.7002 3.83891 11.4515 3.76605 11.1042C3.69319 10.7569 3.87371 10.406 4.19866 10.2634L13.1987 6.31342C13.578 6.14696 14.0204 6.31948 14.1868 6.69877Z" fill="#98A2B3"/>
<path d="M15.5 8.5C16.6046 8.5 17.5 7.60457 17.5 6.5C17.5 5.39543 16.6046 4.5 15.5 4.5C14.3954 4.5 13.5 5.39543 13.5 6.5C13.5 7.60457 14.3954 8.5 15.5 8.5Z" fill="#FFFBFF"/>
<path fill-rule="evenodd" clip-rule="evenodd" d="M15.5 5.25C14.8096 5.25 14.25 5.80964 14.25 6.5C14.25 7.19036 14.8096 7.75 15.5 7.75C16.1904 7.75 16.75 7.19036 16.75 6.5C16.75 5.80964 16.1904 5.25 15.5 5.25ZM12.75 6.5C12.75 4.98122 13.9812 3.75 15.5 3.75C17.0188 3.75 18.25 4.98122 18.25 6.5C18.25 8.01878 17.0188 9.25 15.5 9.25C13.9812 9.25 12.75 8.01878 12.75 6.5Z" fill="#98A2B3"/>
<path fill-rule="evenodd" clip-rule="evenodd" d="M17.7785 1.30384C18.1631 1.45768 18.3501 1.89415 18.1963 2.27874L17.1963 4.77874C17.0425 5.16333 16.606 5.35039 16.2214 5.19656C15.8368 5.04272 15.6498 4.60624 15.8036 4.22166L16.8036 1.72166C16.9574 1.33707 17.3939 1.15001 17.7785 1.30384Z" fill="#98A2B3"/>
<path fill-rule="evenodd" clip-rule="evenodd" d="M3.5015 13.3284C3.78533 13.1433 4.09072 12.9695 4.41461 12.8076L5.08539 14.1493C4.80764 14.2881 4.55242 14.4338 4.32093 14.5848L4.32092 14.5848C3.21329 15.3072 2.75 16.0737 2.75 16.75C2.75 17.6043 3.50568 18.6024 5.25072 19.4313C6.93923 20.2334 9.3246 20.75 12 20.75C14.6754 20.75 17.0608 20.2334 18.7493 19.4313C20.4943 18.6024 21.25 17.6043 21.25 16.75C21.25 16.0571 20.7626 15.269 19.5992 14.5335L20.4008 13.2657C21.749 14.1181 22.75 15.3039 22.75 16.75C22.75 18.5192 21.2671 19.896 19.3929 20.7863C17.4621 21.7034 14.8475 22.25 12 22.25C9.15255 22.25 6.53792 21.7034 4.60714 20.7863C2.73289 19.896 1.25 18.5192 1.25 16.75C1.25 15.3382 2.20507 14.1739 3.5015 13.3284Z" fill="#98A2B3"/>
<path d="M19.5 11H4.5V17H19.5V11Z" fill="#98A2B3"/>
<path fill-rule="evenodd" clip-rule="evenodd" d="M3.75 11C3.75 10.5858 4.08579 10.25 4.5 10.25H19.5C19.9142 10.25 20.25 10.5858 20.25 11V17C20.25 17.4142 19.9142 17.75 19.5 17.75H4.5C4.08579 17.75 3.75 17.4142 3.75 17V11ZM5.25 11.75V16.25H18.75V11.75H5.25Z" fill="#98A2B3"/>
<path fill-rule="evenodd" clip-rule="evenodd" d="M20 11.75H4.5V10.25H20V11.75Z" fill="#98A2B3"/>
</svg>
