<svg width="24" height="24" viewBox="0 0 24 24" fill="none" xmlns="http://www.w3.org/2000/svg">
<path d="M7.5 18L10.5 6.5H13.5L16.5 18L12 22L7.5 18Z" fill="#98A2B3"/>
<path fill-rule="evenodd" clip-rule="evenodd" d="M9.77431 6.31068C9.86046 5.98044 10.1587 5.75 10.5 5.75H13.5C13.8413 5.75 14.1396 5.98044 14.2257 6.31068L17.2257 17.8107C17.2969 18.0835 17.209 18.3732 16.9983 18.5606L12.4983 22.5606C12.2141 22.8131 11.7859 22.8131 11.5018 22.5606L7.00175 18.5606C6.791 18.3732 6.70314 18.0835 6.77431 17.8107L9.77431 6.31068ZM11.0795 7.25L8.34172 17.7447L12 20.9965L15.6583 17.7447L12.9206 7.25H11.0795Z" fill="#98A2B3"/>
<path d="M10.5 2H13.5L15 3L13.5 6.5H10.5L9 3L10.5 2Z" fill="#98A2B3"/>
<path fill-rule="evenodd" clip-rule="evenodd" d="M10.0841 1.37596C10.2073 1.29383 10.352 1.25 10.5001 1.25H13.5001C13.6481 1.25 13.7929 1.29383 13.9161 1.37596L15.4161 2.37596C15.7169 2.57651 15.8319 2.96313 15.6894 3.29544L14.1894 6.79544C14.0713 7.0712 13.8001 7.25 13.5001 7.25H10.5001C10.2001 7.25 9.9289 7.0712 9.81072 6.79544L8.31072 3.29544C8.1683 2.96313 8.28323 2.57651 8.58405 2.37596L10.0841 1.37596ZM10.7272 2.75L9.93519 3.27798L10.9946 5.75H13.0055L14.065 3.27798L13.273 2.75H10.7272Z" fill="#98A2B3"/>
</svg>
