<svg width="25" height="24" viewBox="0 0 25 24" fill="none" xmlns="http://www.w3.org/2000/svg">
<path fill-rule="evenodd" clip-rule="evenodd" d="M5.5 2.75C5.36193 2.75 5.25 2.86193 5.25 3V21C5.25 21.1381 5.36193 21.25 5.5 21.25H19.5C19.6381 21.25 19.75 21.1381 19.75 21V3C19.75 2.86193 19.6381 2.75 19.5 2.75H5.5ZM3.75 3C3.75 2.0335 4.5335 1.25 5.5 1.25H19.5C20.4665 1.25 21.25 2.0335 21.25 3V21C21.25 21.9665 20.4665 22.75 19.5 22.75H5.5C4.5335 22.75 3.75 21.9665 3.75 21V3Z" fill="#98A2B3"/>
<path d="M8.5 2H13V10L10.75 8L8.5 10V2Z" fill="#98A2B3"/>
<path fill-rule="evenodd" clip-rule="evenodd" d="M7.75 2C7.75 1.58579 8.08579 1.25 8.5 1.25H13C13.4142 1.25 13.75 1.58579 13.75 2V10C13.75 10.2953 13.5767 10.5632 13.3072 10.6842C13.0378 10.8052 12.7225 10.7568 12.5017 10.5606L10.75 9.00347L8.99827 10.5606C8.77753 10.7568 8.46218 10.8052 8.19276 10.6842C7.92333 10.5632 7.75 10.2953 7.75 10V2ZM9.25 2.75V8.32987L10.2517 7.43944C10.5359 7.18685 10.9641 7.18685 11.2483 7.43944L12.25 8.32987V2.75H9.25Z" fill="#98A2B3"/>
<path fill-rule="evenodd" clip-rule="evenodd" d="M7.75 14C7.75 13.5858 8.08579 13.25 8.5 13.25H13.5C13.9142 13.25 14.25 13.5858 14.25 14C14.25 14.4142 13.9142 14.75 13.5 14.75H8.5C8.08579 14.75 7.75 14.4142 7.75 14Z" fill="#98A2B3"/>
<path fill-rule="evenodd" clip-rule="evenodd" d="M7.75 17C7.75 16.5858 8.08579 16.25 8.5 16.25H16.5C16.9142 16.25 17.25 16.5858 17.25 17C17.25 17.4142 16.9142 17.75 16.5 17.75H8.5C8.08579 17.75 7.75 17.4142 7.75 17Z" fill="#98A2B3"/>
</svg>
