<svg width="36" height="24" viewBox="0 0 36 24" fill="none" xmlns="http://www.w3.org/2000/svg">
<g clip-path="url(#clip0_1838_15847)">
<path d="M4.8974 16.8784C6.59426 16.8784 7.9063 15.5651 7.9063 13.6217V6.05811H9.74292V18.3141H7.9238V17.176C7.10163 18.0338 5.96465 18.524 4.68734 18.524C2.06298 18.524 0.0510254 16.6157 0.0510254 13.728V6.06012H1.88764V13.6217C1.88764 15.6002 3.18217 16.8784 4.89683 16.8784" fill="#98A2B3"/>
<path d="M11.1081 6.05811H12.8749V10.5227C13.287 10.1003 13.7796 9.76487 14.3234 9.53628C14.8673 9.30769 15.4515 9.19059 16.0414 9.19189C18.6657 9.19189 20.7299 11.2754 20.7299 13.8667C20.7299 16.4405 18.6657 18.5237 16.0414 18.5237C15.4487 18.5253 14.8616 18.4085 14.3146 18.18C13.7676 17.9515 13.2717 17.616 12.856 17.1932V18.3132H11.1055L11.1081 6.05811ZM15.9191 16.9657C17.5988 16.9657 18.9808 15.5824 18.9808 13.8667C18.9808 12.1333 17.5988 10.7677 15.9191 10.7677C14.222 10.7677 12.8399 12.1333 12.8399 13.8667C12.8399 15.5824 14.2045 16.9657 15.9191 16.9657Z" fill="#98A2B3"/>
<path d="M26.0139 9.20947C28.5855 9.20947 30.4752 11.1879 30.4752 13.8493V14.4271H23.2157C23.4607 15.8802 24.6677 16.9658 26.1715 16.9658C27.2046 16.9658 28.0787 16.5454 28.7433 15.6525L30.0206 16.5979C29.1281 17.7886 27.7986 18.5063 26.1715 18.5063C23.4949 18.5063 21.4304 16.5103 21.4304 13.8493C21.4304 11.328 23.4074 9.20947 26.0142 9.20947M23.2498 13.0265H28.6908C28.3935 11.6606 27.2912 10.7502 25.9792 10.7502C24.6672 10.7502 23.5649 11.6606 23.2498 13.0265Z" fill="#98A2B3"/>
<path d="M35.2162 10.9604C34.0614 10.9604 33.2218 11.8533 33.2218 13.2364V18.3138H31.4546V9.38464H33.2051V10.4886C33.6425 9.77062 34.3599 9.31543 35.3396 9.31543H35.9517V10.9613L35.2162 10.9604Z" fill="#98A2B3"/>
</g>
<defs>
<clipPath id="clip0_1838_15847">
<rect width="36" height="12.5902" fill="white" transform="translate(0 6)"/>
</clipPath>
</defs>
</svg>
