<svg width="25" height="24" viewBox="0 0 25 24" fill="none" xmlns="http://www.w3.org/2000/svg">
<path d="M6.5 6.1401C6.5 6.0627 6.5627 6 6.6401 6H18.3599C18.4373 6 18.5 6.0627 18.5 6.1401V12C18.5 15.3137 15.8137 18 12.5 18C9.1863 18 6.5 15.3137 6.5 12V6.1401Z" fill="#98A2B3"/>
<path fill-rule="evenodd" clip-rule="evenodd" d="M7.25 6.75V12C7.25 14.8995 9.60051 17.25 12.5 17.25C15.3995 17.25 17.75 14.8995 17.75 12V6.75H7.25ZM5.75 6.1401C5.75 5.64849 6.14849 5.25 6.6401 5.25H18.3599C18.8515 5.25 19.25 5.64848 19.25 6.1401V12C19.25 15.7279 16.2279 18.75 12.5 18.75C8.77209 18.75 5.75 15.7279 5.75 12V6.1401Z" fill="#98A2B3"/>
<path fill-rule="evenodd" clip-rule="evenodd" d="M10.5 1.25C10.9142 1.25 11.25 1.58579 11.25 2V6C11.25 6.41421 10.9142 6.75 10.5 6.75C10.0858 6.75 9.75 6.41421 9.75 6V2C9.75 1.58579 10.0858 1.25 10.5 1.25Z" fill="#98A2B3"/>
<path fill-rule="evenodd" clip-rule="evenodd" d="M14.5 1.25C14.9142 1.25 15.25 1.58579 15.25 2V6C15.25 6.41421 14.9142 6.75 14.5 6.75C14.0858 6.75 13.75 6.41421 13.75 6V2C13.75 1.58579 14.0858 1.25 14.5 1.25Z" fill="#98A2B3"/>
<path fill-rule="evenodd" clip-rule="evenodd" d="M10.75 13.5C10.75 13.0858 11.0858 12.75 11.5 12.75H13.5C13.9142 12.75 14.25 13.0858 14.25 13.5C14.25 13.9142 13.9142 14.25 13.5 14.25H11.5C11.0858 14.25 10.75 13.9142 10.75 13.5Z" fill="#FFFBFF"/>
<path fill-rule="evenodd" clip-rule="evenodd" d="M12.5 17.25C12.9142 17.25 13.25 17.5858 13.25 18V20.5C13.25 20.9142 13.5858 21.25 14 21.25H19.5C19.9142 21.25 20.25 21.5858 20.25 22C20.25 22.4142 19.9142 22.75 19.5 22.75H14C12.7573 22.75 11.75 21.7427 11.75 20.5V18C11.75 17.5858 12.0858 17.25 12.5 17.25Z" fill="#98A2B3"/>
</svg>
