<svg width="24" height="24" viewBox="0 0 24 24" fill="none" xmlns="http://www.w3.org/2000/svg">
<path d="M4.25012 3C4.25012 2.03351 5.0336 1.25 6.00012 1.25H18.0001C18.9666 1.25 19.7501 2.03351 19.7501 3V22C19.7501 22.2809 19.5931 22.5383 19.3433 22.6669C19.0935 22.7954 18.7928 22.7736 18.5642 22.6103L15.5001 20.4217L12.4361 22.6103C12.1753 22.7966 11.825 22.7966 11.5642 22.6103L8.50012 20.4217L5.43605 22.6103C5.20744 22.7736 4.90674 22.7954 4.65694 22.6669C4.40713 22.5383 4.25012 22.2809 4.25012 22V3ZM9.00012 10.25C8.58591 10.25 8.25012 10.5858 8.25012 11C8.25012 11.4142 8.58591 11.75 9.00012 11.75H15.0001C15.4143 11.75 15.7501 11.4142 15.7501 11C15.7501 10.5858 15.4143 10.25 15.0001 10.25H9.00012ZM8.25012 15C8.25012 15.4142 8.58591 15.75 9.00012 15.75H15.0001C15.4143 15.75 15.7501 15.4142 15.7501 15C15.7501 14.5858 15.4143 14.25 15.0001 14.25H9.00012C8.58591 14.25 8.25012 14.5858 8.25012 15ZM9.00012 6.25C8.58591 6.25 8.25012 6.58579 8.25012 7C8.25012 7.41421 8.58591 7.75 9.00012 7.75H15.0001C15.4143 7.75 15.7501 7.41421 15.7501 7C15.7501 6.58579 15.4143 6.25 15.0001 6.25H9.00012Z" fill="#999999"/>
</svg>
