<svg width="24" height="24" viewBox="0 0 24 24" fill="none" xmlns="http://www.w3.org/2000/svg">
<path d="M14.5 7C15.8807 7 17 5.8807 17 4.5C17 3.11929 15.8807 2 14.5 2C13.1193 2 12 3.11929 12 4.5C12 5.8807 13.1193 7 14.5 7Z" fill="#98A2B3"/>
<path fill-rule="evenodd" clip-rule="evenodd" d="M11.25 4.5C11.25 2.70507 12.7051 1.25 14.5 1.25C16.2949 1.25 17.75 2.70507 17.75 4.5C17.75 6.29491 16.2949 7.75 14.5 7.75C12.7051 7.75 11.25 6.29491 11.25 4.5ZM14.5 2.75C13.5335 2.75 12.75 3.53351 12.75 4.5C12.75 5.46649 13.5335 6.25 14.5 6.25C15.4665 6.25 16.25 5.46649 16.25 4.5C16.25 3.53351 15.4665 2.75 14.5 2.75Z" fill="#98A2B3"/>
<path d="M9.5 23C10.3285 23 11 22.3285 11 21.5C11 20.6715 10.3285 20 9.5 20C8.67155 20 8 20.6715 8 21.5C8 22.3285 8.67155 23 9.5 23Z" fill="#98A2B3"/>
<path fill-rule="evenodd" clip-rule="evenodd" d="M12.5471 8.79568C12.9114 8.99289 13.0468 9.44805 12.8496 9.8123L10.9537 13.314L14.1244 15.9252C14.4031 16.1444 14.5878 16.4332 14.6926 16.7316C14.6963 16.7422 14.6998 16.7528 14.7031 16.7635L16.2181 21.7835C16.3377 22.1801 16.1133 22.5986 15.7167 22.7182C15.3202 22.8379 14.9017 22.6135 14.782 22.2169L13.2731 17.217C13.2498 17.1565 13.22 17.1219 13.1959 17.1033C13.19 17.0987 13.1841 17.094 13.1783 17.0892L9.52326 14.0792C9.24627 13.8511 9.16966 13.4587 9.3405 13.1431L11.5305 9.09814C11.7277 8.73389 12.1829 8.59847 12.5471 8.79568Z" fill="#98A2B3"/>
<path fill-rule="evenodd" clip-rule="evenodd" d="M10.4376 12.891C10.774 13.1327 10.8507 13.6013 10.609 13.9377L7.86845 17.7515C7.39627 18.434 6.51083 18.693 5.74564 18.372C5.74518 18.3718 5.74472 18.3716 5.74426 18.3714L1.71167 16.6924C1.32928 16.5332 1.14836 16.0942 1.30757 15.7118C1.46678 15.3294 1.90584 15.1485 2.28823 15.3077L6.32323 16.9877L6.32564 16.9887C6.43706 17.0355 6.5668 16.9977 6.63578 16.8968L6.64589 16.8824L9.39089 13.0624C9.63261 12.726 10.1012 12.6493 10.4376 12.891Z" fill="#98A2B3"/>
<path fill-rule="evenodd" clip-rule="evenodd" d="M7.41119 7.54669L9.02237 7.8319C11.3912 8.25693 13.6679 9.09133 15.7487 10.3099L17.3476 11.2114C17.3477 11.2115 17.3476 11.2114 17.3476 11.2114C17.3913 11.236 17.4441 11.2501 17.4999 11.2501H20.9999C21.4141 11.2501 21.7499 11.5859 21.7499 12.0001C21.7499 12.4143 21.4141 12.7501 20.9999 12.7501H17.4999C17.1958 12.7501 16.8885 12.6742 16.6122 12.5188L14.9957 11.6073C13.0681 10.4777 10.9572 9.70312 8.75833 9.30847C8.75804 9.30842 8.75862 9.30853 8.75833 9.30847L7.14918 9.02363C7.09559 9.0141 7.03365 9.02351 6.98135 9.05227L6.963 9.06204L3.843 10.667C3.47466 10.8565 3.02246 10.7115 2.83298 10.3432C2.6435 9.97486 2.7885 9.52266 3.15683 9.33318L6.26887 7.73227C6.61415 7.54541 7.0189 7.47708 7.41119 7.54669Z" fill="#98A2B3"/>
</svg>
