<svg width="24" height="24" viewBox="0 0 24 24" fill="none" xmlns="http://www.w3.org/2000/svg">
<path fill-rule="evenodd" clip-rule="evenodd" d="M1.25 14.5C1.25 14.0858 1.58579 13.75 2 13.75H22C22.4142 13.75 22.75 14.0858 22.75 14.5V17.5C22.75 17.9142 22.4142 18.25 22 18.25H2C1.58579 18.25 1.25 17.9142 1.25 17.5V14.5ZM2.75 15.25V16.75H21.25V15.25H2.75Z" fill="#98A2B3"/>
<path d="M11.7646 6.5C10.0146 8.5 10.0146 12.5 10.0146 14.5H20.0146V10.25C20.0146 10.25 14 7.5 11.7646 6.5Z" fill="#98A2B3"/>
<path fill-rule="evenodd" clip-rule="evenodd" d="M11.2002 6.00616C11.4171 5.7583 11.7703 5.68093 12.0709 5.81542C13.1914 6.31667 15.2563 7.25528 17.0389 8.06755C17.9307 8.47391 18.7526 8.84899 19.3515 9.12249L20.3264 9.56792C20.5934 9.68996 20.7647 9.95653 20.7647 10.25V14.5C20.7647 14.9142 20.4289 15.25 20.0147 15.25H10.0146C9.60044 15.25 9.26466 14.9143 9.26465 14.5001L9.26465 14.4871C9.26462 13.4905 9.26457 11.946 9.49123 10.3918C9.71563 8.85312 10.1787 7.17362 11.2002 6.00616ZM19.2647 10.7319L18.7284 10.487C18.1297 10.2136 17.3082 9.83866 16.4169 9.43252C14.8938 8.73845 13.169 7.95421 12.0034 7.42936C11.4739 8.25241 11.1546 9.38065 10.9755 10.6083C10.8135 11.7195 10.7759 12.8365 10.7673 13.75H19.2647V10.7319Z" fill="#98A2B3"/>
</svg>
