<svg width="25" height="24" viewBox="0 0 25 24" fill="none" xmlns="http://www.w3.org/2000/svg">
<path d="M9.5 9L7.5 5H17.5L15.5 9V12L20.75 22H4L9.5 12V9Z" fill="#98A2B3"/>
<path fill-rule="evenodd" clip-rule="evenodd" d="M6.86201 4.6057C6.99867 4.38459 7.24007 4.25 7.5 4.25H17.5C17.7599 4.25 18.0013 4.38459 18.138 4.6057C18.2746 4.82681 18.2871 5.10292 18.1708 5.33541L16.25 9.17705V11.8151L21.414 21.6514C21.5361 21.8839 21.5277 22.1632 21.3919 22.388C21.256 22.6127 21.0126 22.75 20.75 22.75H4C3.73483 22.75 3.48937 22.61 3.35441 22.3817C3.21945 22.1535 3.21505 21.8709 3.34284 21.6386L8.75 11.8074V9.17705L6.82918 5.33541C6.71293 5.10292 6.72536 4.82681 6.86201 4.6057ZM8.71353 5.75L10.1708 8.66459C10.2229 8.76873 10.25 8.88357 10.25 9V12C10.25 12.1264 10.2181 12.2507 10.1572 12.3614L5.26845 21.25H19.5092L14.836 12.3486C14.7795 12.2411 14.75 12.1215 14.75 12V9C14.75 8.88357 14.7771 8.76873 14.8292 8.66459L16.2865 5.75H8.71353Z" fill="#98A2B3"/>
<path fill-rule="evenodd" clip-rule="evenodd" d="M10.5 1.25C10.9142 1.25 11.25 1.58579 11.25 2V5C11.25 5.41421 10.9142 5.75 10.5 5.75C10.0858 5.75 9.75 5.41421 9.75 5V2C9.75 1.58579 10.0858 1.25 10.5 1.25Z" fill="#98A2B3"/>
<path fill-rule="evenodd" clip-rule="evenodd" d="M14.5 1.25C14.9142 1.25 15.25 1.58579 15.25 2V5C15.25 5.41421 14.9142 5.75 14.5 5.75C14.0858 5.75 13.75 5.41421 13.75 5V2C13.75 1.58579 14.0858 1.25 14.5 1.25Z" fill="#98A2B3"/>
<path fill-rule="evenodd" clip-rule="evenodd" d="M8.75 10.5C8.75 10.0858 9.08579 9.75 9.5 9.75H15.5C15.9142 9.75 16.25 10.0858 16.25 10.5C16.25 10.9142 15.9142 11.25 15.5 11.25H9.5C9.08579 11.25 8.75 10.9142 8.75 10.5Z" fill="#FFFBFF"/>
<path fill-rule="evenodd" clip-rule="evenodd" d="M9.5 8.75C9.91421 8.75 10.25 9.08579 10.25 9.5V11.5C10.25 11.9142 9.91421 12.25 9.5 12.25C9.08579 12.25 8.75 11.9142 8.75 11.5V9.5C8.75 9.08579 9.08579 8.75 9.5 8.75Z" fill="#98A2B3"/>
<path fill-rule="evenodd" clip-rule="evenodd" d="M15.5 8.75C15.9142 8.75 16.25 9.08579 16.25 9.5V11.5C16.25 11.9142 15.9142 12.25 15.5 12.25C15.0858 12.25 14.75 11.9142 14.75 11.5V9.5C14.75 9.08579 15.0858 8.75 15.5 8.75Z" fill="#98A2B3"/>
</svg>
