<svg width="25" height="24" viewBox="0 0 25 24" fill="none" xmlns="http://www.w3.org/2000/svg">
<path d="M1.75 12C1.75 6.06294 6.56294 1.25 12.5 1.25C18.4371 1.25 23.25 6.06294 23.25 12C23.25 17.9371 18.4371 22.75 12.5 22.75C6.56294 22.75 1.75 17.9371 1.75 12ZM10.25 6V9.75H6.5C6.08579 9.75 5.75 10.0858 5.75 10.5V13.5C5.75 13.9142 6.08579 14.25 6.5 14.25H10.25V18C10.25 18.4142 10.5858 18.75 11 18.75H14C14.4142 18.75 14.75 18.4142 14.75 18V14.25H18.5C18.9142 14.25 19.25 13.9142 19.25 13.5V10.5C19.25 10.0858 18.9142 9.75 18.5 9.75H14.75V6C14.75 5.58579 14.4142 5.25 14 5.25H11C10.5858 5.25 10.25 5.58579 10.25 6Z" fill="#98A2B3"/>
</svg>
