<svg width="24" height="24" viewBox="0 0 24 24" fill="none" xmlns="http://www.w3.org/2000/svg">
<path d="M19 3H5V21H19V3Z" fill="#98A2B3"/>
<path fill-rule="evenodd" clip-rule="evenodd" d="M4.25 3C4.25 2.58579 4.58579 2.25 5 2.25H19C19.4142 2.25 19.75 2.58579 19.75 3V21C19.75 21.4142 19.4142 21.75 19 21.75H5C4.58579 21.75 4.25 21.4142 4.25 21V3ZM5.75 3.75V20.25H18.25V3.75H5.75Z" fill="#98A2B3"/>
<path d="M10.3215 11.9443C11.0371 11.004 11.5888 9.70515 11.887 9C12.4088 9.70515 13.542 11.4742 13.8998 12.4144C14.3471 13.5897 13.2289 15 11.887 15C10.5451 15 9.4269 13.1195 10.3215 11.9443Z" fill="#FFFBFF"/>
<path fill-rule="evenodd" clip-rule="evenodd" d="M11.7983 8.25527C12.0657 8.22343 12.3297 8.3374 12.4899 8.55386C12.768 8.92965 13.1945 9.5683 13.5961 10.2299C13.9912 10.8809 14.3956 11.6085 14.6008 12.1476L14.6008 12.1477C14.9404 13.0399 14.6652 13.9591 14.1547 14.6105C13.6429 15.2637 12.8216 15.75 11.887 15.75C10.8628 15.75 10.0311 15.0518 9.60668 14.2711C9.17609 13.4792 9.0468 12.3807 9.72471 11.4901M11.7983 8.25527C11.5309 8.28711 11.3011 8.45987 11.1962 8.70789ZM12.0212 10.5373C11.7251 11.1483 11.352 11.8288 10.9183 12.3986L10.9183 12.3986C10.7016 12.6832 10.6842 13.1126 10.9245 13.5546C11.171 14.008 11.5694 14.25 11.887 14.25C12.2943 14.25 12.703 14.0312 12.974 13.6854C13.2463 13.3378 13.3066 12.9642 13.1989 12.6812M12.0212 10.5373C12.1179 10.6894 12.2164 10.8477 12.3138 11.0082C12.7052 11.6531 13.0463 12.2801 13.1989 12.6812M11.1962 8.70789C10.8918 9.42769 10.3737 10.6374 9.72473 11.49Z" fill="#FFFBFF"/>
<path fill-rule="evenodd" clip-rule="evenodd" d="M2.25 3C2.25 2.58579 2.58579 2.25 3 2.25H21C21.4142 2.25 21.75 2.58579 21.75 3C21.75 3.41421 21.4142 3.75 21 3.75H3C2.58579 3.75 2.25 3.41421 2.25 3Z" fill="#98A2B3"/>
<path fill-rule="evenodd" clip-rule="evenodd" d="M2.25 21C2.25 20.5858 2.58579 20.25 3 20.25H21C21.4142 20.25 21.75 20.5858 21.75 21C21.75 21.4142 21.4142 21.75 21 21.75H3C2.58579 21.75 2.25 21.4142 2.25 21Z" fill="#98A2B3"/>
<path fill-rule="evenodd" clip-rule="evenodd" d="M2.25 12C2.25 11.5858 2.58579 11.25 3 11.25H5C5.41421 11.25 5.75 11.5858 5.75 12C5.75 12.4142 5.41421 12.75 5 12.75H3C2.58579 12.75 2.25 12.4142 2.25 12Z" fill="#98A2B3"/>
<path fill-rule="evenodd" clip-rule="evenodd" d="M18.25 12C18.25 11.5858 18.5858 11.25 19 11.25H21C21.4142 11.25 21.75 11.5858 21.75 12C21.75 12.4142 21.4142 12.75 21 12.75H19C18.5858 12.75 18.25 12.4142 18.25 12Z" fill="#98A2B3"/>
</svg>
