<svg width="24" height="24" viewBox="0 0 24 24" fill="none" xmlns="http://www.w3.org/2000/svg">
<path d="M22 8H2V21H22V8Z" fill="#98A2B3"/>
<path fill-rule="evenodd" clip-rule="evenodd" d="M1.25 8C1.25 7.58579 1.58579 7.25 2 7.25H22C22.4142 7.25 22.75 7.58579 22.75 8V21C22.75 21.4142 22.4142 21.75 22 21.75H2C1.58579 21.75 1.25 21.4142 1.25 21V8ZM2.75 8.75V20.25H21.25V8.75H2.75Z" fill="#98A2B3"/>
<path fill-rule="evenodd" clip-rule="evenodd" d="M1.25 3C1.25 2.58579 1.58579 2.25 2 2.25H22C22.4142 2.25 22.75 2.58579 22.75 3V8C22.75 8.41421 22.4142 8.75 22 8.75H2C1.58579 8.75 1.25 8.41421 1.25 8V3ZM2.75 3.75V7.25H21.25V3.75H2.75Z" fill="#98A2B3"/>
<path fill-rule="evenodd" clip-rule="evenodd" d="M12.7214 2.30384C13.106 2.15001 13.5425 2.33707 13.6963 2.72166L15.6963 7.72166C15.8501 8.10624 15.6631 8.54272 15.2785 8.69656C14.8939 8.85039 14.4574 8.66333 14.3036 8.27874L12.3036 3.27874C12.1498 2.89415 12.3368 2.45768 12.7214 2.30384Z" fill="#98A2B3"/>
<path fill-rule="evenodd" clip-rule="evenodd" d="M8.72141 2.30384C9.106 2.15001 9.54248 2.33707 9.69631 2.72166L11.6963 7.72166C11.8501 8.10624 11.6631 8.54272 11.2785 8.69656C10.8939 8.85039 10.4574 8.66333 10.3036 8.27874L8.3036 3.27874C8.14976 2.89415 8.33682 2.45768 8.72141 2.30384Z" fill="#98A2B3"/>
<path fill-rule="evenodd" clip-rule="evenodd" d="M4.72141 2.30384C5.106 2.15001 5.54248 2.33707 5.69631 2.72166L7.69631 7.72166C7.85015 8.10624 7.66309 8.54272 7.2785 8.69656C6.89391 8.85039 6.45743 8.66333 6.3036 8.27874L4.3036 3.27874C4.14976 2.89415 4.33682 2.45768 4.72141 2.30384Z" fill="#98A2B3"/>
<path fill-rule="evenodd" clip-rule="evenodd" d="M16.7214 2.30384C17.106 2.15001 17.5425 2.33707 17.6963 2.72166L19.6963 7.72166C19.8501 8.10624 19.6631 8.54272 19.2785 8.69656C18.8939 8.85039 18.4574 8.66333 18.3036 8.27874L16.3036 3.27874C16.1498 2.89415 16.3368 2.45768 16.7214 2.30384Z" fill="#98A2B3"/>
<path fill-rule="evenodd" clip-rule="evenodd" d="M5.25 12C5.25 11.5858 5.58579 11.25 6 11.25H18C18.4142 11.25 18.75 11.5858 18.75 12C18.75 12.4142 18.4142 12.75 18 12.75H6C5.58579 12.75 5.25 12.4142 5.25 12Z" fill="#FFFBFF"/>
<path fill-rule="evenodd" clip-rule="evenodd" d="M5.25 16C5.25 15.5858 5.58579 15.25 6 15.25H12C12.4142 15.25 12.75 15.5858 12.75 16C12.75 16.4142 12.4142 16.75 12 16.75H6C5.58579 16.75 5.25 16.4142 5.25 16Z" fill="#FFFBFF"/>
</svg>
