<svg width="124" height="122" viewBox="0 0 124 122" fill="none" xmlns="http://www.w3.org/2000/svg">
<path d="M171.802 63.7309C170.206 58.2036 167.352 53.1205 163.465 48.8791C158.879 43.8427 153.51 39.5796 147.565 36.2544C140.66 32.3423 133.316 29.2601 125.687 27.0718C117.292 24.6475 108.679 23.0519 99.9729 22.3078C90.9757 21.486 81.9224 21.486 72.9252 22.3078C64.2151 23.053 55.5988 24.6486 47.1995 27.0718C39.5666 29.2605 32.2189 32.3427 25.3088 36.2544C19.3624 39.5772 13.993 43.8405 9.40892 48.8791C5.52178 53.1205 2.6684 58.2036 1.07189 63.7309C-0.339719 68.8439 -0.339719 74.2439 1.07189 79.3569C2.66567 84.8818 5.51949 89.9616 9.40892 94.1968C13.9921 99.2396 19.3615 103.507 25.3088 106.833C32.2062 110.742 39.5423 113.821 47.1638 116.004C55.568 118.424 64.1879 120.019 72.9014 120.768C81.8991 121.578 90.9514 121.578 99.9491 120.768C108.663 120.019 117.282 118.424 125.687 116.004C133.31 113.822 140.647 110.739 147.542 106.821C153.497 103.502 158.875 99.2385 163.465 94.1968C167.355 89.9616 170.209 84.8818 171.802 79.3569C173.214 74.2439 173.214 68.8439 171.802 63.7309Z" fill="#37474F"/>
<path d="M0 63.7192H172.85V72.5327L0 72.0443V63.7192Z" fill="#37474F"/>
<path d="M72.9491 14.4595L86.4551 63.7194L47.2234 19.2711C55.6211 16.8318 64.2374 15.2202 72.9491 14.4595Z" fill="#455A64"/>
<path d="M99.949 14.4594L86.4431 63.7194L72.949 14.4594C81.9304 13.6405 90.9676 13.6405 99.949 14.4594Z" fill="#455A64"/>
<path d="M125.663 19.2711L86.443 63.7194L99.949 14.4595C108.657 15.2191 117.269 16.8307 125.663 19.2711Z" fill="#455A64"/>
<path d="M163.465 41.0786C167.353 45.3245 170.206 50.4115 171.802 55.9423L86.4669 63.7434L163.465 41.0786Z" fill="#455A64"/>
<path d="M171.802 55.9424C173.214 61.0514 173.214 66.4474 171.802 71.5565L86.4669 63.7435L171.802 55.9424Z" fill="#455A64"/>
<path d="M171.802 71.5566C170.206 77.084 167.353 82.1672 163.465 86.4084L86.4669 63.7793L171.802 71.5566Z" fill="#455A64"/>
<path d="M163.465 86.408C158.872 91.4417 153.5 95.7044 147.554 99.0326L86.4313 63.7432L163.465 86.408Z" fill="#455A64"/>
<path d="M86.4431 63.755L125.687 108.215C117.283 110.635 108.663 112.23 99.9491 112.979L86.4193 63.7192L86.4431 63.755Z" fill="#455A64"/>
<path d="M86.4192 63.7671L99.949 112.979C90.9674 113.792 81.9306 113.792 72.949 112.979L86.4192 63.7671Z" fill="#455A64"/>
<path d="M86.4074 63.7554L72.949 112.98C64.2355 112.231 55.6156 110.635 47.2114 108.216L86.4074 63.7554Z" fill="#455A64"/>
<path d="M86.4074 63.7554L47.1042 108.216C39.5047 106.019 32.1894 102.937 25.3088 99.0329L86.4074 63.7554Z" fill="#455A64"/>
<path d="M86.3955 63.7432L9.39709 86.3722C5.50959 82.1311 2.65616 77.0479 1.06006 71.5204L86.3955 63.7432Z" fill="#455A64"/>
<path d="M86.3954 63.7435L1.05999 71.5565C-0.351213 66.4474 -0.351213 61.0514 1.05999 55.9424L86.3954 63.7435Z" fill="#455A64"/>
<path d="M86.3955 63.7312L1.06006 55.9302C2.65648 50.3993 5.50976 45.3123 9.39709 41.0664L86.3955 63.7312Z" fill="#455A64"/>
<path d="M25.3088 28.4175L86.3954 63.6831L9.40894 41.054C13.9912 36.0103 19.3608 31.7428 25.3088 28.4175Z" fill="#455A64"/>
<path d="M147.542 28.4175L86.443 63.6831L125.663 19.2349C133.294 21.4182 140.638 24.5007 147.542 28.4175Z" fill="#455A64"/>
<path d="M147.542 28.4175C153.498 31.751 158.875 36.0264 163.465 41.0779L86.4788 63.7069L147.542 28.4175Z" fill="#455A64"/>
<path d="M86.4074 63.7314L25.3089 99.0328C19.3606 95.7077 13.9876 91.4447 9.39709 86.4082L86.3955 63.7791L86.4074 63.7314Z" fill="#455A64"/>
<path d="M47.1757 19.271L86.4074 63.7193L25.3088 28.4179C32.2107 24.5155 39.5509 21.4451 47.1757 19.271Z" fill="#455A64"/>
<path d="M86.443 63.7554L147.542 99.0329C140.642 102.941 133.307 106.023 125.687 108.216L86.443 63.7554Z" fill="#455A64"/>
<path d="M109.406 33.1817L119.255 22.0101C119.255 8.90901 103.248 8.58745 96.1736 7.95622C89.099 7.32499 76.9626 3.26365 76.9626 18.175L80.3451 30.5138C90.1117 29.8863 99.9165 30.7864 109.406 33.1817Z" fill="#1ED760"/>
<path opacity="0.6" d="M109.406 33.1817L119.255 22.0101C119.255 8.90901 103.248 8.58745 96.1736 7.95622C89.099 7.32499 76.9626 3.26365 76.9626 18.175L80.3451 30.5138C90.1117 29.8863 99.9165 30.7864 109.406 33.1817Z" fill="white"/>
<path d="M109.406 15.6384L119.255 4.47865C105.463 0.889288 91.1751 -0.406364 76.9626 0.643614L80.3451 12.9348C90.1136 12.3189 99.9184 13.2311 109.406 15.6384Z" fill="#1ED760"/>
<path opacity="0.8" d="M109.406 15.6384L119.255 4.47865C105.463 0.889288 91.1751 -0.406364 76.9626 0.643614L80.3451 12.9348C90.1136 12.3189 99.9184 13.2311 109.406 15.6384Z" fill="white"/>
<path d="M80.3451 12.9824V30.5378L76.9626 18.199V0.643555L80.3451 12.9824Z" fill="#1ED760"/>
<path d="M119.255 4.479L109.406 15.6387V33.206L119.255 22.0344V4.479Z" fill="#1ED760"/>
<g opacity="0.6">
<path d="M80.3451 12.9824V30.5378L76.9626 18.199V0.643555L80.3451 12.9824Z" fill="white"/>
<path d="M119.255 4.479L109.406 15.6387V33.206L119.255 22.0344V4.479Z" fill="white"/>
</g>
<path d="M114.217 17.0558V34.6112C118.327 35.9379 122.293 37.6736 126.056 39.7921C129.34 41.6566 132.356 43.9562 135.024 46.6285L154.342 40.9474C150.501 37.0267 146.127 33.6668 141.348 30.9668C136.072 27.9416 130.427 15.6742 114.217 17.0558Z" fill="#1ED760"/>
<path opacity="0.6" d="M114.217 17.0558V34.6112C118.327 35.9379 122.293 37.6736 126.056 39.7921C129.34 41.6566 132.356 43.9562 135.024 46.6285L154.342 40.9474C150.501 37.0267 146.127 33.6668 141.348 30.9668C136.072 27.9416 130.427 15.6742 114.217 17.0558Z" fill="black"/>
<path d="M124.067 5.90771L114.217 17.0555C118.331 18.372 122.298 20.1081 126.056 22.2364C129.34 24.1009 132.356 26.4004 135.024 29.0727L154.342 23.3916C150.507 19.4639 146.132 16.1032 141.348 13.411C135.873 10.2991 130.079 7.78366 124.067 5.90771Z" fill="#1ED760"/>
<path opacity="0.3" d="M124.067 5.90771L114.217 17.0555C118.331 18.372 122.298 20.1081 126.056 22.2364C129.34 24.1009 132.356 26.4004 135.024 29.0727L154.342 23.3916C150.507 19.4639 146.132 16.1032 141.348 13.411C135.873 10.2991 130.079 7.78366 124.067 5.90771Z" fill="black"/>
<path d="M75.0095 31.0385V13.4712C63.0994 7.98063 40.923 13.5545 33.4911 29.907L48.7836 38.7443C56.9976 34.6362 65.8788 32.0267 75.0095 31.0385Z" fill="#1ED760"/>
<path opacity="0.3" d="M75.0095 31.0385V13.4712C63.0994 7.98063 40.923 13.5545 33.4911 29.907L48.7836 38.7443C56.9976 34.6362 65.8788 32.0267 75.0095 31.0385Z" fill="black"/>
<path d="M75.0094 13.4707L71.6151 1.09619C57.2158 2.71596 44.0314 6.68202 33.5029 12.3512L48.7954 21.1765C57.0058 17.0698 65.8828 14.4603 75.0094 13.4707Z" fill="#1ED760"/>
<path opacity="0.1" d="M75.0094 13.4707L71.6151 1.09619C57.2158 2.71596 44.0314 6.68202 33.5029 12.3512L48.7954 21.1765C57.0058 17.0698 65.8828 14.4603 75.0094 13.4707Z" fill="black"/>
<path d="M48.7836 21.1764V38.7437L33.4911 29.9065V12.3511L48.7836 21.1764Z" fill="#263238"/>
<path d="M32.7882 23.3921L29.644 32.0983C19.3656 38.4583 12.8746 46.1165 10.2068 54.1319L31.6449 56.0852C33.61 50.5946 38.0882 45.3661 45.0198 40.9594V23.3921H32.7882Z" fill="#1ED760"/>
<path opacity="0.3" d="M32.7882 23.3921L29.644 32.0983C19.3656 38.4583 12.8746 46.1165 10.2068 54.1319L31.6449 56.0852C33.61 50.5946 38.0882 45.3661 45.0198 40.9594V23.3921H32.7882Z" fill="black"/>
<path d="M44.9722 23.3916L29.644 14.5425C19.3656 20.8905 12.8746 28.5606 10.2068 36.5641L31.6449 38.5293C33.5624 33.0388 38.0406 27.7984 44.9722 23.3916Z" fill="#1ED760"/>
<path opacity="0.1" d="M44.9722 23.3916L29.644 14.5425C19.3656 20.8905 12.8746 28.5606 10.2068 36.5641L31.6449 38.5293C33.5624 33.0388 38.0406 27.7984 44.9722 23.3916Z" fill="black"/>
<path d="M10.2068 36.5645V54.1318L31.5972 56.085V38.5296L10.2068 36.5645Z" fill="#263238"/>
<path d="M30.7518 59.1698V41.6025L24.3918 41.0308L8.81348 45.0921V62.6356C8.91325 69.6062 11.4403 76.3239 15.9595 81.6321L35.3014 75.951C31.2639 70.651 29.6918 64.8509 30.7518 59.1698Z" fill="#1ED760"/>
<path opacity="0.3" d="M30.7518 59.1698V41.6025L24.3918 41.0308L8.81348 45.0921V62.6356C8.91325 69.6062 11.4403 76.3239 15.9595 81.6321L35.3014 75.951C31.2639 70.651 29.6918 64.8509 30.7518 59.1698Z" fill="black"/>
<path d="M16.0309 64.0763L35.3728 58.3833V75.9506L16.0309 81.6317V64.0763Z" fill="#263238"/>
<path d="M30.7636 41.6022L9.32547 39.6489C7.58661 47.9145 9.78997 56.3945 15.9713 64.0764L35.3132 58.3834C31.2638 53.0835 29.6916 47.2833 30.7636 41.6022Z" fill="#1ED760"/>
<path opacity="0.1" d="M30.7636 41.6022L9.32547 39.6489C7.58661 47.9145 9.78997 56.3945 15.9713 64.0764L35.3132 58.3834C31.2638 53.0835 29.6916 47.2833 30.7636 41.6022Z" fill="black"/>
<path d="M53.6428 81.608C44.5793 76.3795 40.0535 69.5312 40.0535 62.6829V45.0918H132.797V62.6472C132.797 69.5074 128.271 76.3557 119.208 81.5842C101.104 92.065 71.758 92.065 53.6428 81.608Z" fill="#37474F"/>
<path d="M86.4312 71.8893C112.038 71.8893 132.797 59.9023 132.797 45.1156C132.797 30.3288 112.038 18.3418 86.4312 18.3418C60.8241 18.3418 40.0654 30.3288 40.0654 45.1156C40.0654 59.9023 60.8241 71.8893 86.4312 71.8893Z" fill="#455A64"/>
<path d="M48.7836 86.6342V84.3951L18.4963 66.8516V84.3951C22.3387 88.3192 26.7174 91.6795 31.5021 94.3757C36.9777 97.4876 42.7713 100.003 48.7836 101.879L58.6213 90.7312C55.238 89.6301 51.9483 88.2601 48.7836 86.6342Z" fill="#1ED760"/>
<path opacity="0.3" d="M48.7836 86.6342V84.3951L18.4963 66.8516V84.3951C22.3387 88.3192 26.7174 91.6795 31.5021 94.3757C36.9777 97.4876 42.7713 100.003 48.7836 101.879L58.6213 90.7312C55.238 89.6301 51.9483 88.2601 48.7836 86.6342Z" fill="black"/>
<path d="M46.7469 67.9949C43.4595 66.1353 40.4387 63.8397 37.7667 61.1704L18.4486 66.8515C22.294 70.7722 26.6722 74.132 31.4544 76.8321C36.9324 79.9391 42.7255 82.4544 48.7358 84.3355L58.5735 73.1757C54.4639 71.8593 50.5008 70.1232 46.7469 67.9949Z" fill="#1ED760"/>
<path opacity="0.1" d="M46.7469 67.9949C43.4595 66.1353 40.4387 63.8397 37.7667 61.1704L18.4486 66.8515C22.294 70.7722 26.6722 74.132 31.4544 76.8321C36.9324 79.9391 42.7255 82.4544 48.7358 84.3355L58.5735 73.1757C54.4639 71.8593 50.5008 70.1232 46.7469 67.9949Z" fill="black"/>
<path d="M48.7834 101.891V84.3355L58.6211 73.1758V90.7431L48.7834 101.891Z" fill="#263238"/>
<path d="M53.5952 85.7529V103.32C67.387 106.91 81.6753 108.205 95.8878 107.155V89.5999L53.5952 85.7529Z" fill="#1ED760"/>
<path opacity="0.1" d="M53.5952 85.7529V103.32C67.387 106.91 81.6753 108.205 95.8878 107.155V89.5999L53.5952 85.7529Z" fill="black"/>
<path d="M63.421 74.5928L53.5714 85.7525C67.3635 89.3401 81.6509 90.6397 95.864 89.5994L92.5053 77.2487C82.7314 77.8826 72.9185 76.9865 63.421 74.5928Z" fill="#1ED760"/>
<path opacity="0.2" d="M63.421 74.5928L53.5714 85.7525C67.3635 89.3401 81.6509 90.6397 95.864 89.5994L92.5053 77.2487C82.7314 77.8826 72.9185 76.9865 63.421 74.5928Z" fill="white"/>
<path d="M101.235 89.1593V93.9233C100.104 94.102 98.9844 94.2568 97.8411 94.3878L101.235 106.75C115.111 105.202 128.378 101.45 139.348 95.5193V77.9043L101.235 89.1593Z" fill="#1ED760"/>
<path opacity="0.1" d="M101.235 89.1593V93.9233C100.104 94.102 98.9844 94.2568 97.8411 94.3878L101.235 106.75C115.111 105.202 128.378 101.45 139.348 95.5193V77.9043L101.235 89.1593Z" fill="black"/>
<path d="M97.8411 76.7725L101.235 89.1589C115.111 87.6106 128.378 83.8709 139.348 77.9397L124.019 69.0786C115.826 73.1945 106.958 75.8007 97.8411 76.7725Z" fill="#1ED760"/>
<path opacity="0.2" d="M97.8411 76.7725L101.235 89.1589C115.111 87.6106 128.378 83.8709 139.348 77.9397L124.019 69.0786C115.826 73.1945 106.958 75.8007 97.8411 76.7725Z" fill="white"/>
<path d="M101.235 89.1232V106.679L97.8411 94.3398V76.7725L101.235 89.1232Z" fill="#1ED760"/>
<path opacity="0.3" d="M101.235 89.1232V106.679L97.8411 94.3398V76.7725L101.235 89.1232Z" fill="black"/>
</svg>
