<svg width="25" height="24" viewBox="0 0 25 24" fill="none" xmlns="http://www.w3.org/2000/svg">
<path fill-rule="evenodd" clip-rule="evenodd" d="M2.5 3C2.5 2.44771 2.94771 2 3.5 2H21.5C22.0523 2 22.5 2.44771 22.5 3V19C22.5 19.5523 22.0523 20 21.5 20H3.5C2.94771 20 2.5 19.5523 2.5 19V3Z" fill="#98A2B3"/>
<path fill-rule="evenodd" clip-rule="evenodd" d="M3.5 2.75C3.36193 2.75 3.25 2.86193 3.25 3V19C3.25 19.1381 3.36192 19.25 3.5 19.25H21.5C21.6381 19.25 21.75 19.1381 21.75 19V3C21.75 2.86192 21.6381 2.75 21.5 2.75H3.5ZM1.75 3C1.75 2.0335 2.5335 1.25 3.5 1.25H21.5C22.4665 1.25 23.25 2.03351 23.25 3V19C23.25 19.9665 22.4665 20.75 21.5 20.75H3.5C2.53351 20.75 1.75 19.9665 1.75 19V3Z" fill="#98A2B3"/>
<path fill-rule="evenodd" clip-rule="evenodd" d="M3.75 20C3.75 19.5858 4.08579 19.25 4.5 19.25H8.5C8.91421 19.25 9.25 19.5858 9.25 20V22C9.25 22.4142 8.91421 22.75 8.5 22.75H4.5C4.08579 22.75 3.75 22.4142 3.75 22V20ZM5.25 20.75V21.25H7.75V20.75H5.25Z" fill="#98A2B3"/>
<path fill-rule="evenodd" clip-rule="evenodd" d="M15.75 20C15.75 19.5858 16.0858 19.25 16.5 19.25H20.5C20.9142 19.25 21.25 19.5858 21.25 20V22C21.25 22.4142 20.9142 22.75 20.5 22.75H16.5C16.0858 22.75 15.75 22.4142 15.75 22V20ZM17.25 20.75V21.25H19.75V20.75H17.25Z" fill="#98A2B3"/>
<path fill-rule="evenodd" clip-rule="evenodd" d="M10.25 8C10.25 7.58579 10.5858 7.25 11 7.25H14C14.4142 7.25 14.75 7.58579 14.75 8C14.75 8.41421 14.4142 8.75 14 8.75H11C10.5858 8.75 10.25 8.41421 10.25 8Z" fill="#FFFBFF"/>
<path fill-rule="evenodd" clip-rule="evenodd" d="M4.75 17C4.75 16.5858 5.08579 16.25 5.5 16.25H6.5C6.91421 16.25 7.25 16.5858 7.25 17C7.25 17.4142 6.91421 17.75 6.5 17.75H5.5C5.08579 17.75 4.75 17.4142 4.75 17Z" fill="#FFFBFF"/>
<path fill-rule="evenodd" clip-rule="evenodd" d="M9.25 17C9.25 16.5858 9.58579 16.25 10 16.25H15C15.4142 16.25 15.75 16.5858 15.75 17C15.75 17.4142 15.4142 17.75 15 17.75H10C9.58579 17.75 9.25 17.4142 9.25 17Z" fill="#FFFBFF"/>
<path fill-rule="evenodd" clip-rule="evenodd" d="M1.75 12.5C1.75 12.0858 2.08579 11.75 2.5 11.75H22.5C22.9142 11.75 23.25 12.0858 23.25 12.5C23.25 12.9142 22.9142 13.25 22.5 13.25H2.5C2.08579 13.25 1.75 12.9142 1.75 12.5Z" fill="#FFFBFF"/>
<path fill-rule="evenodd" clip-rule="evenodd" d="M1.75 5C1.75 4.58579 2.08579 4.25 2.5 4.25H22.5C22.9142 4.25 23.25 4.58579 23.25 5C23.25 5.41421 22.9142 5.75 22.5 5.75H2.5C2.08579 5.75 1.75 5.41421 1.75 5Z" fill="#FFFBFF"/>
<path fill-rule="evenodd" clip-rule="evenodd" d="M17.75 17C17.75 16.5858 18.0858 16.25 18.5 16.25H19.5C19.9142 16.25 20.25 16.5858 20.25 17C20.25 17.4142 19.9142 17.75 19.5 17.75H18.5C18.0858 17.75 17.75 17.4142 17.75 17Z" fill="#FFFBFF"/>
<path fill-rule="evenodd" clip-rule="evenodd" d="M2.5 2.25C2.91421 2.25 3.25 2.58579 3.25 3V7C3.25 7.41421 2.91421 7.75 2.5 7.75C2.08579 7.75 1.75 7.41421 1.75 7V3C1.75 2.58579 2.08579 2.25 2.5 2.25Z" fill="#98A2B3"/>
<path fill-rule="evenodd" clip-rule="evenodd" d="M22.5 2.25C22.9142 2.25 23.25 2.58579 23.25 3V7C23.25 7.41421 22.9142 7.75 22.5 7.75C22.0858 7.75 21.75 7.41421 21.75 7V3C21.75 2.58579 22.0858 2.25 22.5 2.25Z" fill="#98A2B3"/>
<path fill-rule="evenodd" clip-rule="evenodd" d="M2.5 9.75C2.91421 9.75 3.25 10.0858 3.25 10.5V14.5C3.25 14.9142 2.91421 15.25 2.5 15.25C2.08579 15.25 1.75 14.9142 1.75 14.5V10.5C1.75 10.0858 2.08579 9.75 2.5 9.75Z" fill="#98A2B3"/>
<path fill-rule="evenodd" clip-rule="evenodd" d="M22.5 9.75C22.9142 9.75 23.25 10.0858 23.25 10.5V14.5C23.25 14.9142 22.9142 15.25 22.5 15.25C22.0858 15.25 21.75 14.9142 21.75 14.5V10.5C21.75 10.0858 22.0858 9.75 22.5 9.75Z" fill="#98A2B3"/>
</svg>
