<svg width="19" height="22" viewBox="0 0 19 22" fill="none" xmlns="http://www.w3.org/2000/svg">
<path d="M9.50038 3.61322C10.3651 2.75913 11.1779 1.88713 12.0542 1.08231C14.216 -0.908064 17.6879 -0.0390468 18.7054 2.75465C19.2962 4.37473 18.9936 5.8649 17.8406 7.11616C16.8995 8.13897 15.9195 9.12595 14.9179 10.0846C14.5018 10.4611 14.1731 10.93 13.956 11.4563C13.7389 11.9826 13.6391 12.5529 13.664 13.1246C13.6943 14.891 13.7029 16.6664 13.5833 18.4268C13.455 20.3142 11.6132 22.0104 9.49318 22C7.52305 21.9865 5.68984 20.4844 5.41024 18.506C5.29639 17.6982 5.32233 16.8635 5.31368 16.0467C5.30071 14.6342 5.32665 13.2217 5.29495 11.8106C5.2776 11.5201 5.16291 11.245 4.97068 11.0327C3.76439 9.77548 2.52783 8.55109 1.31002 7.31625C-0.350251 5.61405 -0.442488 3.06224 1.09095 1.38542C1.84416 0.552375 2.88232 0.0580662 3.98302 0.00838728C5.08372 -0.0412916 6.15943 0.357611 6.97972 1.11964C7.76229 1.8483 8.50307 2.6337 9.25394 3.39223C9.326 3.46539 9.40526 3.5296 9.50038 3.61322ZM14.0459 8.74072C12.6364 8.32413 11.4518 7.7194 10.4674 6.81753C8.99308 5.47369 7.59799 4.03429 6.14382 2.65909C5.81576 2.32075 5.42963 2.04881 5.00526 1.85726C4.46618 1.64668 3.87303 1.63781 3.32831 1.8322C2.78359 2.02659 2.32153 2.41202 2.02197 2.92188C1.40658 3.9432 1.56799 5.18252 2.46298 6.09634C3.91139 7.57755 5.37998 9.03935 6.82551 10.525C8.68466 12.4333 10.3997 14.4565 11.6017 16.8904C11.704 17.0979 11.8092 17.304 11.913 17.5115C12.011 15.9303 12.0254 14.3759 12.0081 12.8364C11.9911 12.1467 12.116 11.4612 12.3744 10.8253C12.6328 10.1894 13.0189 9.61776 13.5069 9.14835C13.6771 8.99951 13.8572 8.8633 14.0459 8.74072V8.74072ZM10.6649 4.80774C11.642 5.67377 12.5874 6.42035 13.7721 6.80111C14.879 7.15349 15.8057 6.88323 16.594 6.01571C17.5019 5.01678 17.5668 3.62665 16.7381 2.6128C15.9094 1.59895 14.412 1.33466 13.4233 2.14843C12.4534 2.94129 11.606 3.88198 10.6649 4.80774ZM6.98836 13.3187C6.98836 14.8492 6.93071 16.3812 7.00566 17.9072C7.04568 18.5301 7.3046 19.1163 7.73348 19.5549C8.16236 19.9934 8.73147 20.254 9.3332 20.2873C10.577 20.344 10.9387 19.8946 10.5308 18.6837C9.82177 16.5917 8.48577 14.9134 6.98548 13.3247L6.98836 13.3187Z" fill="#101828"/>
</svg>
