<svg width="144" height="115" viewBox="0 0 144 115" fill="none" xmlns="http://www.w3.org/2000/svg">
<rect y="39" width="144" height="76" rx="16" fill="#344054"/>
<mask id="mask0_1844_17908" style="mask-type:alpha" maskUnits="userSpaceOnUse" x="0" y="0" width="144" height="115">
<rect width="144" height="115" rx="16" fill="#F1F5F9"/>
</mask>
<g mask="url(#mask0_1844_17908)">
<path d="M114.999 23.7832C114.999 23.7832 116.343 15.0376 122.8 15.0376C129.257 15.0376 127.726 23.7832 127.726 23.7832L114.999 83.0506H99.5096L114.999 23.7832Z" fill="#1A75FD"/>
<g style="mix-blend-mode:multiply">
<path d="M127.465 25.3971C127.465 25.3971 123.807 23.0324 121.045 29.7887C118.321 36.5449 109.251 82.9755 109.251 82.9755H99.9202L115.074 23.708C115.074 23.708 116.492 15.4879 122.426 15.0375C129.779 14.512 127.465 25.3971 127.465 25.3971Z" fill="#DCEEF0"/>
</g>
<path d="M67.0007 15C67.0007 15 61.4395 16.9143 59.536 23.7456L35.7607 109.438H82.9752C82.9752 109.438 92.0076 111.277 95.5907 99.153C99.1737 87.0293 114.999 23.7456 114.999 23.7456C114.999 23.7456 116.567 16.126 122.8 15H67.0007Z" fill="#4891FD"/>
<path d="M53.8627 60.4169L55.0197 56.5508H92.8659L92.0448 60.4169H53.8627Z" fill="#A3C8FE"/>
<path d="M50.0183 73.9672L51.1753 70.1011H89.0216L88.2005 73.9672H50.0183Z" fill="#A3C8FE"/>
<path d="M46.8832 89.2811L48.0402 85.415H85.8865L85.028 89.2811H46.8832Z" fill="#A3C8FE"/>
<path d="M91.2985 100.053C91.2985 100.053 90.776 105.158 87.3049 106.059C85.6999 106.472 80.6239 106.059 80.6239 106.059C80.6239 106.059 83.0499 104.745 84.2816 102.681C85.4387 100.729 85.6626 100.053 85.6626 100.053H91.2985Z" fill="#8DBAFE"/>
<path d="M57.1472 46.8671L58.3042 43.001H96.1505L95.3294 46.8671H57.1472Z" fill="#A3C8FE"/>
<path d="M97.2328 49.0063L99.2856 40.8237H106.638L104.548 49.0063H97.2328Z" fill="#8DBAFE"/>
<g style="mix-blend-mode:multiply">
<path d="M55.4303 38.6089H94.8069C94.8069 38.6089 98.6512 39.5097 98.6512 44.9147C98.6512 50.3197 88.6858 107.147 84.9161 108.874C81.1464 110.601 84.1323 108.874 84.1323 108.874H53.8627L53.4521 45.778L55.4303 38.6089Z" fill="#DCEEF0"/>
</g>
<path d="M93.9856 62.5566L96.0384 54.374H103.354L101.301 62.5566H93.9856Z" fill="#8DBAFE"/>
<path d="M90.104 76.1064L92.1941 67.9238H99.5096L97.4568 76.1064H90.104Z" fill="#8DBAFE"/>
<path d="M86.6329 91.458L88.6857 83.2754H96.0012L93.9484 91.458H86.6329Z" fill="#8DBAFE"/>
<path d="M83.311 45.3281C83.311 45.3281 90.9997 45.4783 88.6857 57.114C86.3343 68.7123 80.8104 96.488 80.6611 98.8527C80.5118 101.217 80.5118 107.598 86.3343 109.475H48.9359L70.7703 45.3281H83.311V45.3281Z" fill="#1A75FD"/>
<path d="M74.2413 73.4799L76.0329 65.2974H83.3483L81.5941 73.4799H74.2413Z" fill="#4891FD"/>
<path d="M71.5168 85.5654L73.2711 77.3828H80.6238L78.8323 85.5654H71.5168Z" fill="#4891FD"/>
<path d="M69.0162 98.7026L70.7705 90.52H78.1232L76.3317 98.7026H69.0162Z" fill="#4891FD"/>
<path d="M48.9733 71.3397L49.8317 67.4736H72.7485L71.89 71.3397H48.9733Z" fill="#8DBAFE"/>
<path d="M46.1366 83.2757L46.9577 79.4097H69.8745L69.0534 83.2757H46.1366Z" fill="#8DBAFE"/>
<path d="M43.3746 96.5628L44.1958 92.6968H67.1125L66.2914 96.5628H43.3746Z" fill="#8DBAFE"/>
<g style="mix-blend-mode:multiply">
<path d="M89.0216 51.5963C89.0216 51.5963 83.9455 51.2209 80.3251 58.4652C76.7047 65.7094 66.6273 102.493 66.3661 103.807C66.1048 105.121 65.6196 109.437 69.2027 109.437H48.9359L70.7703 55.7627C70.7703 55.7627 75.921 44.3896 83.3484 45.328C89.0216 46.0036 89.0216 51.5963 89.0216 51.5963Z" fill="#DCEEF0"/>
</g>
<path d="M60.1331 34.743L61.2901 30.877H99.1363L98.3152 34.743H60.1331Z" fill="#A3C8FE"/>
<path d="M-16.1194 131.17L13.329 58.4653C13.329 58.4653 18.0318 45.3281 27.2134 45.3281C34.2303 45.3281 49.645 45.3281 83.2737 45.3281C83.2737 45.3281 74.5772 45.3281 69.5385 58.4653L40.0901 131.17C40.0901 131.17 38.4105 136.237 35.7232 138.452H-24.4799C-24.4799 138.452 -18.956 138.152 -16.1194 131.17Z" fill="#4891FD"/>
<path d="M32.1776 120.098L35.7234 111.915H43.0761L39.5304 120.098H32.1776Z" fill="#8DBAFE"/>
<path d="M35.7606 138.452C35.7606 138.452 27.0642 138.677 30.8339 126.328C34.6409 113.979 35.7606 109.438 35.7606 109.438H-28.7348C-28.7348 109.438 -36.7594 129.256 -37.4312 130.607C-38.103 131.958 -39.4467 138.452 -32.5045 138.452H35.7606Z" fill="#1A75FD"/>
<path d="M54.8331 66.6484L58.3789 58.4658H65.7317L62.1859 66.6484H54.8331Z" fill="#8DBAFE"/>
<path d="M100.219 36.8828L102.271 28.7002H109.624L107.534 36.8828H100.219Z" fill="#8DBAFE"/>
<path d="M16.0165 65.297L18.3679 59.8169H53.4522L51.0634 65.297H16.0165Z" fill="#A3C8FE"/>
<path d="M10.7166 77.6076L13.068 72.165H48.1149L45.7635 77.6076H10.7166Z" fill="#A3C8FE"/>
<path d="M5.37921 90.5201L7.7306 85.04H42.8149L40.4262 90.5201H5.37921Z" fill="#A3C8FE"/>
<path d="M0.191162 103.432L2.57988 97.9521H37.6269L35.2381 103.432H0.191162Z" fill="#A3C8FE"/>
<path d="M49.7944 78.9965L53.3402 70.7764H60.693L57.1472 78.9965H49.7944Z" fill="#8DBAFE"/>
<path d="M43.9718 91.8716L47.5176 83.689H54.833L51.2873 91.8716H43.9718Z" fill="#8DBAFE"/>
<path d="M38.1868 104.784L41.7325 96.6011H49.048L45.5022 104.784H38.1868Z" fill="#8DBAFE"/>
<path d="M20.4205 121.074L22.8839 112.253H30.2367L27.8853 121.074H20.4205Z" fill="#4891FD"/>
</g>
</svg>
