<svg width="24" height="24" viewBox="0 0 24 24" fill="none" xmlns="http://www.w3.org/2000/svg">
<path d="M9.00012 3H3.00012V9H9.00012V3Z" fill="#999999"/>
<path fill-rule="evenodd" clip-rule="evenodd" d="M2.25012 3C2.25012 2.58579 2.58591 2.25 3.00012 2.25H9.00012C9.41434 2.25 9.75012 2.58579 9.75012 3V9C9.75012 9.41421 9.41434 9.75 9.00012 9.75H3.00012C2.58591 9.75 2.25012 9.41421 2.25012 9V3ZM3.75012 3.75V8.25H8.25012V3.75H3.75012Z" fill="#999999"/>
<path d="M9.00012 15H3.00012V21H9.00012V15Z" fill="#999999"/>
<path fill-rule="evenodd" clip-rule="evenodd" d="M2.25012 15C2.25012 14.5858 2.58591 14.25 3.00012 14.25H9.00012C9.41434 14.25 9.75012 14.5858 9.75012 15V21C9.75012 21.4142 9.41434 21.75 9.00012 21.75H3.00012C2.58591 21.75 2.25012 21.4142 2.25012 21V15ZM3.75012 15.75V20.25H8.25012V15.75H3.75012Z" fill="#999999"/>
<path d="M21.0001 15H15.0001V21H21.0001V15Z" fill="#999999"/>
<path fill-rule="evenodd" clip-rule="evenodd" d="M14.2501 15C14.2501 14.5858 14.5859 14.25 15.0001 14.25H21.0001C21.4143 14.25 21.7501 14.5858 21.7501 15V21C21.7501 21.4142 21.4143 21.75 21.0001 21.75H15.0001C14.5859 21.75 14.2501 21.4142 14.2501 21V15ZM15.7501 15.75V20.25H20.2501V15.75H15.7501Z" fill="#999999"/>
<path d="M21.0001 3H15.0001V9H21.0001V3Z" fill="#999999"/>
<path fill-rule="evenodd" clip-rule="evenodd" d="M14.2501 3C14.2501 2.58579 14.5859 2.25 15.0001 2.25H21.0001C21.4143 2.25 21.7501 2.58579 21.7501 3V9C21.7501 9.41421 21.4143 9.75 21.0001 9.75H15.0001C14.5859 9.75 14.2501 9.41421 14.2501 9V3ZM15.7501 3.75V8.25H20.2501V3.75H15.7501Z" fill="#999999"/>
<path fill-rule="evenodd" clip-rule="evenodd" d="M12.0001 2.25C12.4143 2.25 12.7501 2.58579 12.7501 3V12C12.7501 12.4142 12.4143 12.75 12.0001 12.75C11.5859 12.75 11.2501 12.4142 11.2501 12V3C11.2501 2.58579 11.5859 2.25 12.0001 2.25Z" fill="#999999"/>
<path fill-rule="evenodd" clip-rule="evenodd" d="M12.0001 14.25C12.4143 14.25 12.7501 14.5858 12.7501 15V21C12.7501 21.4142 12.4143 21.75 12.0001 21.75C11.5859 21.75 11.2501 21.4142 11.2501 21V15C11.2501 14.5858 11.5859 14.25 12.0001 14.25Z" fill="#999999"/>
<path fill-rule="evenodd" clip-rule="evenodd" d="M2.25012 12C2.25012 11.5858 2.58591 11.25 3.00012 11.25H12.0001C12.4143 11.25 12.7501 11.5858 12.7501 12C12.7501 12.4142 12.4143 12.75 12.0001 12.75H3.00012C2.58591 12.75 2.25012 12.4142 2.25012 12Z" fill="#999999"/>
<path fill-rule="evenodd" clip-rule="evenodd" d="M14.2501 12C14.2501 11.5858 14.5859 11.25 15.0001 11.25H21.0001C21.4143 11.25 21.7501 11.5858 21.7501 12C21.7501 12.4142 21.4143 12.75 21.0001 12.75H15.0001C14.5859 12.75 14.2501 12.4142 14.2501 12Z" fill="#999999"/>
</svg>
