<svg width="24" height="24" viewBox="0 0 24 24" fill="none" xmlns="http://www.w3.org/2000/svg">
<path fill-rule="evenodd" clip-rule="evenodd" d="M18.3153 2.47353C18.5529 2.23243 18.9226 2.18042 19.2176 2.34659C19.6164 2.57127 20.2281 2.92192 20.7687 3.24452C21.0384 3.40549 21.2953 3.56238 21.5007 3.69454C21.6031 3.76038 21.6979 3.82343 21.7774 3.87988C21.8439 3.92717 21.9412 3.99847 22.0185 4.07678L22.0185 4.07679C22.2953 4.35755 22.2698 4.70524 22.2118 4.89278C22.1611 5.05699 22.0701 5.17901 22.0177 5.24367C21.9028 5.38542 21.7475 5.52037 21.6043 5.63383C21.3041 5.87171 20.8937 6.14161 20.4829 6.38461C20.0711 6.62824 19.6298 6.86206 19.2616 7.02076C19.0818 7.09824 18.8907 7.17045 18.7161 7.21144C18.6315 7.23131 18.5142 7.25284 18.386 7.24972C18.2817 7.24718 18.0104 7.2257 17.7884 7.00054C17.7635 6.97531 17.7224 6.93492 17.6699 6.88335C17.5031 6.71938 17.2213 6.44237 16.98 6.18019C16.8195 6.00576 16.6493 5.80906 16.521 5.62477C16.4583 5.53467 16.3868 5.42111 16.3344 5.29671C16.2969 5.20798 16.1918 4.9421 16.2923 4.63637C16.3346 4.50792 16.4107 4.39327 16.5128 4.30457C16.9419 3.93155 17.5376 3.29734 17.9501 2.8581C18.1028 2.69546 18.2305 2.55955 18.3153 2.47353ZM18.9902 3.94295C18.7017 4.24965 18.3105 4.66186 17.9496 5.01474C17.9905 5.06185 18.0354 5.1119 18.0837 5.16436C18.2558 5.35131 18.4338 5.5297 18.5842 5.67821C18.61 5.6678 18.6379 5.65618 18.6678 5.64327C18.9584 5.51805 19.3405 5.31762 19.7192 5.0936C19.9319 4.96778 20.1343 4.83991 20.3111 4.7202C20.2129 4.66023 20.1084 4.59728 20 4.53258C19.6691 4.33515 19.3092 4.12594 18.9902 3.94295ZM18.3622 5.75343C18.3623 5.7534 18.3634 5.75318 18.3655 5.75286C18.3633 5.75331 18.3622 5.75346 18.3622 5.75343Z" fill="#98A2B3"/>
<path d="M5.68595 8.36109C5.68 8.31724 5.6751 8.27334 5.6712 8.22949C4.72795 9.14489 4.00824 10.1955 3.52135 11.3003C4.31792 11.4672 4.91611 12.1737 4.91611 13.0199C4.91611 13.9902 4.1295 14.7768 3.15917 14.7768C3.02479 14.7768 2.89394 14.7617 2.7682 14.7331C2.75788 16.5062 3.34263 18.2106 4.55827 19.5338C6.31055 21.4411 8.96285 22.1092 11.5735 21.5659C13.1799 21.2316 14.7705 20.4386 16.1259 19.1934C16.7977 18.5762 17.3637 17.8921 17.8208 17.1676C16.7086 17.5026 15.4834 16.9616 15.0204 15.8689C14.7893 15.3234 14.3099 14.9225 13.7322 14.7914L12.8909 14.6005C11.9254 14.3814 11.1313 13.698 10.7707 12.776L10.7254 12.6602C10.3294 11.6479 9.3818 10.9575 8.29685 10.8908C6.9667 10.8091 5.87985 9.79849 5.7017 8.47779L5.68595 8.36109Z" fill="#98A2B3"/>
<path fill-rule="evenodd" clip-rule="evenodd" d="M5.93248 7.5265C6.20361 7.62726 6.39263 7.87496 6.41825 8.16307C6.42115 8.19571 6.42478 8.22814 6.42914 8.26027L6.44496 8.3775C6.57525 9.34337 7.3701 10.0825 8.34286 10.1423C9.71932 10.2268 10.9215 11.1028 11.4238 12.387C11.4238 12.387 11.4238 12.387 11.4238 12.387L11.4691 12.5028C11.7391 13.1932 12.3338 13.705 13.0568 13.8691C13.0568 13.8691 13.0568 13.8691 13.0568 13.8691L13.8982 14.06C14.7111 14.2445 15.3857 14.8087 15.711 15.5763C16.0194 16.3042 16.8458 16.678 17.6044 16.4495C17.9041 16.3592 18.2283 16.4645 18.4177 16.7136C18.6071 16.9626 18.622 17.3032 18.4551 17.5678C17.9626 18.3484 17.354 19.0837 16.6333 19.7457C15.1796 21.0813 13.4668 21.938 11.7263 22.3002C8.90236 22.8879 5.96616 22.1748 4.00597 20.0412C2.64898 18.5642 2.0069 16.6708 2.01821 14.7288C2.01954 14.5014 2.12394 14.2869 2.30207 14.1456C2.48021 14.0043 2.71283 13.9514 2.93455 14.0018C3.00589 14.0181 3.08095 14.0268 3.15917 14.0268C3.7153 14.0268 4.16611 13.576 4.16611 13.0199C4.16611 12.5358 3.82378 12.13 3.3675 12.0344C3.14616 11.988 2.95756 11.8442 2.85422 11.643C2.75089 11.4418 2.74384 11.2048 2.83505 10.9978C3.36108 9.80425 4.13663 8.67366 5.14888 7.6913C5.35645 7.48985 5.66135 7.42573 5.93248 7.5265ZM4.54088 10.928C5.21887 11.3765 5.66611 12.1455 5.66611 13.0199C5.66611 14.2699 4.75124 15.3062 3.55458 15.4958C3.69063 16.8153 4.20729 18.0432 5.11057 19.0264C6.65494 20.7074 9.02334 21.3306 11.4206 20.8317C12.8929 20.5253 14.3614 19.796 15.6185 18.6411C15.8746 18.4058 16.1139 18.1603 16.3362 17.9062C15.4677 17.669 14.7091 17.0566 14.3298 16.1615C14.1929 15.8382 13.9087 15.6005 13.5662 15.5228C13.5662 15.5228 13.5663 15.5228 13.5662 15.5228L12.7249 15.3319C11.517 15.0578 10.5234 14.2028 10.0722 13.0493C10.0722 13.0493 10.0722 13.0493 10.0722 13.0493L10.0269 12.9335C9.73732 12.1932 9.04429 11.6882 8.25086 11.6395C6.98048 11.5614 5.88501 10.8155 5.32463 9.73667C5.02702 10.1195 4.76563 10.5184 4.54088 10.928Z" fill="#98A2B3"/>
<path fill-rule="evenodd" clip-rule="evenodd" d="M11.41 2.93945C12.77 2.80572 14.1423 2.99629 15.4144 3.49552C16.886 4.07307 18.1711 5.04311 19.1298 6.30014C19.1299 6.30017 19.1298 6.30012 19.1298 6.30014L19.2558 6.46524C20.38 7.9392 21.0427 9.71302 21.1603 11.563L21.214 12.4082C21.214 12.4082 21.214 12.4082 21.214 12.4082C21.2404 12.8245 21.2213 13.2426 21.1568 13.6548L21.0528 14.3193C20.813 15.852 19.784 17.1558 18.3669 17.7655C16.8211 18.4304 14.994 17.728 14.3302 16.1614C14.1932 15.838 13.909 15.6004 13.5666 15.5227C13.5666 15.5226 13.5666 15.5227 13.5666 15.5227L12.7252 15.3318C11.5173 15.0576 10.5237 14.2027 10.0725 13.0491C10.0725 13.0491 10.0725 13.0491 10.0725 13.0491L10.0272 12.9333C9.73761 12.193 9.04463 11.6881 8.25117 11.6393C6.56365 11.5356 5.18479 10.2535 4.95877 8.57796M4.95877 8.57796L4.94303 8.46123C4.94303 8.46123 4.94303 8.46124 4.94303 8.46123C4.79506 7.36461 5.14782 6.25953 5.9037 5.45142C5.9037 5.45141 5.9037 5.45142 5.9037 5.45142L6.02955 5.31687C7.25678 4.00486 8.91955 3.18435 10.7074 3.00854L11.41 2.93945C11.41 2.93945 11.41 2.93945 11.41 2.93945M14.8664 4.89183C13.815 4.47922 12.6808 4.32172 11.5568 4.43225L10.8542 4.50134C10.8542 4.50134 10.8542 4.50134 10.8542 4.50134C9.42894 4.64149 8.1034 5.29558 7.12503 6.34152C7.12503 6.34152 7.12504 6.34151 7.12503 6.34152L6.99918 6.47607C6.55098 6.95525 6.34183 7.61048 6.42956 8.26065L6.44531 8.37742C6.57559 9.34327 7.37042 10.0823 8.3432 10.1421C9.71962 10.2267 10.9218 11.1026 11.4241 12.3869C11.4241 12.3869 11.4241 12.3868 11.4241 12.3869L11.4694 12.5027C11.7395 13.1931 12.3342 13.7049 13.0572 13.8689L13.8985 14.0598C14.7114 14.2443 15.386 14.8086 15.7113 15.5761C16.0434 16.3598 16.975 16.7313 17.7741 16.3876C18.7256 15.9782 19.4121 15.1022 19.5709 14.0875L19.6748 13.4229C19.7224 13.1189 19.7365 12.8105 19.717 12.5034L19.6633 11.6582C19.5645 10.1038 19.0078 8.61347 18.0632 7.37504C18.0632 7.37502 18.0632 7.37506 18.0632 7.37504L17.9372 7.20994C17.1449 6.17102 16.0827 5.36919 14.8664 4.89183Z" fill="#98A2B3"/>
</svg>
