<svg width="25" height="24" viewBox="0 0 25 24" fill="none" xmlns="http://www.w3.org/2000/svg">
<path fill-rule="evenodd" clip-rule="evenodd" d="M1.75 21C1.75 20.5858 2.08579 20.25 2.5 20.25H22.5C22.9142 20.25 23.25 20.5858 23.25 21C23.25 21.4142 22.9142 21.75 22.5 21.75H2.5C2.08579 21.75 1.75 21.4142 1.75 21Z" fill="#98A2B3"/>
<path d="M7.5 13H5.5C4.94772 13 4.5 13.4477 4.5 14V20C4.5 20.5523 4.94772 21 5.5 21H7.5C8.05228 21 8.5 20.5523 8.5 20V14C8.5 13.4477 8.05228 13 7.5 13Z" fill="#98A2B3"/>
<path fill-rule="evenodd" clip-rule="evenodd" d="M5.5 13.75C5.36193 13.75 5.25 13.8619 5.25 14V20C5.25 20.1381 5.36193 20.25 5.5 20.25H7.5C7.63807 20.25 7.75 20.1381 7.75 20V14C7.75 13.8619 7.63807 13.75 7.5 13.75H5.5ZM3.75 14C3.75 13.0335 4.5335 12.25 5.5 12.25H7.5C8.4665 12.25 9.25 13.0335 9.25 14V20C9.25 20.9665 8.4665 21.75 7.5 21.75H5.5C4.5335 21.75 3.75 20.9665 3.75 20V14Z" fill="#98A2B3"/>
<path fill-rule="evenodd" clip-rule="evenodd" d="M5.75 17C5.75 16.5858 6.08579 16.25 6.5 16.25H7C7.41421 16.25 7.75 16.5858 7.75 17C7.75 17.4142 7.41421 17.75 7 17.75H6.5C6.08579 17.75 5.75 17.4142 5.75 17Z" fill="#FFFBFF"/>
<path d="M19.5 2H9.5C8.94772 2 8.5 2.44772 8.5 3V20C8.5 20.5523 8.94772 21 9.5 21H19.5C20.0523 21 20.5 20.5523 20.5 20V3C20.5 2.44772 20.0523 2 19.5 2Z" fill="#98A2B3"/>
<path fill-rule="evenodd" clip-rule="evenodd" d="M9.5 2.75C9.36193 2.75 9.25 2.86193 9.25 3V20C9.25 20.1381 9.36193 20.25 9.5 20.25H19.5C19.6381 20.25 19.75 20.1381 19.75 20V3C19.75 2.86193 19.6381 2.75 19.5 2.75H9.5ZM7.75 3C7.75 2.0335 8.5335 1.25 9.5 1.25H19.5C20.4665 1.25 21.25 2.0335 21.25 3V20C21.25 20.9665 20.4665 21.75 19.5 21.75H9.5C8.5335 21.75 7.75 20.9665 7.75 20V3Z" fill="#98A2B3"/>
<path d="M13.5 5H11.5V7H13.5V5Z" fill="#FFFBFF"/>
<path d="M17.5 5H15.5V7H17.5V5Z" fill="#FFFBFF"/>
<path d="M13.5 8.5H11.5V10.5H13.5V8.5Z" fill="#FFFBFF"/>
<path d="M17.5 8.5H15.5V10.5H17.5V8.5Z" fill="#FFFBFF"/>
<path d="M17.5 12H15.5V14H17.5V12Z" fill="#FFFBFF"/>
<path d="M17.5 15.5H15.5V17.5H17.5V15.5Z" fill="#FFFBFF"/>
</svg>
